<?xml version="1.0" standalone="no"?>
<!DOCTYPE svg PUBLIC "-//W3C//DTD SVG 1.1//EN" "http://www.w3.org/Graphics/SVG/1.1/DTD/svg11.dtd" >
<svg>
<metadata>
Created by FontForge 20090622 at Fri Dec  2 18:51:12 2016
 By deploy user
Copyright (c) 2012 by Fontfabric LLC. All rights reserved.
</metadata>
<defs>
<font id="NexaBlack" horiz-adv-x="622" >
  <font-face 
    font-family="Nexa Black"
    font-weight="900"
    font-stretch="normal"
    units-per-em="1000"
    panose-1="2 0 0 0 0 0 0 0 0 0"
    ascent="750"
    descent="-250"
    x-height="494"
    cap-height="700"
    bbox="-184 -305 1273 991"
    underline-thickness="50"
    underline-position="-50"
    unicode-range="U+0020-U+FB02"
  />
<missing-glyph horiz-adv-x="665" 
d="M250 142q0 -38 31 -54t62 0t31 54q0 40 -31 56.5t-62 0t-31 -56.5zM142 443h108q-1 24 20 42t50 18q73 0 74 -57q0 -17 -9.5 -26t-33.5 -18t-34 -15q-2 -2 -13.5 -11.5t-17.5 -17t-14.5 -22t-12 -36t-3.5 -49.5l107 -1q0 18 7 49q10 9 36 21.5t46 24t36.5 38t15.5 63.5
q0 75 -53 114.5t-131 39.5t-128.5 -41t-49.5 -116zM40 0v700h563v-700h-563z" />
    <glyph glyph-name=".notdef" horiz-adv-x="665" 
d="M250 142q0 -38 31 -54t62 0t31 54q0 40 -31 56.5t-62 0t-31 -56.5zM142 443h108q-1 24 20 42t50 18q73 0 74 -57q0 -17 -9.5 -26t-33.5 -18t-34 -15q-2 -2 -13.5 -11.5t-17.5 -17t-14.5 -22t-12 -36t-3.5 -49.5l107 -1q0 18 7 49q10 9 36 21.5t46 24t36.5 38t15.5 63.5
q0 75 -53 114.5t-131 39.5t-128.5 -41t-49.5 -116zM40 0v700h563v-700h-563z" />
    <glyph glyph-name=".null" horiz-adv-x="0" 
 />
    <glyph glyph-name="nonmarkingreturn" horiz-adv-x="333" 
 />
    <glyph glyph-name="space" unicode=" " horiz-adv-x="227" 
 />
    <glyph glyph-name="exclam" unicode="!" horiz-adv-x="321" 
d="M254 230h-187l-3 470h194zM159 -5q-50 0 -78 30.5t-28 67.5t28 67.5t78 30.5t79 -30.5t29 -67.5t-28.5 -67.5t-79.5 -30.5z" />
    <glyph glyph-name="quotedbl" unicode="&#x22;" horiz-adv-x="471" 
d="M58 701h150v-273h-150v273zM263 701h150v-273h-150v273z" />
    <glyph glyph-name="numbersign" unicode="#" horiz-adv-x="739" 
d="M244 700h168l-36 -143h93l35 143h170l-36 -143h64v-141h-99l-38 -145h72v-142h-104l-31 -129h-169l31 129h-92l-32 -129h-167l31 129h-68v142h104l35 146h-74v140h109zM437 425h-93l-40 -160h93z" />
    <glyph glyph-name="dollar" unicode="$" horiz-adv-x="685" 
d="M259 -110v94q-130 15 -227 119l109 125q81 -79 205 -79q50 0 80 16.5t30 45.5q0 53 -117 64q-64 6 -110 17.5t-88.5 35.5t-64.5 67.5t-22 106.5q0 84 57 135.5t148 68.5v91h168v-89q103 -15 182 -77l-98 -125q-64 48 -164 48q-40 0 -67.5 -13t-27.5 -39q0 -33 27 -44.5
t89 -17.5q57 -6 104 -20.5t89.5 -40.5t66.5 -69.5t24 -101.5q0 -93 -63 -148.5t-163 -72.5h1v-97h-168z" />
    <glyph glyph-name="percent" unicode="%" horiz-adv-x="900" 
d="M211 710q87 0 133 -49.5t46 -118.5q0 -70 -46 -118.5t-133 -48.5t-132.5 48.5t-45.5 118.5q0 69 45.5 118.5t132.5 49.5zM588 699h180l-458 -699h-183zM211 498q23 0 35 13t12 31t-12 31t-35 13t-35 -13t-12 -31t12 -31t35 -13zM688 327q87 0 133 -49.5t46 -118.5
q0 -70 -46 -118.5t-133 -48.5t-132.5 48.5t-45.5 118.5q0 69 45.5 118.5t132.5 49.5zM688 115q23 0 35 13t12 31t-12 31t-35 13t-35 -13t-12 -31t12 -31t35 -13z" />
    <glyph glyph-name="ampersand" unicode="&#x26;" horiz-adv-x="743" 
d="M236 215q0 -34 28 -50.5t69 -16.5q46 0 79.5 23.5t33.5 63.5v47h-107q-103 0 -103 -67zM627 498h-180q-1 44 -46 61t-90 -0.5t-45 -58.5q0 -36 26 -55.5t58 -19.5h345v-140h-71v-54q0 -30 20 -47.5t55 -11.5v-173q-135 -26 -175 75q-80 -85 -215 -85q-54 0 -99 10.5
t-84.5 33.5t-62 66.5t-22.5 104.5q0 41 28 84t73 69q-39 20 -58 61t-19 78q0 60 27.5 104.5t72.5 68t92.5 34t98.5 10.5q118 0 194.5 -51.5t76.5 -163.5z" />
    <glyph glyph-name="quotesingle" unicode="'" horiz-adv-x="266" 
d="M58 701h150v-273h-150v273z" />
    <glyph glyph-name="parenleft" unicode="(" horiz-adv-x="374" 
d="M284 797l84 -98q-80 -66 -127 -166.5t-47 -214.5q0 -107 44.5 -210t119.5 -165l-79 -106q-124 83 -187.5 206.5t-63.5 274.5q0 144 69.5 270.5t186.5 208.5z" />
    <glyph glyph-name="parenright" unicode=")" horiz-adv-x="374" 
d="M6 699l84 98q117 -82 186.5 -208.5t69.5 -270.5q0 -151 -63.5 -274.5t-187.5 -206.5l-79 106q75 62 119.5 165t44.5 210q0 114 -47 214.5t-127 166.5z" />
    <glyph glyph-name="asterisk" unicode="*" horiz-adv-x="433" 
d="M369 463l-106 -79l-46 78l-45 -79l-109 69l62 66l-88 18l37 118l85 -34l-7 86h133l-14 -87l91 38l34 -121l-87 -16z" />
    <glyph glyph-name="plus" unicode="+" horiz-adv-x="518" 
d="M40 400h136v132h165v-132h137v-153h-137v-133h-165v133h-136v153z" />
    <glyph glyph-name="comma" unicode="," horiz-adv-x="275" 
d="M230 61q0 -50 -58 -169h-96l21 103q-53 10 -53 67q0 38 28.5 59.5t68.5 21.5q37 0 63 -21.5t26 -60.5z" />
    <glyph glyph-name="hyphen" unicode="-" horiz-adv-x="510" 
d="M54 217v146h402v-146h-402z" />
    <glyph glyph-name="period" unicode="." horiz-adv-x="283" 
d="M141 -8q-46 0 -73 28.5t-27 62t26.5 62t73.5 28.5q38 0 64 -18.5t32 -45t0 -53.5t-32 -45.5t-64 -18.5z" />
    <glyph glyph-name="slash" unicode="/" horiz-adv-x="532" 
d="M336 752h173l-314 -829h-171z" />
    <glyph glyph-name="zero" unicode="0" horiz-adv-x="728" 
d="M241 392v-95q0 -77 34 -115.5t89 -38.5q56 0 90 38.5t34 115.5v95q0 74 -33.5 112t-88.5 38t-90 -37.5t-35 -112.5zM47 297v96q0 161 89.5 238.5t229.5 77.5t227.5 -79.5t87.5 -236.5v-95q0 -159 -88.5 -238t-224.5 -79q-65 0 -120.5 17.5t-101.5 54t-72.5 99
t-26.5 145.5z" />
    <glyph glyph-name="one" unicode="1" horiz-adv-x="474" 
d="M48 0v149h112v333l-106 -31v155l292 106v-563h104v-149h-402z" />
    <glyph glyph-name="two" unicode="2" horiz-adv-x="690" 
d="M251 479h-193q1 115 84 173t210 58q125 0 207.5 -57t82.5 -164q0 -232 -293 -232q-114 0 -114 -89h402v-168h-591v163q0 250 303 250q37 0 67.5 17.5t30.5 55.5q0 34 -27.5 50.5t-67.5 16.5q-94 0 -101 -74z" />
    <glyph glyph-name="three" unicode="3" horiz-adv-x="696" 
d="M351 287h-127v140h118q96 0 98 58q0 27 -27 45.5t-71 18.5q-43 0 -72.5 -17t-30.5 -52h-190q1 50 18.5 90t46 66t66.5 43.5t78.5 25t83.5 7.5q54 0 104 -12t94 -36.5t71 -68.5t27 -102q0 -41 -25.5 -79t-67.5 -56q109 -40 109 -154q0 -58 -29 -102.5t-77 -68t-100 -35
t-107 -11.5q-44 0 -85.5 8t-81.5 26.5t-69.5 46t-47.5 69.5t-18 94h194q1 -44 34.5 -64t83.5 -20q39 0 68 18.5t29 50.5q0 10 -2.5 19t-11 22.5t-30 21.5t-53.5 8z" />
    <glyph glyph-name="four" unicode="4" horiz-adv-x="691" 
d="M392 700h183v-423h75v-156h-75v-121h-186v121h-357l-13 164zM223 277h166v183z" />
    <glyph glyph-name="five" unicode="5" horiz-adv-x="665" 
d="M591 699v-161h-349v-83h94q63 0 111.5 -10t91.5 -34t66 -71.5t23 -115.5q0 -62 -26 -108.5t-69 -73t-92 -39t-101 -12.5q-135 0 -213.5 57.5t-79.5 183.5h193q0 -41 30 -61.5t68 -20.5q13 0 27.5 3t31.5 10.5t27.5 23t10.5 37.5q0 24 -9.5 40.5t-26.5 23.5t-31.5 9.5
t-31.5 2.5h-277v399h532z" />
    <glyph glyph-name="six" unicode="6" horiz-adv-x="706" 
d="M652 497h-189q-3 30 -32 45.5t-73 15.5t-77 -23t-33 -61v-66q64 48 162 48q115 0 186.5 -59.5t71.5 -167.5q0 -62 -25.5 -110t-69.5 -75.5t-97 -41.5t-113 -14q-80 0 -147.5 23.5t-114.5 80.5t-47 139v243q0 79 44.5 134.5t111 79.5t147.5 24q62 0 113 -11t93 -35
t65.5 -67t23.5 -102zM363 150q47 0 77.5 21.5t30.5 57.5q0 40 -29 62.5t-78 22.5q-55 0 -84.5 -23.5t-29.5 -60.5q0 -33 30 -56.5t83 -23.5z" />
    <glyph glyph-name="seven" unicode="7" horiz-adv-x="593" 
d="M285 0h-214l265 538h-307v163h552l5 -89z" />
    <glyph glyph-name="eight" unicode="8" horiz-adv-x="721" 
d="M361 292q-52 0 -83 -19.5t-31 -54.5t32.5 -54.5t80.5 -19.5q47 0 79.5 19t31.5 54q0 34 -29 54.5t-81 20.5zM42 218q1 35 24.5 78t68.5 67q-70 50 -72 139q0 103 80.5 158t208.5 55q131 0 219.5 -55.5t88.5 -155.5q1 -41 -18.5 -76.5t-55.5 -57.5q49 -27 70 -70t22 -82
q2 -121 -84.5 -177t-233.5 -56q-95 0 -164.5 21.5t-112.5 75t-41 136.5zM356 422q37 0 62 14.5t31 36t0.5 42.5t-30.5 35.5t-62 14.5t-62 -14.5t-31 -35.5t0 -42.5t31 -36t61 -14.5z" />
    <glyph glyph-name="nine" unicode="9" horiz-adv-x="708" 
d="M49 203h189q3 -30 32 -45.5t73 -15.5q46 0 81.5 24t35.5 66v60q-60 -48 -162 -48q-115 0 -186.5 59.5t-71.5 167.5q0 62 25.5 110t69.5 75.5t97 41.5t113 14q80 0 147.5 -23.5t114.5 -80.5t47 -139v-236q0 -63 -26 -112t-71 -77t-98.5 -42t-113.5 -14q-49 0 -91.5 6.5
t-81 22.5t-65 40t-42.5 61.5t-16 84.5zM345 550q-47 0 -77.5 -21.5t-30.5 -57.5q0 -40 29 -62.5t78 -22.5q55 0 84.5 23.5t29.5 60.5q0 33 -30 56.5t-83 23.5z" />
    <glyph glyph-name="colon" unicode=":" horiz-adv-x="314" 
d="M57 83q0 42 29.5 65.5t69.5 23.5q41 0 71 -23.5t30 -65.5t-30 -65.5t-71 -23.5q-40 0 -69.5 23.5t-29.5 65.5zM57 354q0 42 29 65t70 23t71 -23t30 -65t-30 -65.5t-71 -23.5t-70 23.5t-29 65.5z" />
    <glyph glyph-name="semicolon" unicode=";" horiz-adv-x="296" 
d="M54 354q0 39 27 60.5t65 21.5t66 -21.5t28 -60.5q0 -40 -28 -61.5t-66 -21.5t-65 21.5t-27 61.5zM241 61q0 -50 -58 -169h-96l21 103q-53 10 -53 67q0 38 28.5 59.5t68.5 21.5q37 0 63 -21.5t26 -60.5z" />
    <glyph glyph-name="less" unicode="&#x3c;" horiz-adv-x="441" 
d="M245 309l144 -136l-115 -117l-243 248v12l245 247l114 -117z" />
    <glyph glyph-name="equal" unicode="=" horiz-adv-x="557" 
d="M60 127v144h437v-144h-437zM60 341v145h437v-145h-437z" />
    <glyph glyph-name="greater" unicode="&#x3e;" horiz-adv-x="443" 
d="M53 164l149 145l-151 146l116 112l245 -250v-14l-245 -250z" />
    <glyph glyph-name="question" unicode="?" horiz-adv-x="601" 
d="M382 230h-194q2 39 12 70.5t19.5 49t31.5 36t31 24.5t35 21q47 28 48 57q1 25 -18 42.5t-55 17.5q-83 0 -83 -74h-176q-7 74 29 128.5t96 80t134 25.5q117 0 197 -55t79 -163q0 -40 -19 -69.5t-46 -48.5l-54 -36.5t-46.5 -44t-20.5 -61.5zM287 -5q-50 0 -78 30.5
t-28 67.5t28 67.5t78 30.5t79 -30.5t29 -67.5t-28.5 -67.5t-79.5 -30.5z" />
    <glyph glyph-name="at" unicode="@" horiz-adv-x="922" 
d="M590 -19l45 -91q-80 -47 -175 -47q-63 0 -122.5 14t-114 45.5t-94.5 77.5t-64 113.5t-24 149.5q0 96 36.5 175.5t97.5 129.5t136.5 77t155.5 27q90 0 165 -24t133 -71t90.5 -125.5t32.5 -180.5q0 -119 -52.5 -190t-141.5 -71q-77 0 -101 79q-44 -72 -149 -72
q-107 0 -172 65t-65 181q0 114 70.5 179t166.5 65q46 0 83.5 -17.5t54.5 -47.5l6 49l107 -17v-321q0 -16 7.5 -22.5t14.5 -6.5q28 0 44 37t16 107q0 157 -79.5 227.5t-230.5 70.5q-127 0 -218.5 -84t-91.5 -219q0 -77 25 -135t68.5 -92t97 -50.5t115.5 -16.5q74 0 127 32z
M460 363q-56 0 -85 -35t-29 -84t29.5 -83t85.5 -34q55 0 85 34.5t30 87.5q0 49 -30 81.5t-86 32.5z" />
    <glyph glyph-name="A" unicode="A" horiz-adv-x="797" 
d="M600 0l-46 115h-313l-46 -115h-210l314 700h200l313 -700h-212zM487 281l-89 223l-90 -223h179z" />
    <glyph glyph-name="B" unicode="B" horiz-adv-x="739" 
d="M266 287v-133h167q36 0 55 18t19 48t-19 48.5t-55 18.5h-167zM266 540v-107h158q30 0 46.5 14t16.5 38t-16.5 39.5t-44.5 15.5h-160zM71 700h358q111 0 182.5 -50t71.5 -146q0 -101 -77 -136q47 -25 72 -69.5t25 -93.5q0 -56 -23.5 -97.5t-64.5 -64t-86 -33t-97 -10.5
h-361v700z" />
    <glyph glyph-name="C" unicode="C" horiz-adv-x="707" 
d="M581 221l116 -130q-110 -109 -281 -109q-100 0 -175.5 29.5t-119.5 81t-66 115t-22 137.5q0 69 23.5 134t68.5 118.5t120.5 86t170.5 32.5q156 0 271 -112l-122 -120q-64 61 -149 61q-93 0 -140.5 -61.5t-46.5 -139.5q1 -79 46.5 -136.5t140.5 -57.5q39 0 84.5 17.5
t80.5 53.5z" />
    <glyph glyph-name="D" unicode="D" horiz-adv-x="771" 
d="M71 700h300q178 0 272 -96.5t94 -248.5q0 -154 -93.5 -254.5t-272.5 -100.5h-300v700zM267 535v-368h104q88 0 129 54.5t41 135.5q0 78 -42 128t-128 50h-104z" />
    <glyph glyph-name="E" unicode="E" horiz-adv-x="672" 
d="M631 167v-167h-560v700h546v-166h-351v-100h331v-161h-331v-106h365z" />
    <glyph glyph-name="F" unicode="F" horiz-adv-x="641" 
d="M267 0h-196v700h537v-166h-341v-131h320v-162h-320v-241z" />
    <glyph glyph-name="G" unicode="G" horiz-adv-x="756" 
d="M690 607l-115 -114q-65 61 -160 61q-88 0 -138 -52.5t-50 -152.5q0 -50 16.5 -93t61 -75.5t110.5 -32.5q85 0 135 36v90h-177v155h342v-311q-32 -65 -114.5 -101t-186.5 -36q-100 0 -176 31.5t-119.5 84.5t-65 116.5t-21.5 135.5q0 71 23.5 135.5t69 118t120.5 85.5
t170 32q81 0 146 -24t129 -89z" />
    <glyph glyph-name="H" unicode="H" horiz-adv-x="788" 
d="M717 -1h-196v265h-252v-265h-198v700h198v-266h252v266h196v-700z" />
    <glyph glyph-name="I" unicode="I" horiz-adv-x="339" 
d="M268 0h-197v700h197v-700z" />
    <glyph glyph-name="J" unicode="J" horiz-adv-x="728" 
d="M15 302h193q1 -74 37 -109.5t92 -35.5q63 0 97.5 37.5t34.5 108.5v231h-186v166h384v-398q0 -142 -87.5 -229.5t-244.5 -87.5q-320 0 -320 317z" />
    <glyph glyph-name="K" unicode="K" horiz-adv-x="703" 
d="M690 700v-12l-284 -331l308 -345v-12h-245l-200 233v-233h-198v700h198v-230l184 230h237z" />
    <glyph glyph-name="L" unicode="L" horiz-adv-x="620" 
d="M71 700h198v-532h335v-168h-533v700z" />
    <glyph glyph-name="M" unicode="M" horiz-adv-x="923" 
d="M656 0v417l-179 -212h-35l-175 211v-416h-196v700h207l184 -237l184 237h206v-700h-196z" />
    <glyph glyph-name="N" unicode="N" horiz-adv-x="799" 
d="M239 700l296 -383q-2 31 -6 143v240h199v-700h-168l-292 377l3 -153v-224h-200v700h168z" />
    <glyph glyph-name="O" unicode="O" horiz-adv-x="842" 
d="M810 350q0 -172 -106.5 -269.5t-282.5 -97.5q-175 0 -282 97.5t-107 269.5q0 170 107.5 268.5t281.5 98.5q176 0 282.5 -97.5t106.5 -269.5zM612 350q0 90 -52 144t-139 54q-85 0 -138 -55.5t-53 -142.5q0 -88 53.5 -143t137.5 -55q86 0 138.5 55t52.5 143z" />
    <glyph glyph-name="P" unicode="P" horiz-adv-x="709" 
d="M269 530v-174h142q39 0 61 24.5t22 61.5t-22 62.5t-61 25.5h-142zM411 189h-142v-189h-198v700h340q135 0 208 -73t73 -182q0 -112 -73 -183.5t-208 -72.5z" />
    <glyph glyph-name="Q" unicode="Q" horiz-adv-x="839" 
d="M806 351q0 -116 -59 -208l79 -81l-132 -130l-88 90q-80 -38 -187 -38q-174 0 -280.5 98.5t-106.5 268.5t106.5 268t280.5 98q175 0 281 -98t106 -268zM608 351q0 88 -51.5 143t-137.5 55q-84 0 -137.5 -55.5t-53.5 -142.5q0 -90 53 -144t138 -54q87 0 138 52.5t51 145.5z
" />
    <glyph glyph-name="R" unicode="R" horiz-adv-x="737" 
d="M719 12v-12h-218l-163 227h-69v-227h-198v700h342q128 0 200 -70t72 -171q0 -71 -32.5 -122.5t-115.5 -88.5zM413 542h-144v-168h146q37 0 56 23.5t19 57.5q0 36 -20 61.5t-57 25.5z" />
    <glyph glyph-name="S" unicode="S" horiz-adv-x="666" 
d="M600 631l-98 -125q-64 48 -164 48q-40 0 -67.5 -13t-27.5 -39q0 -33 27 -44.5t89 -17.5q57 -6 104 -20.5t89.5 -40.5t66.5 -69.5t24 -101.5q0 -76 -45 -129t-112.5 -75.5t-149.5 -23.5q-102 -1 -173 24.5t-140 98.5l109 125q81 -79 205 -79q50 0 80 16.5t30 45.5
q0 53 -117 64q-64 6 -110 17.5t-88.5 35.5t-64.5 67.5t-22 106.5q0 104 85.5 158t207.5 54q156 0 262 -83z" />
    <glyph glyph-name="T" unicode="T" horiz-adv-x="636" 
d="M219 0v537h-204v163h606v-163h-205v-537h-197z" />
    <glyph glyph-name="U" unicode="U" horiz-adv-x="782" 
d="M524 699h197v-391q1 -154 -87 -238.5t-243 -84.5q-156 0 -243 83.5t-87 241.5v389h197v-389q0 -80 35 -118t98 -38q62 0 97.5 38.5t35.5 115.5v391z" />
    <glyph glyph-name="V" unicode="V" horiz-adv-x="749" 
d="M762 700l-291 -703h-193l-291 703h219l80 -210l88 -259l89 259l80 210h219z" />
    <glyph glyph-name="W" unicode="W" horiz-adv-x="1066" 
d="M1072 700l-255 -699h-161l-124 335l-120 -335h-160l-261 699h216l90 -246q15 -46 37 -162l129 408h137l133 -408q15 81 39 167l84 241h216z" />
    <glyph glyph-name="X" unicode="X" horiz-adv-x="714" 
d="M292 593l65 -124l66 126l64 105h213v-11l-220 -337l235 -344v-8h-215l-65 97l-78 130l-79 -132l-64 -95h-215v8l235 344l-220 337v11h213z" />
    <glyph glyph-name="Y" unicode="Y" horiz-adv-x="722" 
d="M217 700l145 -240l151 240h223v-9l-278 -412v-279h-198v279l-266 413v8h223z" />
    <glyph glyph-name="Z" unicode="Z" horiz-adv-x="643" 
d="M42 540v160h561v-56l-306 -473h314v-171h-586v62l313 478h-296z" />
    <glyph glyph-name="bracketleft" unicode="[" horiz-adv-x="372" 
d="M337 -157h-271v860h271v-145h-106v-570h106v-145z" />
    <glyph glyph-name="backslash" unicode="\" horiz-adv-x="533" 
d="M23 752h172l314 -829h-173z" />
    <glyph glyph-name="bracketright" unicode="]" horiz-adv-x="374" 
d="M308 -157h-273v145h106v570h-106v145h273v-860z" />
    <glyph glyph-name="asciicircum" unicode="^" horiz-adv-x="638" 
d="M36 331v13l225 347h106l235 -346v-14h-177l-112 163l-105 -163h-172z" />
    <glyph glyph-name="underscore" unicode="_" horiz-adv-x="511" 
d="M9 -143v146h493v-146h-493z" />
    <glyph glyph-name="grave" unicode="`" horiz-adv-x="288" 
d="M-3 693v8h193l77 -161v-6h-161z" />
    <glyph glyph-name="a" unicode="a" horiz-adv-x="648" 
d="M412 441l9 53h173v-494h-170l-8 53q-30 -34 -74 -49t-89 -13q-107 7 -166.5 76.5t-59.5 179.5q0 111 66.5 184.5t173.5 73.5q103 0 145 -64zM309 356q-43 0 -71 -29.5t-28 -79.5t28 -79t71 -29q45 0 73.5 31.5t28.5 76.5q0 50 -27 79.5t-75 29.5z" />
    <glyph glyph-name="b" unicode="b" horiz-adv-x="643" 
d="M238 700v-248q43 53 137 53q107 0 173.5 -72t66.5 -186q0 -117 -58.5 -183t-167.5 -73q-45 -2 -89 13t-74 49l-8 -53h-164v700h184zM333 356q-47 0 -73 -33t-26 -81q0 -41 27.5 -72t71.5 -31q43 0 71 29t28 79t-28 79.5t-71 29.5z" />
    <glyph glyph-name="c" unicode="c" horiz-adv-x="519" 
d="M406 184l105 -110q-94 -84 -204 -84q-56 0 -105 14.5t-89 44t-63 80t-23 117.5q0 65 23.5 116t63 81.5t88 46t102.5 15.5q117 0 194 -77l-98 -106q-35 36 -85 36q-51 0 -79.5 -32t-28.5 -81q0 -43 28.5 -72.5t78.5 -29.5q54 0 92 41z" />
    <glyph glyph-name="d" unicode="d" horiz-adv-x="643" 
d="M405 452v248h184v-700h-164l-8 53q-30 -34 -74 -49t-89 -13q-109 7 -167.5 73t-58.5 183q0 114 66.5 186t173.5 72q94 0 137 -53zM310 356q-43 0 -71 -29.5t-28 -79.5t28 -79t71 -29q44 0 71.5 31t27.5 72q0 48 -26 81t-73 33z" />
    <glyph glyph-name="e" unicode="e" horiz-adv-x="590" 
d="M214 313h179q-2 37 -44 52.5t-85.5 0.5t-49.5 -53zM302 506q136 0 211.5 -84.5t44.5 -226.5h-345q9 -30 42 -46.5t68 -16.5q74 0 127 40l90 -101q-88 -82 -225 -82q-126 0 -207 64.5t-81 192.5q0 126 82 193t193 67z" />
    <glyph glyph-name="f" unicode="f" horiz-adv-x="428" 
d="M286 0h-184v343h-84v142h84v24q0 101 63.5 151.5t149.5 50.5q93 0 149 -54l-56 -111q-28 24 -67 24q-24 0 -39.5 -15.5t-15.5 -45.5v-24h128v-142h-128v-343z" />
    <glyph glyph-name="g" unicode="g" horiz-adv-x="615" 
d="M34 -35h173q-2 -94 93 -94q39 0 65 18.5t26 52.5q0 66 -89 66q-125 0 -200 67.5t-75 181.5t78.5 183.5t196.5 69.5q50 0 102 -19l53 68l133 -95l-64 -76q50 -56 47 -133q-2 -100 -90 -164q97 -55 97 -149q0 -58 -23.5 -101.5t-64 -68.5t-89 -37.5t-103.5 -12.5
q-132 0 -203 64.5t-63 178.5zM302 359q-42 0 -69 -27t-27 -75q0 -43 27.5 -70t68.5 -27q39 0 66 25t27 72q0 43 -26.5 72.5t-66.5 29.5z" />
    <glyph glyph-name="h" unicode="h" horiz-adv-x="613" 
d="M54 700h186v-259q50 64 132 64q83 0 138.5 -57t55.5 -174v-274h-183v273q-3 73 -67 73q-30 0 -53 -22t-24 -63v-261h-185v700z" />
    <glyph glyph-name="i" unicode="i" horiz-adv-x="293" 
d="M43 621q0 44 31 68.5t73 24.5t72.5 -24.5t30.5 -68.5q0 -43 -31 -67.5t-72 -24.5q-42 0 -73 24.5t-31 67.5zM54 0h185v486h-185v-486z" />
    <glyph glyph-name="j" unicode="j" horiz-adv-x="292" 
d="M43 621q0 44 31 68.5t73 24.5t72.5 -24.5t30.5 -68.5q0 -43 -31 -67.5t-72 -24.5q-42 0 -73 24.5t-31 67.5zM-35 -72l-35 -129q59 -29 115 -31.5t98.5 19t68.5 71t26 119.5v509h-184v-509q0 -46 -24 -59t-65 10z" />
    <glyph glyph-name="k" unicode="k" horiz-adv-x="569" 
d="M54 700h185v-351l103 145h205v-8l-173 -224l201 -251v-11h-208l-128 172v-172h-185v700z" />
    <glyph glyph-name="l" unicode="l" horiz-adv-x="290" 
d="M54 701h182v-701h-182v701z" />
    <glyph glyph-name="m" unicode="m" horiz-adv-x="882" 
d="M535 0h-181v274q0 76 -52 76q-26 0 -45 -20.5t-20 -58.5v-271h-183v494h155l13 -53q22 31 59 47.5t77 15.5q86 -2 123 -70q57 71 164 71q86 0 137.5 -56.5t51.5 -173.5v-275h-184v274q0 37 -14.5 55t-36.5 18q-26 0 -45 -18.5t-19 -56.5v-272z" />
    <glyph glyph-name="n" unicode="n" 
d="M574 0h-184v273q0 42 -20 62t-49 20q-36 0 -60.5 -24.5t-24.5 -70.5v-260h-182v494h163l8 -54q58 68 156 66q87 -1 140 -55t53 -177v-274z" />
    <glyph glyph-name="o" unicode="o" horiz-adv-x="618" 
d="M309 505q119 0 200.5 -66t81.5 -193q0 -126 -83.5 -192t-198.5 -66q-55 0 -104.5 15.5t-89.5 45.5t-64 81t-24 116q0 87 41.5 147.5t103.5 86t137 25.5zM309 139q46 0 74 30.5t28 76.5q0 45 -27.5 76.5t-74.5 31.5t-74.5 -31.5t-27.5 -76.5t27.5 -76t74.5 -31z" />
    <glyph glyph-name="p" unicode="p" horiz-adv-x="643" 
d="M238 42v-248h-184v700h164l8 -53q30 34 74 49t89 13q109 -7 167.5 -73t58.5 -183q0 -114 -66.5 -186t-173.5 -72q-94 0 -137 53zM333 138q43 0 71 29.5t28 79.5t-28 79t-71 29q-44 0 -71.5 -31t-27.5 -72q0 -48 26 -81t73 -33z" />
    <glyph glyph-name="q" unicode="q" horiz-adv-x="643" 
d="M405 -206v248q-43 -53 -137 -53q-107 0 -173.5 72t-66.5 186q0 117 58.5 183t167.5 73q45 2 89 -13t74 -49l8 53h164v-700h-184zM310 138q47 0 73 33t26 81q0 41 -27.5 72t-71.5 31q-43 0 -71 -29t-28 -79t28 -79.5t71 -29.5z" />
    <glyph glyph-name="r" unicode="r" horiz-adv-x="472" 
d="M54 494h165l11 -54q37 66 120 66q80 0 130 -53l-74 -133q-37 30 -83 30q-37 0 -61 -23.5t-24 -69.5v-257h-184v494z" />
    <glyph glyph-name="s" unicode="s" horiz-adv-x="511" 
d="M19 52l60 134q77 -50 175 -55q50 0 50 24q0 23 -52 27q-39 1 -74 10t-67.5 27t-51.5 50t-19 75q0 83 65.5 122.5t162.5 39.5q122 0 202 -60l-78 -110q-20 13 -57 22t-67 8q-44 0 -44 -24q0 -23 37 -24q227 -7 227 -163q0 -58 -33.5 -97t-83.5 -55t-113 -16
q-66 0 -132 17.5t-107 47.5z" />
    <glyph glyph-name="t" unicode="t" horiz-adv-x="432" 
d="M98 614l183 20v-143h111v-141h-112v-162q1 -48 49 -48q29 0 54 17l40 -136q-58 -33 -142 -33q-83 0 -134 46t-49 154v162h-79v141h79v123z" />
    <glyph glyph-name="u" unicode="u" 
d="M48 494h184v-273q0 -42 20 -62t49 -20q36 0 60.5 23t24.5 69v263h182v-494h-163l-8 54q-58 -68 -156 -66q-87 1 -140 55t-53 177v274z" />
    <glyph glyph-name="v" unicode="v" horiz-adv-x="589" 
d="M187 494l54 -138l53 -160l50 160l53 138h195l-204 -497h-183l-213 497h195z" />
    <glyph glyph-name="w" unicode="w" horiz-adv-x="836" 
d="M363 494h111l87 -275l37 140l46 135h193l-181 -497h-169l-69 187l-68 -187h-171l-180 497h192l47 -136l38 -139z" />
    <glyph glyph-name="x" unicode="x" horiz-adv-x="566" 
d="M331 55l-48 84l-48 -84l-32 -55h-203l166 248l-150 237v9h198l34 -60l35 -70l35 69l34 61h198v-9l-149 -236l165 -249h-203z" />
    <glyph glyph-name="y" unicode="y" horiz-adv-x="582" 
d="M394 494h197l-306 -703h-192l100 231l-196 472h195l42 -118l54 -171l60 172z" />
    <glyph glyph-name="z" unicode="z" horiz-adv-x="495" 
d="M42 494h413v-62l-188 -274h197v-158h-441v57l197 291h-178v146z" />
    <glyph glyph-name="braceleft" unicode="{" horiz-adv-x="386" 
d="M350 -14v-132q-53 -10 -93 -10q-167 0 -167 175v141q0 11 -2 19t-8 17t-19.5 14t-33.5 5v128q38 0 50.5 15.5t12.5 40.5v133q0 90 39 137t128 47q42 0 93 -9v-122q-87 18 -87 -60v-140q0 -23 -0.5 -33.5t-4.5 -26.5t-14.5 -27t-27.5 -21q29 -16 38 -40.5t9 -63.5v-136
q0 -29 13 -42t32.5 -12t41.5 3z" />
    <glyph glyph-name="bar" unicode="|" horiz-adv-x="311" 
d="M245 750v-820h-179v820h179z" />
    <glyph glyph-name="braceright" unicode="}" horiz-adv-x="386" 
d="M36 -146v132q22 -2 41.5 -3t32.5 12t13 42v136q0 39 9 63.5t38 40.5q-17 10 -27.5 21t-14.5 27t-4.5 26.5t-0.5 33.5v140q0 78 -87 60v122q51 9 93 9q89 0 128 -47t39 -137v-133q0 -16 3.5 -26.5t18 -20t41.5 -9.5v-128q-38 0 -50.5 -15.5t-12.5 -39.5v-141
q0 -175 -167 -175q-40 0 -93 10z" />
    <glyph glyph-name="asciitilde" unicode="~" horiz-adv-x="619" 
d="M170 208l-123 45q10 71 54 113.5t115 41.5q27 -1 59.5 -14t56.5 -26.5t47.5 -21.5t41.5 3t30 46l123 -45q-10 -71 -54 -113.5t-115 -41.5q-32 1 -69.5 20t-61 34t-52 8.5t-52.5 -49.5z" />
    <glyph glyph-name="exclamdown" unicode="&#xa1;" horiz-adv-x="303" 
d="M244 269h-187l-4 -470h194zM152 504q50 0 78 -30.5t28 -67.5t-28 -67.5t-78 -30.5t-79 30.5t-29 67.5t28.5 67.5t79.5 30.5z" />
    <glyph glyph-name="cent" unicode="&#xa2;" horiz-adv-x="561" 
d="M422 184l105 -110q-67 -61 -144 -77v-76h-161v82q-82 23 -130.5 83t-48.5 160q0 98 49.5 159.5t129.5 85.5v85h161v-78q75 -16 131 -70l-98 -106q-35 36 -85 36q-51 0 -79.5 -32t-28.5 -81q0 -43 28.5 -72.5t78.5 -29.5q54 0 92 41z" />
    <glyph glyph-name="sterling" unicode="&#xa3;" horiz-adv-x="669" 
d="M291 472q0 -31 10 -69h189v-136h-166q4 -26 -5 -59.5t-26 -50.5h333v-157h-576v156q44 1 67 36t20 75h-87v136h60q-8 35 -10 68q-5 107 64.5 173t196.5 66q119 0 187 -57.5t63 -169.5h-175q-1 36 -19.5 54t-49.5 18q-35 0 -55.5 -21t-20.5 -62z" />
    <glyph glyph-name="currency" unicode="&#xa4;" horiz-adv-x="632" 
d="M316 233q35 0 55.5 20t20.5 56t-20.5 56t-55.5 20t-55.5 -20t-20.5 -56t20.5 -56t55.5 -20zM316 520q37 0 80 -10l68 69l121 -121l-56 -56q18 -39 18 -93q0 -50 -18 -93l55 -54l-121 -121l-67 67q-41 -11 -80 -11q-44 0 -81 10l-66 -67l-121 121l55 56q-17 40 -17 92
q0 51 17 91l-58 58l121 121l70 -69q36 10 80 10z" />
    <glyph glyph-name="yen" unicode="&#xa5;" horiz-adv-x="797" 
d="M139 110v119h157v41h-157v127h80l-191 295v8h220l74 -123l74 -140l76 139l78 124h220v-9l-200 -294h80v-127h-160v-41h160v-119h-160v-110h-194v110h-157z" />
    <glyph glyph-name="brokenbar" unicode="&#xa6;" horiz-adv-x="318" 
d="M252 339h-186v360h186v-360zM66 280h186v-366h-186v366z" />
    <glyph glyph-name="section" unicode="&#xa7;" horiz-adv-x="639" 
d="M37 69l79 117q93 -63 203 -63q95 0 95 31q0 13 -24 21t-67 7q-50 -1 -96.5 7.5t-86 27t-62.5 52.5t-20 78q1 23 21 51t50 40q-65 35 -65 101q0 48 25 83t67 53.5t86.5 26.5t92.5 8q70 0 126 -15t110 -63l-97 -96q-47 36 -139 36q-90 0 -90 -29q0 -26 84 -26q39 0 74 -3.5
t72.5 -15t63.5 -29t41.5 -48.5t12.5 -72q-3 -23 -20 -48.5t-42 -41.5q29 -19 45 -47t16 -56q0 -43 -20 -76t-49.5 -51t-69 -29t-72 -14.5t-66.5 -3.5q-87 0 -154 18t-124 69zM421 351q0 39 -92 39q-100 0 -100 -38q0 -18 24.5 -28t63.5 -10q104 0 104 37z" />
    <glyph glyph-name="dieresis" unicode="&#xa8;" horiz-adv-x="565" 
d="M38 626q0 40 27.5 63t65.5 23t66.5 -23t28.5 -63q0 -38 -28.5 -60.5t-66.5 -22.5t-65.5 22.5t-27.5 60.5zM328 626q0 40 28 63t67 23q37 0 65.5 -23t28.5 -63q0 -38 -28.5 -60.5t-65.5 -22.5q-39 0 -67 22.5t-28 60.5z" />
    <glyph glyph-name="copyright" unicode="&#xa9;" horiz-adv-x="818" 
d="M413 721q171 0 268 -102t97 -263q0 -162 -97 -263.5t-268 -101.5q-170 0 -272 102.5t-102 262.5q0 156 102.5 260.5t271.5 104.5zM225 352q0 -88 57.5 -138.5t138.5 -50.5q91 0 157 65l-68 68q-33 -33 -80 -33q-41 0 -70 23.5t-29 65.5q0 47 28.5 71.5t70.5 24.5
q44 0 78 -30l67 66q-64 63 -150 63q-82 0 -138.5 -51.5t-61.5 -143.5zM149 356q0 -120 72.5 -194t191.5 -74q120 0 188 72.5t68 195.5t-68 195t-188 72q-118 0 -191 -74.5t-73 -192.5z" />
    <glyph glyph-name="ordfeminine" unicode="&#xaa;" horiz-adv-x="438" 
d="M274 652l13 42h107v-332h-113l-8 44q-27 -52 -102 -52q-70 4 -112.5 48t-42.5 126t44.5 127.5t114.5 45.5q67 0 99 -49zM199 588q-26 0 -42 -16t-16 -44q0 -29 16 -45t42 -16q27 0 42.5 18t15.5 43q0 24 -15.5 42t-42.5 18zM36 206v106h355v-106h-355z" />
    <glyph glyph-name="guillemotleft" unicode="&#xab;" horiz-adv-x="558" 
d="M29 297l139 222h153v1l-139 -223q98 -162 139 -223h-153zM235 297l139 222h154v1l-139 -223l139 -223h-154z" />
    <glyph glyph-name="logicalnot" unicode="&#xac;" horiz-adv-x="557" 
d="M491 394v-259h-154v125h-279v134h433z" />
    <glyph glyph-name="registered" unicode="&#xae;" horiz-adv-x="818" 
d="M583 170l-83 129q34 10 55 37t22 59.5t-12 63.5t-48 52t-84 21h-166v-362h103v108h42l60 -108h111zM368 443h69q14 0 24 -8.5t12.5 -20.5t0.5 -23.5t-12 -20t-24 -8.5h-70v81zM413 721q171 0 268 -102t97 -263q0 -162 -97 -263.5t-268 -101.5q-170 0 -272 102.5
t-102 262.5q0 156 102.5 260.5t271.5 104.5zM149 356q0 -120 72.5 -194t191.5 -74q120 0 188 72.5t68 195.5t-68 195t-188 72q-118 0 -191 -74.5t-73 -192.5z" />
    <glyph glyph-name="macron" unicode="&#xaf;" horiz-adv-x="453" 
d="M45 561v140h350v-140h-350z" />
    <glyph glyph-name="degree" unicode="&#xb0;" horiz-adv-x="389" 
d="M195 708q75 0 117.5 -43.5t42.5 -101.5q0 -59 -42.5 -101.5t-119.5 -42.5q-76 0 -117.5 42t-41.5 101q0 58 42.5 102t118.5 44zM194 607q-22 0 -34 -13t-12 -31t12.5 -30.5t33.5 -12.5t33.5 12.5t12.5 30.5t-11.5 31t-34.5 13z" />
    <glyph glyph-name="plusminus" unicode="&#xb1;" horiz-adv-x="563" 
d="M60 328v156h137v134h170v-134h136v-156h-136v-134h-170v134h-137zM58 -2v147h447v-147h-447z" />
    <glyph glyph-name="twosuperior" unicode="&#xb2;" horiz-adv-x="378" 
d="M142 636h-105q1 58 44.5 91.5t105.5 33.5q68 0 112.5 -33t44.5 -93q0 -26 -10 -46t-21.5 -31.5t-35 -21t-37 -12.5l-39.5 -9q-60 -13 -63 -35h203v-102h-306v99q0 32 11 54t34.5 35t39.5 18.5t47 12.5l26.5 7t19.5 7t16.5 10.5t4.5 13.5q0 31 -46 31q-40 0 -46 -30z" />
    <glyph glyph-name="threesuperior" unicode="&#xb3;" horiz-adv-x="384" 
d="M189 529h-62v80h58q50 0 50 31q0 28 -51 28q-48 0 -54 -28h-96q0 59 46.5 90t106.5 31q62 0 109 -30.5t47 -91.5q0 -21 -11.5 -41t-31.5 -29q53 -21 53 -80q0 -45 -27.5 -73.5t-61.5 -37t-76 -8.5q-66 0 -113 31t-48 93h112q4 -28 48 -28q21 0 36 8t15 24q0 31 -49 31z
" />
    <glyph glyph-name="acute" unicode="&#xb4;" horiz-adv-x="288" 
d="M276 701v-8l-109 -159h-161v6l77 161h193z" />
    <glyph glyph-name="mu" unicode="&#xb5;" horiz-adv-x="641" 
d="M597 0h-149l-18 63q-14 -38 -50 -56t-77 -8.5t-68 45.5v-249h-172v699h179v-235q0 -51 26.5 -74t63.5 -23q38 0 63 24.5t26 73.5v234h176v-494z" />
    <glyph glyph-name="mu" unicode="&#x3bc;" horiz-adv-x="641" 
d="M597 0h-149l-18 63q-14 -38 -50 -56t-77 -8.5t-68 45.5v-249h-172v699h179v-235q0 -51 26.5 -74t63.5 -23q38 0 63 24.5t26 73.5v234h176v-494z" />
    <glyph glyph-name="paragraph" unicode="&#xb6;" horiz-adv-x="891" 
d="M456 532v-732h-178v392q-128 0 -199 99q-60 86 -45 194q15 114 107 172q67 43 162 43h548v-168h-91v-732h-182v732h-122z" />
    <glyph glyph-name="periodcentered" unicode="&#xb7;" horiz-adv-x="298" 
d="M148 199q-49 0 -77 29.5t-28 65.5t28 65.5t77 29.5t77 -29.5t28 -65.5t-28 -65.5t-77 -29.5z" />
    <glyph glyph-name="cedilla" unicode="&#xb8;" horiz-adv-x="364" 
d="M42 -199l63 66q24 -24 60.5 -27.5t47.5 25.5q7 26 -26 38.5t-59 -5.5l-28 21l42 110h118l-19 -53q64 -7 90.5 -48.5t9.5 -94.5q-19 -57 -78.5 -81t-124 -9.5t-96.5 58.5z" />
    <glyph glyph-name="onesuperior" unicode="&#xb9;" horiz-adv-x="286" 
d="M33 379v95h61v158q-7 -1 -25.5 -5.5t-25.5 -5.5v93l158 42v-282h63v-95h-231z" />
    <glyph glyph-name="ordmasculine" unicode="&#xba;" horiz-adv-x="425" 
d="M35 181v124h356v-124h-356zM212 344q-87 0 -141 48t-54 138q0 89 53.5 135.5t141.5 46.5q89 0 142 -46.5t53 -135.5q0 -90 -54 -138t-141 -48zM212 469q26 0 43 16t17 45q0 28 -17 44.5t-43 16.5q-25 0 -42.5 -16.5t-17.5 -44.5q0 -29 17.5 -45t42.5 -16z" />
    <glyph glyph-name="guillemotright" unicode="&#xbb;" horiz-adv-x="557" 
d="M390 521l139 -222l-139 -222h-154l139 222l-139 223v-1h154zM185 521l139 -222l-139 -222h-153l139 222l-139 223v-1h153z" />
    <glyph glyph-name="onequarter" unicode="&#xbc;" horiz-adv-x="798" 
d="M584 372h136v-217h44v-95h-44v-60h-104v60h-193l-4 91zM616 155v104l-39 -50t-43 -54h82zM255 -1h-121l388 705h123zM42 323v97h61v156q-45 -9 -52 -10v92l160 42v-280h62v-97h-231z" />
    <glyph glyph-name="onehalf" unicode="&#xbd;" horiz-adv-x="812" 
d="M248 -2h-119l388 706h121zM39 322v97h61v156q-9 -2 -29.5 -6t-21.5 -4v93l159 42v-281h63v-97h-232zM574 253h-105q1 57 45 90.5t105 33.5q70 0 113.5 -32t43.5 -93q0 -32 -12 -55t-36.5 -36.5t-43 -19.5t-49.5 -13q-59 -11 -65 -29h203v-104h-306v99q0 31 11 53t33.5 35
t39.5 19t47 13q24 5 35 8.5t22 11t11 18.5q0 14 -13 21.5t-31 7.5q-42 0 -48 -28z" />
    <glyph glyph-name="threequarters" unicode="&#xbe;" horiz-adv-x="842" 
d="M305 -6h-122l391 710h123zM629 372h135v-217h44v-95h-44v-60h-104v60h-193l-4 91zM660 155v104l-81 -104h81zM192 485h-60v77h56q48 0 48 30q0 27 -49 27q-47 0 -52 -27h-93q0 57 45 87t103 30q59 0 104.5 -29.5t45.5 -88.5q0 -47 -41 -68q51 -20 51 -77q0 -63 -47 -89
t-112 -26q-64 0 -109.5 30t-46.5 90h108q4 -27 47 -27q49 0 49 31q0 30 -47 30z" />
    <glyph glyph-name="questiondown" unicode="&#xbf;" horiz-adv-x="594" 
d="M410 271h-194q-1 -35 -20 -62.5t-46 -46.5l-54 -39t-46 -50.5t-19 -70.5q0 -56 22 -97.5t61.5 -65t87.5 -35t104 -11.5q74 0 134 25.5t96 80t29 128.5h-176q0 -74 -83 -74q-36 0 -55 17.5t-18 42.5q1 29 48 57q26 15 35 21t31 24.5t31.5 36t19.5 49t12 70.5zM311 506
q50 0 78 -30.5t28 -67.5t-28 -67.5t-78 -30.5t-79 30.5t-29 67.5t28.5 67.5t79.5 30.5z" />
    <glyph glyph-name="Agrave" unicode="&#xc0;" horiz-adv-x="797" 
d="M600 0l-46 115h-313l-46 -115h-210l314 700h200l313 -700h-212zM487 281l-89 223l-90 -223h179zM212 911v8h193l77 -161v-6h-161z" />
    <glyph glyph-name="Aacute" unicode="&#xc1;" horiz-adv-x="797" 
d="M554 115l46 -115h212l-313 700h-200l-314 -700h210l46 115h313zM398 504l89 -223h-179zM591 919v-8l-109 -159h-161v6l77 161h193z" />
    <glyph glyph-name="Acircumflex" unicode="&#xc2;" horiz-adv-x="797" 
d="M554 115l46 -115h212l-313 700h-200l-314 -700h210l46 115h313zM398 504l89 -223h-179zM340 915h114l152 -157v-8h-158l-51 47l-51 -47h-158v8z" />
    <glyph glyph-name="Atilde" unicode="&#xc3;" horiz-adv-x="797" 
d="M600 0l-46 115h-313l-46 -115h-210l314 700h200l313 -700h-212zM487 281l-89 223l-90 -223h179zM391 771q-79 43 -105 -14l-101 64q25 67 91 87.5t124 -13.5q73 -40 107 17l97 -63q-27 -69 -84 -91t-129 13z" />
    <glyph glyph-name="Adieresis" unicode="&#xc4;" horiz-adv-x="797" 
d="M554 115l46 -115h212l-313 700h-200l-314 -700h210l46 115h313zM398 504l89 -223h-179zM158 830q0 40 27.5 63t65.5 23t66.5 -23t28.5 -63q0 -38 -28.5 -60.5t-66.5 -22.5t-65.5 22.5t-27.5 60.5zM448 830q0 40 28 63t67 23q37 0 65.5 -23t28.5 -63q0 -38 -28.5 -60.5
t-65.5 -22.5q-39 0 -67 22.5t-28 60.5z" />
    <glyph glyph-name="Aring" unicode="&#xc5;" horiz-adv-x="797" 
d="M399 879q54 0 93 -25t53 -60.5t9 -75.5t-32 -70l290 -648h-212l-46 115h-313l-46 -115h-210l292 650q-26 30 -31 70t9 75t52 59.5t92 24.5zM446 384l-48 146l-49 -146l-41 -103h179zM401 779q-29 0 -41 -21t0 -42t41 -21q28 0 39.5 21t0 42t-39.5 21z" />
    <glyph glyph-name="AE" unicode="&#xc6;" horiz-adv-x="925" 
d="M-26 0v11l415 689h480v-158h-243v-110h226v-153h-226v-122h258v-157h-440v105h-208l-63 -105h-199zM335 278h109l3 116l12 124z" />
    <glyph glyph-name="Ccedilla" unicode="&#xc7;" horiz-adv-x="708" 
d="M217 -221l65 64q25 -23 62.5 -26.5t48.5 24.5q7 25 -26.5 37t-60.5 -5l-29 21l39 97q-142 26 -211.5 123t-70.5 231q0 69 23.5 134t68.5 118.5t120.5 86t170.5 32.5q156 0 271 -112l-122 -120q-64 61 -149 61q-93 0 -140.5 -61.5t-46.5 -139.5q1 -79 46.5 -136.5
t140.5 -57.5q39 0 84.5 17.5t80.5 53.5l116 -130q-104 -103 -264 -109l-12 -33q65 -7 92.5 -47t10.5 -92q-19 -55 -81 -78t-128 -9t-99 56z" />
    <glyph glyph-name="Egrave" unicode="&#xc8;" horiz-adv-x="672" 
d="M631 167v-167h-560v700h546v-166h-351v-100h331v-161h-331v-106h365zM177 910v8h193l77 -161v-6h-161z" />
    <glyph glyph-name="Eacute" unicode="&#xc9;" horiz-adv-x="672" 
d="M631 0v167h-365v106h331v161h-331v100h351v166h-546v-700h560zM530 918v-8l-109 -159h-161v6l77 161h193z" />
    <glyph glyph-name="Ecircumflex" unicode="&#xca;" horiz-adv-x="672" 
d="M631 0v167h-365v106h331v161h-331v100h351v166h-546v-700h560zM296 912h114l152 -157v-8h-158l-51 47l-51 -47h-158v8z" />
    <glyph glyph-name="Edieresis" unicode="&#xcb;" horiz-adv-x="672" 
d="M631 0v167h-365v106h331v161h-331v100h351v166h-546v-700h560zM112 836q0 40 27.5 63t65.5 23t66.5 -23t28.5 -63q0 -38 -28.5 -60.5t-66.5 -22.5t-65.5 22.5t-27.5 60.5zM402 836q0 40 28 63t67 23q37 0 65.5 -23t28.5 -63q0 -38 -28.5 -60.5t-65.5 -22.5
q-39 0 -67 22.5t-28 60.5z" />
    <glyph glyph-name="Igrave" unicode="&#xcc;" horiz-adv-x="339" 
d="M268 0h-197v700h197v-700zM-9 910v8h193l77 -161v-6h-161z" />
    <glyph glyph-name="Iacute" unicode="&#xcd;" horiz-adv-x="339" 
d="M71 0h197v700h-197v-700zM350 916v-8l-109 -159h-161v6l77 161h193z" />
    <glyph glyph-name="Icircumflex" unicode="&#xce;" horiz-adv-x="339" 
d="M71 0h197v700h-197v-700zM115 915h114l152 -157v-8h-158l-51 47l-51 -47h-158v8z" />
    <glyph glyph-name="Idieresis" unicode="&#xcf;" horiz-adv-x="339" 
d="M-50 847q0 40 27.5 63t65.5 23t66.5 -23t28.5 -63q0 -38 -28.5 -60.5t-66.5 -22.5t-65.5 22.5t-27.5 60.5zM213 847q0 40 28 63t67 23q37 0 65.5 -23t28.5 -63q0 -38 -28.5 -60.5t-65.5 -22.5q-39 0 -67 22.5t-28 60.5zM71 0h197v700h-197v-700z" />
    <glyph glyph-name="Eth" unicode="&#xd0;" horiz-adv-x="773" 
d="M7 281v142h78v277h279q176 0 275.5 -95.5t99.5 -243.5q0 -157 -96 -259t-279 -102h-279v281h-78zM276 281v-119h88q89 0 133.5 52t45.5 147q1 90 -45 135.5t-134 45.5h-88v-119h121v-142h-121z" />
    <glyph glyph-name="Ntilde" unicode="&#xd1;" horiz-adv-x="799" 
d="M239 700l296 -383q-2 31 -6 143v240h199v-700h-168l-292 377l3 -153v-224h-200v700h168zM387 785q-83 47 -111 -15l-107 68q26 71 96.5 92.5t131.5 -13.5q77 -43 114 18l103 -67q-29 -74 -89.5 -97t-137.5 14z" />
    <glyph glyph-name="Ograve" unicode="&#xd2;" horiz-adv-x="842" 
d="M810 350q0 -172 -106.5 -269.5t-282.5 -97.5q-175 0 -282 97.5t-107 269.5q0 170 107.5 268.5t281.5 98.5q176 0 282.5 -97.5t106.5 -269.5zM612 350q0 90 -52 144t-139 54q-85 0 -138 -55.5t-53 -142.5q0 -88 53.5 -143t137.5 -55q86 0 138.5 55t52.5 143zM247 928v8
h193l77 -161v-6h-161z" />
    <glyph glyph-name="Oacute" unicode="&#xd3;" horiz-adv-x="842" 
d="M810 350q0 172 -106.5 269.5t-282.5 97.5q-174 0 -281.5 -98.5t-107.5 -268.5q0 -172 107 -269.5t282 -97.5q176 0 282.5 97.5t106.5 269.5zM612 350q0 -88 -52.5 -143t-138.5 -55q-84 0 -137.5 55t-53.5 143q0 87 53 142.5t138 55.5q87 0 139 -54t52 -144zM602 936v-8
l-109 -159h-161v6l77 161h193z" />
    <glyph glyph-name="Ocircumflex" unicode="&#xd4;" horiz-adv-x="842" 
d="M810 350q0 172 -106.5 269.5t-282.5 97.5q-174 0 -281.5 -98.5t-107.5 -268.5q0 -172 107 -269.5t282 -97.5q176 0 282.5 97.5t106.5 269.5zM612 350q0 -88 -52.5 -143t-138.5 -55q-84 0 -137.5 55t-53.5 143q0 87 53 142.5t138 55.5q87 0 139 -54t52 -144zM367 928h114
l152 -157v-8h-158l-51 47l-51 -47h-158v8z" />
    <glyph glyph-name="Otilde" unicode="&#xd5;" horiz-adv-x="842" 
d="M810 350q0 -172 -106.5 -269.5t-282.5 -97.5q-175 0 -282 97.5t-107 269.5q0 170 107.5 268.5t281.5 98.5q176 0 282.5 -97.5t106.5 -269.5zM612 350q0 90 -52 144t-139 54q-85 0 -138 -55.5t-53 -142.5q0 -88 53.5 -143t137.5 -55q86 0 138.5 55t52.5 143zM419 788
q-82 46 -110 -14l-106 67q26 70 95.5 91t130.5 -14q33 -21 62 -18t50 36l101 -66q-27 -72 -87 -95t-136 13z" />
    <glyph glyph-name="Odieresis" unicode="&#xd6;" horiz-adv-x="842" 
d="M810 350q0 172 -106.5 269.5t-282.5 97.5q-174 0 -281.5 -98.5t-107.5 -268.5q0 -172 107 -269.5t282 -97.5q176 0 282.5 97.5t106.5 269.5zM612 350q0 -88 -52.5 -143t-138.5 -55q-84 0 -137.5 55t-53.5 143q0 87 53 142.5t138 55.5q87 0 139 -54t52 -144zM184 843
q0 40 27.5 63t65.5 23t66.5 -23t28.5 -63q0 -38 -28.5 -60.5t-66.5 -22.5t-65.5 22.5t-27.5 60.5zM474 843q0 40 28 63t67 23q37 0 65.5 -23t28.5 -63q0 -38 -28.5 -60.5t-65.5 -22.5q-39 0 -67 22.5t-28 60.5z" />
    <glyph glyph-name="multiply" unicode="&#xd7;" horiz-adv-x="476" 
d="M161 508l79 -84l83 85l111 -111l-87 -89l87 -87l-113 -106l-83 84l-81 -85l-116 114l84 83l-81 83z" />
    <glyph glyph-name="Oslash" unicode="&#xd8;" horiz-adv-x="842" 
d="M610 769h173l-91 -140q118 -99 118 -279q0 -172 -106.5 -269.5t-282.5 -97.5q-71 0 -136 17l-48 -74h-171l90 139q-124 100 -124 285q0 170 107.5 268.5t281.5 98.5q76 0 142 -20zM421 548q-85 0 -138 -55.5t-53 -142.5q0 -68 33 -118l202 312q-28 4 -44 4zM612 350
q0 64 -28 112l-199 -307q18 -3 36 -3q86 0 138.5 55t52.5 143z" />
    <glyph glyph-name="Ugrave" unicode="&#xd9;" horiz-adv-x="780" 
d="M523 699h197v-391q1 -154 -87 -238.5t-243 -84.5q-156 0 -243 83.5t-87 241.5v389h197v-389q0 -80 35 -118t98 -38q62 0 97.5 38.5t35.5 115.5v391zM216 917v8h193l77 -161v-6h-161z" />
    <glyph glyph-name="Uacute" unicode="&#xda;" horiz-adv-x="780" 
d="M720 699h-197v-391q0 -77 -35.5 -115.5t-97.5 -38.5q-63 0 -98 38t-35 118v389h-197v-389q0 -158 87 -241.5t243 -83.5q155 0 243 84.5t87 238.5v391zM567 924v-8l-109 -159h-161v6l77 161h193z" />
    <glyph glyph-name="Ucircumflex" unicode="&#xdb;" horiz-adv-x="780" 
d="M720 699h-197v-391q0 -77 -35.5 -115.5t-97.5 -38.5q-63 0 -98 38t-35 118v389h-197v-389q0 -158 87 -241.5t243 -83.5q155 0 243 84.5t87 238.5v391zM336 929h114l152 -157v-8h-158l-51 47l-51 -47h-158v8z" />
    <glyph glyph-name="Udieresis" unicode="&#xdc;" horiz-adv-x="780" 
d="M720 699h-197v-391q0 -77 -35.5 -115.5t-97.5 -38.5q-63 0 -98 38t-35 118v389h-197v-389q0 -158 87 -241.5t243 -83.5q155 0 243 84.5t87 238.5v391zM148 848q0 40 27.5 63t65.5 23t66.5 -23t28.5 -63q0 -38 -28.5 -60.5t-66.5 -22.5t-65.5 22.5t-27.5 60.5zM438 848
q0 40 28 63t67 23q37 0 65.5 -23t28.5 -63q0 -38 -28.5 -60.5t-65.5 -22.5q-39 0 -67 22.5t-28 60.5z" />
    <glyph glyph-name="Yacute" unicode="&#xdd;" horiz-adv-x="722" 
d="M362 460l-145 240h-223v-8l266 -413v-279h198v279l278 412v9h-223zM545 924v-8l-109 -159h-161v6l77 161h193z" />
    <glyph glyph-name="Thorn" unicode="&#xde;" horiz-adv-x="696" 
d="M70 0l1 700h196v-108h134q133 0 206.5 -71.5t73.5 -169.5t-73.5 -169.5t-206.5 -71.5h-134v-110h-197zM267 427v-155h134q40 0 62 23t22 54t-22 54.5t-62 23.5h-134z" />
    <glyph glyph-name="germandbls" unicode="&#xdf;" horiz-adv-x="634" 
d="M290 -5v146q28 -6 42 -6q85 0 85 89q0 44 -27.5 59.5t-73.5 15.5h-26v161h16q31 0 48 13t17 36t-17.5 36t-40.5 13q-30 0 -47.5 -14.5t-18.5 -39.5v-504h-193v507q0 94 78 149t182 55q103 0 175.5 -48.5t72.5 -147.5q0 -86 -88 -127q134 -49 134 -177q0 -107 -69 -164
t-178 -57q-40 0 -71 5z" />
    <glyph glyph-name="agrave" unicode="&#xe0;" horiz-adv-x="648" 
d="M412 441l9 53h173v-494h-170l-8 53q-30 -34 -74 -49t-89 -13q-107 7 -166.5 76.5t-59.5 179.5q0 111 66.5 184.5t173.5 73.5q103 0 145 -64zM309 356q-43 0 -71 -29.5t-28 -79.5t28 -79t71 -29q45 0 73.5 31.5t28.5 76.5q0 50 -27 79.5t-75 29.5zM165 708v7h189l76 -158
v-6h-158z" />
    <glyph glyph-name="aacute" unicode="&#xe1;" horiz-adv-x="648" 
d="M421 494l-9 -53q-42 64 -145 64q-107 0 -173.5 -73.5t-66.5 -184.5q0 -110 59.5 -179.5t166.5 -76.5q45 -2 89 13t74 49l8 -53h170v494h-173zM309 356q48 0 75 -29.5t27 -79.5q0 -45 -28.5 -76.5t-73.5 -31.5q-43 0 -71 29t-28 79t28 79.5t71 29.5zM498 714v-8l-107 -155
h-157v6l75 157h189z" />
    <glyph glyph-name="acircumflex" unicode="&#xe2;" horiz-adv-x="648" 
d="M421 494l-9 -53q-42 64 -145 64q-107 0 -173.5 -73.5t-66.5 -184.5q0 -110 59.5 -179.5t166.5 -76.5q45 -2 89 13t74 49l8 -53h170v494h-173zM309 356q48 0 75 -29.5t27 -79.5q0 -45 -28.5 -76.5t-73.5 -31.5q-43 0 -71 29t-28 79t28 79.5t71 29.5zM274 715h114l152 -157
v-8h-158l-51 47l-51 -47h-158v8z" />
    <glyph glyph-name="atilde" unicode="&#xe3;" horiz-adv-x="648" 
d="M412 441l9 53h173v-494h-170l-8 53q-30 -34 -74 -49t-89 -13q-107 7 -166.5 76.5t-59.5 179.5q0 111 66.5 184.5t173.5 73.5q103 0 145 -64zM309 356q-43 0 -71 -29.5t-28 -79.5t28 -79t71 -29q45 0 73.5 31.5t28.5 76.5q0 50 -27 79.5t-75 29.5zM323 573
q-76 45 -101 -14l-97 66q16 45 51.5 70.5t75.5 25t80 -20.5q70 -40 103 18l93 -65q-26 -71 -81 -93.5t-124 13.5z" />
    <glyph glyph-name="adieresis" unicode="&#xe4;" horiz-adv-x="648" 
d="M122 635q0 40 27.5 63t65.5 23t66.5 -23t28.5 -63q0 -38 -28.5 -60.5t-66.5 -22.5t-65.5 22.5t-27.5 60.5zM378 635q0 40 28 63t67 23q37 0 65.5 -23t28.5 -63q0 -38 -28.5 -60.5t-65.5 -22.5q-39 0 -67 22.5t-28 60.5zM421 494l-9 -53q-42 64 -145 64
q-107 0 -173.5 -73.5t-66.5 -184.5q0 -110 59.5 -179.5t166.5 -76.5q45 -2 89 13t74 49l8 -53h170v494h-173zM309 356q48 0 75 -29.5t27 -79.5q0 -45 -28.5 -76.5t-73.5 -31.5q-43 0 -71 29t-28 79t28 79.5t71 29.5z" />
    <glyph glyph-name="aring" unicode="&#xe5;" horiz-adv-x="648" 
d="M412 441l9 53h173v-494h-170l-8 53q-30 -34 -74 -49t-89 -13q-107 7 -166.5 76.5t-59.5 179.5q0 111 66.5 184.5t173.5 73.5q103 0 145 -64zM309 356q-43 0 -71 -29.5t-28 -79.5t28 -79t71 -29q45 0 73.5 31.5t28.5 76.5q0 50 -27 79.5t-75 29.5zM322 788q48 0 83 -18
t51 -45.5t16 -59t-15.5 -59t-51 -45.5t-83.5 -18q-47 0 -81.5 18t-50.5 45.5t-16 59t15.5 59t50.5 45.5t82 18zM323 700q-26 0 -36.5 -17t0 -34t36.5 -17t36.5 17t0 34t-36.5 17z" />
    <glyph glyph-name="ae" unicode="&#xe6;" horiz-adv-x="946" 
d="M315 356q-43 0 -71 -29.5t-28 -79.5t28 -79t71 -29q46 0 75 28.5t29 74.5q0 54 -27.5 84t-76.5 30zM573 313h182q-2 37 -45 52.5t-87 0.5t-50 -53zM910 195h-338q9 -30 43.5 -46.5t69.5 -16.5q74 0 127 40l90 -101q-88 -82 -225 -82q-94 0 -137 56l-3 -45h-113l-8 53
q-30 -34 -74 -49t-89 -13q-107 7 -166.5 76.5t-59.5 179.5q0 111 66.5 184.5t173.5 73.5q103 0 145 -64l9 53h116l3 -41q63 52 148 50q116 -1 184.5 -84.5t37.5 -223.5z" />
    <glyph glyph-name="ccedilla" unicode="&#xe7;" horiz-adv-x="520" 
d="M406 184l105 -110q-84 -74 -180 -83l-16 -42q65 -7 92 -44.5t11 -85.5q-19 -54 -79.5 -78t-126 -10.5t-98.5 56.5l64 61q24 -22 61 -25.5t48 23.5q4 16 -10.5 27.5t-35 12.5t-40.5 -9l-28 19l43 104q-86 21 -137.5 82t-51.5 164q0 65 23.5 116t63 81.5t88 46t102.5 15.5
q117 0 194 -77l-98 -106q-35 36 -85 36q-51 0 -79.5 -32t-28.5 -81q0 -43 28.5 -72.5t78.5 -29.5q54 0 92 41z" />
    <glyph glyph-name="egrave" unicode="&#xe8;" horiz-adv-x="590" 
d="M214 313h179q-2 37 -44 52.5t-85.5 0.5t-49.5 -53zM302 506q136 0 211.5 -84.5t44.5 -226.5h-345q9 -30 42 -46.5t68 -16.5q74 0 127 40l90 -101q-88 -82 -225 -82q-126 0 -207 64.5t-81 192.5q0 126 82 193t193 67zM143 707v8h187l75 -156v-6h-156z" />
    <glyph glyph-name="eacute" unicode="&#xe9;" horiz-adv-x="590" 
d="M214 313h179q-2 37 -44 52.5t-85.5 0.5t-49.5 -53zM302 506q136 0 211.5 -84.5t44.5 -226.5h-345q9 -30 42 -46.5t68 -16.5q74 0 127 40l90 -101q-88 -82 -225 -82q-126 0 -207 64.5t-81 192.5q0 126 82 193t193 67zM481 714v-8l-106 -154h-156v6l75 156h187z" />
    <glyph glyph-name="ecircumflex" unicode="&#xea;" horiz-adv-x="590" 
d="M214 313h179q-2 37 -44 52.5t-85.5 0.5t-49.5 -53zM302 506q136 0 211.5 -84.5t44.5 -226.5h-345q9 -30 42 -46.5t68 -16.5q74 0 127 40l90 -101q-88 -82 -225 -82q-126 0 -207 64.5t-81 192.5q0 126 82 193t193 67zM247 711h114l152 -157v-8h-158l-51 47l-51 -47h-158v8
z" />
    <glyph glyph-name="edieresis" unicode="&#xeb;" horiz-adv-x="590" 
d="M106 635q0 38 26.5 60t61.5 22q36 0 63 -22t27 -60q0 -36 -27 -57.5t-63 -21.5q-35 0 -61.5 21.5t-26.5 57.5zM350 635q0 38 26.5 60t63.5 22q35 0 62 -22t27 -60q0 -36 -27 -57.5t-62 -21.5q-37 0 -63.5 21.5t-26.5 57.5zM214 313h179q-2 37 -44 52.5t-85.5 0.5
t-49.5 -53zM302 506q136 0 211.5 -84.5t44.5 -226.5h-345q9 -30 42 -46.5t68 -16.5q74 0 127 40l90 -101q-88 -82 -225 -82q-126 0 -207 64.5t-81 192.5q0 126 82 193t193 67z" />
    <glyph glyph-name="igrave" unicode="&#xec;" horiz-adv-x="292" 
d="M0 698v8h171l52 -157v-6h-149zM238 0h-184v494h184v-494z" />
    <glyph glyph-name="iacute" unicode="&#xed;" horiz-adv-x="292" 
d="M283 706v-8l-74 -155h-154v6l57 157h171zM54 0h184v494h-184v-494z" />
    <glyph glyph-name="icircumflex" unicode="&#xee;" horiz-adv-x="292" 
d="M91 709h101l134 -159v-8h-142l-43 45l-45 -45h-140v8zM54 0h184v494h-184v-494z" />
    <glyph glyph-name="idieresis" unicode="&#xef;" horiz-adv-x="292" 
d="M-55 619q0 41 26 65t62 24t63 -24t27 -65q0 -39 -27 -62t-63 -23t-62 23t-26 62zM165 619q0 41 27 65t63 24t62.5 -24t26.5 -65q0 -39 -26.5 -62t-62.5 -23t-63 23t-27 62zM54 0h184v494h-184v-494z" />
    <glyph glyph-name="eth" unicode="&#xf0;" horiz-adv-x="585" 
d="M294 656l53 63l103 -79l-43 -50q81 -63 116 -153.5t32 -186.5q-7 -119 -72 -188.5t-192 -69.5q-125 0 -194.5 72.5t-69.5 173.5q0 107 69 175.5t179 68.5q21 0 32 -1q-76 66 -197 81l28 131q96 -12 156 -37zM291 141q41 0 64.5 30.5t24 67t-23 67t-65.5 30.5
q-40 0 -63 -30.5t-23 -67t22.5 -67t63.5 -30.5z" />
    <glyph glyph-name="ntilde" unicode="&#xf1;" 
d="M574 0h-184v273q0 42 -20 62t-49 20q-36 0 -60.5 -24.5t-24.5 -70.5v-260h-182v494h163l8 -54q58 68 156 66q87 -1 140 -55t53 -177v-274zM315 585q-70 45 -94 -14l-91 65q23 68 82 88t111 -14q29 -20 54 -17.5t43 35.5l87 -64q-24 -70 -75 -92t-117 13z" />
    <glyph glyph-name="ograve" unicode="&#xf2;" horiz-adv-x="618" 
d="M309 505q119 0 200.5 -66t81.5 -193q0 -126 -83.5 -192t-198.5 -66q-55 0 -104.5 15.5t-89.5 45.5t-64 81t-24 116q0 87 41.5 147.5t103.5 86t137 25.5zM309 139q46 0 74 30.5t28 76.5q0 45 -27.5 76.5t-74.5 31.5t-74.5 -31.5t-27.5 -76.5t27.5 -76t74.5 -31zM138 709v7
h194l77 -153v-6h-162z" />
    <glyph glyph-name="oacute" unicode="&#xf3;" horiz-adv-x="618" 
d="M309 505q-75 0 -137 -25.5t-103.5 -86t-41.5 -147.5q0 -65 24 -116t64 -81t89.5 -45.5t104.5 -15.5q115 0 198.5 66t83.5 192q0 127 -81.5 193t-200.5 66zM309 139q-47 0 -74.5 31t-27.5 76t27.5 76.5t74.5 31.5t74.5 -31.5t27.5 -76.5q0 -46 -28 -76.5t-74 -30.5z
M477 713v-8l-107 -153h-157v6l75 155h189z" />
    <glyph glyph-name="ocircumflex" unicode="&#xf4;" horiz-adv-x="618" 
d="M309 505q-75 0 -137 -25.5t-103.5 -86t-41.5 -147.5q0 -65 24 -116t64 -81t89.5 -45.5t104.5 -15.5q115 0 198.5 66t83.5 192q0 127 -81.5 193t-200.5 66zM309 139q-47 0 -74.5 31t-27.5 76t27.5 76.5t74.5 31.5t74.5 -31.5t27.5 -76.5q0 -46 -28 -76.5t-74 -30.5z
M252 710h114l152 -157v-8h-158l-51 47l-51 -47h-158v8z" />
    <glyph glyph-name="otilde" unicode="&#xf5;" horiz-adv-x="618" 
d="M309 505q119 0 200.5 -66t81.5 -193q0 -126 -83.5 -192t-198.5 -66q-55 0 -104.5 15.5t-89.5 45.5t-64 81t-24 116q0 87 41.5 147.5t103.5 86t137 25.5zM309 139q46 0 74 30.5t28 76.5q0 45 -27.5 76.5t-74.5 31.5t-74.5 -31.5t-27.5 -76.5t27.5 -76t74.5 -31zM315 569
q-74 44 -99 -14l-96 65q23 69 86 90t118 -14q68 -40 101 18l91 -65q-25 -71 -78.5 -93.5t-122.5 13.5z" />
    <glyph glyph-name="odieresis" unicode="&#xf6;" horiz-adv-x="618" 
d="M96 638q0 40 27.5 63t65.5 23t66.5 -23t28.5 -63q0 -38 -28.5 -60.5t-66.5 -22.5t-65.5 22.5t-27.5 60.5zM336 638q0 40 28 63t67 23q37 0 65.5 -23t28.5 -63q0 -38 -28.5 -60.5t-65.5 -22.5q-39 0 -67 22.5t-28 60.5zM309 508q-75 0 -137 -25.5t-103.5 -86t-41.5 -147.5
q0 -65 24 -116t64 -81t89.5 -45.5t104.5 -15.5q115 0 198.5 66t83.5 192q0 127 -81.5 193t-200.5 66zM309 142q-47 0 -74.5 31t-27.5 76t27.5 76.5t74.5 31.5t74.5 -31.5t27.5 -76.5q0 -46 -28 -76.5t-74 -30.5z" />
    <glyph glyph-name="divide" unicode="&#xf7;" horiz-adv-x="541" 
d="M38 399v-145h465v145h-465zM177 133q0 43 28.5 66t69.5 23q40 0 69 -23.5t29 -65.5q0 -41 -29 -64t-69 -23t-69 23t-29 64zM177 521q0 42 28.5 65t69.5 23q40 0 69 -23t29 -65t-29 -65t-69 -23t-69 23t-29 65z" />
    <glyph glyph-name="oslash" unicode="&#xf8;" horiz-adv-x="619" 
d="M310 139q47 0 72.5 30t25.5 77t-25.5 77.5t-72.5 30.5t-72.5 -30.5t-25.5 -77.5t25.5 -77t72.5 -30zM310 505q28 0 61 -5l33 55h170l-67 -110q85 -69 85 -199q0 -67 -24 -118.5t-65 -81t-90 -44t-103 -14.5q-19 0 -57 4l-31 -52h-171l65 107q-88 68 -88 199
q0 130 81.5 194.5t200.5 64.5z" />
    <glyph glyph-name="ugrave" unicode="&#xf9;" 
d="M48 494h184v-273q0 -42 20 -62t49 -20q36 0 60.5 23t24.5 69v263h182v-494h-163l-8 54q-58 -68 -156 -66q-87 1 -140 55t-53 177v274zM130 701v8h193l77 -155v-5h-161z" />
    <glyph glyph-name="uacute" unicode="&#xfa;" 
d="M232 494h-184v-274q0 -123 53 -177t140 -55q98 -2 156 66l8 -54h163v494h-182v-263q0 -46 -24.5 -69t-60.5 -23q-29 0 -49 20t-20 62v273zM494 713v-8l-110 -155h-162v6l78 157h194z" />
    <glyph glyph-name="ucircumflex" unicode="&#xfb;" 
d="M232 494h-184v-274q0 -123 53 -177t140 -55q98 -2 156 66l8 -54h163v494h-182v-263q0 -46 -24.5 -69t-60.5 -23q-29 0 -49 20t-20 62v273zM248 713h117l155 -150v-8h-161l-52 45l-52 -45h-162v8z" />
    <glyph glyph-name="udieresis" unicode="&#xfc;" 
d="M232 494h-184v-274q0 -123 53 -177t140 -55q98 -2 156 66l8 -54h163v494h-182v-263q0 -46 -24.5 -69t-60.5 -23q-29 0 -49 20t-20 62v273zM74 629q0 38 27.5 60.5t64.5 22.5t65 -22.5t28 -60.5q0 -37 -28 -58.5t-65 -21.5t-64.5 21.5t-27.5 58.5zM360 629q0 38 27.5 60.5
t65.5 22.5q37 0 64.5 -22.5t27.5 -60.5q0 -37 -28 -58.5t-64 -21.5q-38 0 -65.5 21.5t-27.5 58.5z" />
    <glyph glyph-name="yacute" unicode="&#xfd;" horiz-adv-x="582" 
d="M591 494h-197l-46 -117l-60 -172l-54 171l-42 118h-195l196 -472l-100 -231h192zM477 711v-8l-109 -159h-161v6l77 161h193z" />
    <glyph glyph-name="thorn" unicode="&#xfe;" horiz-adv-x="640" 
d="M340 147q39 0 65 27t26 72t-26 72t-65 27q-36 0 -63 -29.5t-27 -69.5t26.5 -69.5t63.5 -29.5zM237 -194h-183v882h183v-237q57 53 152 53q104 0 164 -74.5t60 -179.5q0 -108 -60 -183.5t-174 -75.5q-85 0 -142 51v-236z" />
    <glyph glyph-name="ydieresis" unicode="&#xff;" horiz-adv-x="582" 
d="M591 494h-197l-46 -117l-60 -172l-54 171l-42 118h-195l196 -472l-100 -231h192zM61 627q0 40 27.5 63t65.5 23t66.5 -23t28.5 -63q0 -38 -28.5 -60.5t-66.5 -22.5t-65.5 22.5t-27.5 60.5zM351 627q0 40 28 63t67 23q37 0 65.5 -23t28.5 -63q0 -38 -28.5 -60.5
t-65.5 -22.5q-39 0 -67 22.5t-28 60.5z" />
    <glyph glyph-name="Amacron" unicode="&#x100;" horiz-adv-x="797" 
d="M600 0l-46 115h-313l-46 -115h-210l314 700h200l313 -700h-212zM487 281l-89 223l-90 -223h179zM223 744v140h350v-140h-350z" />
    <glyph glyph-name="amacron" unicode="&#x101;" horiz-adv-x="648" 
d="M412 441l9 53h173v-494h-170l-8 53q-30 -34 -74 -49t-89 -13q-107 7 -166.5 76.5t-59.5 179.5q0 111 66.5 184.5t173.5 73.5q103 0 145 -64zM309 356q-43 0 -71 -29.5t-28 -79.5t28 -79t71 -29q45 0 73.5 31.5t28.5 76.5q0 50 -27 79.5t-75 29.5zM169 568v139h335v-139
h-335z" />
    <glyph glyph-name="Abreve" unicode="&#x102;" horiz-adv-x="797" 
d="M600 0l-46 115h-313l-46 -115h-210l314 700h200l313 -700h-212zM487 281l-89 223l-90 -223h179zM215 904h140q0 -24 14.5 -33t28.5 -9q9 0 17.5 2.5t17.5 12.5t9 27h140q2 -75 -48.5 -118t-135.5 -43q-84 0 -134.5 43t-48.5 118z" />
    <glyph glyph-name="abreve" unicode="&#x103;" horiz-adv-x="648" 
d="M412 441l9 53h173v-494h-170l-8 53q-30 -34 -74 -49t-89 -13q-107 7 -166.5 76.5t-59.5 179.5q0 111 66.5 184.5t173.5 73.5q103 0 145 -64zM309 356q-43 0 -71 -29.5t-28 -79.5t28 -79t71 -29q45 0 73.5 31.5t28.5 76.5q0 50 -27 79.5t-75 29.5zM153 714h138
q0 -16 9 -26t17.5 -12t16.5 -2t16.5 2t17.5 12t9 26h138q2 -72 -48 -114t-133 -42t-133 42t-48 114z" />
    <glyph glyph-name="Aogonek" unicode="&#x104;" horiz-adv-x="797" 
d="M581 49l-27 66h-313l-46 -115h-210l314 700h200l313 -700q-41 4 -72 2.5t-47.5 -7t-27 -13.5t-10.5 -17t2 -18q7 -20 41.5 -20.5t49.5 9.5l70 -89q-41 -36 -109.5 -44.5t-128.5 19.5t-72 87q-10 47 10 85t63 55zM487 281l-89 223l-90 -223h179z" />
    <glyph glyph-name="aogonek" unicode="&#x105;" horiz-adv-x="648" 
d="M412 441l9 53h173v-533q-24 10 -61.5 0.5t-30.5 -39.5q3 -12 20 -15.5t34.5 -0.5t27.5 8l56 -77q-38 -30 -96 -36.5t-107.5 16.5t-59.5 73q-8 39 7.5 69.5t49.5 45.5l-14 52q-28 -37 -74 -53t-93 -13q-107 7 -166.5 76.5t-59.5 179.5q0 111 66.5 184.5t173.5 73.5
q103 0 145 -64zM309 356q-43 0 -71 -29.5t-28 -79.5t28 -79t71 -29q45 0 73.5 31.5t28.5 76.5q0 50 -27 79.5t-75 29.5z" />
    <glyph glyph-name="Cacute" unicode="&#x106;" horiz-adv-x="707" 
d="M697 91l-116 130q-35 -36 -80.5 -53.5t-84.5 -17.5q-95 0 -140.5 57.5t-46.5 136.5q-1 78 46.5 139.5t140.5 61.5q85 0 149 -61l122 120q-115 112 -271 112q-95 0 -170.5 -32.5t-120.5 -86t-68.5 -118.5t-23.5 -134q0 -74 22 -137.5t66 -115t119.5 -81t175.5 -29.5
q171 0 281 109zM566 919v-8l-103 -151h-153v6l73 153h183z" />
    <glyph glyph-name="cacute" unicode="&#x107;" horiz-adv-x="519" 
d="M511 74l-105 110q-38 -41 -92 -41q-50 0 -78.5 29.5t-28.5 72.5q0 49 28.5 81t79.5 32q50 0 85 -36l98 106q-77 77 -194 77q-54 0 -102.5 -15.5t-88 -46t-63 -81.5t-23.5 -116q0 -67 23 -117.5t63 -80t89 -44t105 -14.5q110 0 204 84zM445 700v-7l-98 -144h-147v5l70 146
h175z" />
    <glyph glyph-name="Ccircumflex" unicode="&#x108;" horiz-adv-x="707" 
d="M697 91l-116 130q-35 -36 -80.5 -53.5t-84.5 -17.5q-95 0 -140.5 57.5t-46.5 136.5q-1 78 46.5 139.5t140.5 61.5q85 0 149 -61l122 120q-115 112 -271 112q-95 0 -170.5 -32.5t-120.5 -86t-68.5 -118.5t-23.5 -134q0 -74 22 -137.5t66 -115t119.5 -81t175.5 -29.5
q171 0 281 109zM350 940h114l152 -157v-8h-158l-51 47l-51 -47h-158v8z" />
    <glyph glyph-name="ccircumflex" unicode="&#x109;" horiz-adv-x="519" 
d="M511 74l-105 110q-38 -41 -92 -41q-50 0 -78.5 29.5t-28.5 72.5q0 49 28.5 81t79.5 32q50 0 85 -36l98 106q-77 77 -194 77q-54 0 -102.5 -15.5t-88 -46t-63 -81.5t-23.5 -116q0 -67 23 -117.5t63 -80t89 -44t105 -14.5q110 0 204 84zM246 703h106l141 -146v-7h-147
l-47 43l-47 -43h-146v7z" />
    <glyph glyph-name="Cdotaccent" unicode="&#x10a;" horiz-adv-x="707" 
d="M697 91l-116 130q-35 -36 -80.5 -53.5t-84.5 -17.5q-95 0 -140.5 57.5t-46.5 136.5q-1 78 46.5 139.5t140.5 61.5q85 0 149 -61l122 120q-115 112 -271 112q-95 0 -170.5 -32.5t-120.5 -86t-68.5 -118.5t-23.5 -134q0 -74 22 -137.5t66 -115t119.5 -81t175.5 -29.5
q171 0 281 109zM311 858q0 39 29.5 61t69.5 22t69.5 -22t29.5 -61t-29.5 -61t-69.5 -22t-69.5 22t-29.5 61z" />
    <glyph glyph-name="cdotaccent" unicode="&#x10b;" horiz-adv-x="519" 
d="M511 74l-105 110q-38 -41 -92 -41q-50 0 -78.5 29.5t-28.5 72.5q0 49 28.5 81t79.5 32q50 0 85 -36l98 106q-77 77 -194 77q-54 0 -102.5 -15.5t-88 -46t-63 -81.5t-23.5 -116q0 -67 23 -117.5t63 -80t89 -44t105 -14.5q110 0 204 84zM210 638q0 38 26.5 58.5t63.5 20.5
t63.5 -20.5t26.5 -58.5q0 -37 -27 -58t-63 -21t-63 21t-27 58z" />
    <glyph glyph-name="Ccaron" unicode="&#x10c;" horiz-adv-x="707" 
d="M697 91l-116 130q-35 -36 -80.5 -53.5t-84.5 -17.5q-95 0 -140.5 57.5t-46.5 136.5q-1 78 46.5 139.5t140.5 61.5q85 0 149 -61l122 120q-115 112 -271 112q-95 0 -170.5 -32.5t-120.5 -86t-68.5 -118.5t-23.5 -134q0 -74 22 -137.5t66 -115t119.5 -81t175.5 -29.5
q171 0 281 109zM469 761h-115l-152 146v7h158l52 -43l51 43h158v-7z" />
    <glyph glyph-name="ccaron" unicode="&#x10d;" horiz-adv-x="519" 
d="M511 74l-105 110q-38 -41 -92 -41q-50 0 -78.5 29.5t-28.5 72.5q0 49 28.5 81t79.5 32q50 0 85 -36l98 106q-77 77 -194 77q-54 0 -102.5 -15.5t-88 -46t-63 -81.5t-23.5 -116q0 -67 23 -117.5t63 -80t89 -44t105 -14.5q110 0 204 84zM348 552h-106l-142 140v7h147
l48 -42l47 42h148v-7z" />
    <glyph glyph-name="Dcaron" unicode="&#x10e;" horiz-adv-x="771" 
d="M371 700h-300v-700h300q179 0 272.5 100.5t93.5 254.5q0 152 -94 248.5t-272 96.5zM267 167v368h104q86 0 128 -50t42 -128q0 -81 -41 -135.5t-129 -54.5h-104zM398 764h-124l-165 145v7h172l55 -43l55 43h171v-7z" />
    <glyph glyph-name="dcaron" unicode="&#x10f;" horiz-adv-x="722" 
d="M405 452v248h184v-700h-164l-8 53q-30 -34 -74 -49t-89 -13q-109 7 -167.5 73t-58.5 183q0 114 66.5 186t173.5 72q94 0 137 -53zM310 356q-43 0 -71 -29.5t-28 -79.5t28 -79t71 -29q44 0 71.5 31t27.5 72q0 48 -26 81t-73 33zM614 480l44 221h151l-77 -221h-118z" />
    <glyph glyph-name="Dcroat" unicode="&#x110;" horiz-adv-x="767" 
d="M17 285v138h59v277h300q89 0 159 -29.5t112 -80t63.5 -111t22.5 -127.5q1 -68 -20 -130t-63 -112t-112.5 -80t-161.5 -30h-300v285h-59zM269 285v-118h107q84 0 124 55t37 132q-3 74 -42.5 126.5t-118.5 52.5h-107v-110h97v-138h-97z" />
    <glyph glyph-name="dcroat" unicode="&#x111;" horiz-adv-x="643" 
d="M321 543v110h84v47h184v-47h62v-110h-62v-543h-164l-8 53q-30 -34 -74 -49t-89 -13q-109 7 -167.5 73t-58.5 183q0 114 66.5 186t173.5 72q94 0 137 -53v91h-84zM310 356q-43 0 -71 -29.5t-28 -79.5t28 -79t71 -29q44 0 71.5 31t27.5 72q0 48 -26 81t-73 33z" />
    <glyph glyph-name="Emacron" unicode="&#x112;" horiz-adv-x="672" 
d="M631 167v-167h-560v700h546v-166h-351v-100h331v-161h-331v-106h365zM191 757v134h335v-134h-335z" />
    <glyph glyph-name="emacron" unicode="&#x113;" horiz-adv-x="590" 
d="M214 313h179q-2 37 -44 52.5t-85.5 0.5t-49.5 -53zM302 506q136 0 211.5 -84.5t44.5 -226.5h-345q9 -30 42 -46.5t68 -16.5q74 0 127 40l90 -101q-88 -82 -225 -82q-126 0 -207 64.5t-81 192.5q0 126 82 193t193 67zM154 564v129h312v-129h-312z" />
    <glyph glyph-name="Ebreve" unicode="&#x114;" horiz-adv-x="672" 
d="M631 167v-167h-560v700h546v-166h-351v-100h331v-161h-331v-106h365zM174 901h135q0 -15 9 -24.5t17 -12t16 -2.5t16 2.5t17 12t9 24.5h135q2 -70 -46.5 -110.5t-130.5 -40.5q-81 0 -130 40.5t-47 110.5z" />
    <glyph glyph-name="ebreve" unicode="&#x115;" horiz-adv-x="590" 
d="M214 313h179q-2 37 -44 52.5t-85.5 0.5t-49.5 -53zM302 506q136 0 211.5 -84.5t44.5 -226.5h-345q9 -30 42 -46.5t68 -16.5q74 0 127 40l90 -101q-88 -82 -225 -82q-126 0 -207 64.5t-81 192.5q0 126 82 193t193 67zM138 710h136q0 -40 43 -40q42 0 42 40h137
q2 -73 -47.5 -115t-131.5 -42q-83 0 -132.5 42t-46.5 115z" />
    <glyph glyph-name="Edotaccent" unicode="&#x116;" horiz-adv-x="672" 
d="M631 0v167h-365v106h331v161h-331v100h351v166h-546v-700h560zM257 845q0 40 31 62.5t74 22.5q42 0 73.5 -22.5t31.5 -62.5t-31.5 -62.5t-73.5 -22.5q-43 0 -74 22.5t-31 62.5z" />
    <glyph glyph-name="edotaccent" unicode="&#x117;" horiz-adv-x="590" 
d="M214 313h179q-2 37 -44 52.5t-85.5 0.5t-49.5 -53zM302 506q136 0 211.5 -84.5t44.5 -226.5h-345q9 -30 42 -46.5t68 -16.5q74 0 127 40l90 -101q-88 -82 -225 -82q-126 0 -207 64.5t-81 192.5q0 126 82 193t193 67zM208 631q0 40 30 63t71 23t71 -23t30 -63t-30 -62.5
t-71 -22.5t-71 22.5t-30 62.5z" />
    <glyph glyph-name="Eogonek" unicode="&#x118;" horiz-adv-x="672" 
d="M631 167v-167q-27 3 -48.5 1t-33.5 -7.5t-19.5 -13t-7 -15.5t3.5 -16q6 -11 24 -13.5t34.5 1t27.5 9.5l68 -84q-35 -30 -90 -45t-111 -5.5t-85 46.5q-25 33 -16 76t47 66h-354v700h546v-166h-351v-100h331v-161h-331v-106h365z" />
    <glyph glyph-name="eogonek" unicode="&#x119;" horiz-adv-x="591" 
d="M302 506q136 0 211.5 -84.5t44.5 -226.5h-345q9 -30 42 -46.5t68 -16.5q74 0 127 40l90 -101q-57 -53 -134 -71q-34 -12 -28 -39q6 -21 40.5 -22t55.5 17l63 -80q-29 -36 -86.5 -49t-113 3.5t-78.5 57.5q-14 28 -7 56.5t33 45.5q-115 8 -186.5 72t-71.5 184q0 126 82 193
t193 67zM214 313h179q-2 37 -44 52.5t-85.5 0.5t-49.5 -53z" />
    <glyph glyph-name="Ecaron" unicode="&#x11a;" horiz-adv-x="672" 
d="M631 0v167h-365v106h331v161h-331v100h351v166h-546v-700h560zM413 750h-115l-153 143v8h159l52 -43l51 43h159v-8z" />
    <glyph glyph-name="ecaron" unicode="&#x11b;" horiz-adv-x="590" 
d="M214 313h179q-2 37 -44 52.5t-85.5 0.5t-49.5 -53zM302 506q136 0 211.5 -84.5t44.5 -226.5h-345q9 -30 42 -46.5t68 -16.5q74 0 127 40l90 -101q-88 -82 -225 -82q-126 0 -207 64.5t-81 192.5q0 126 82 193t193 67zM365 550h-113l-152 142v7h158l50 -43l51 43h158v-7z
" />
    <glyph glyph-name="Gcircumflex" unicode="&#x11c;" horiz-adv-x="756" 
d="M575 493l115 114q-64 65 -129 89t-146 24q-95 0 -170 -32t-120.5 -85.5t-69 -118t-23.5 -135.5q0 -72 21.5 -135.5t65 -116.5t119.5 -84.5t176 -31.5q104 0 186.5 36t114.5 101v311h-342v-155h177v-90q-50 -36 -135 -36q-66 0 -110.5 32.5t-61 75.5t-16.5 93
q0 100 50 152.5t138 52.5q95 0 160 -61zM347 924h118l158 -150v-7h-164l-53 45l-53 -45h-164v7z" />
    <glyph glyph-name="gcircumflex" unicode="&#x11d;" horiz-adv-x="610" 
d="M34 -35h173q-2 -94 93 -94q39 0 65 18.5t26 52.5q0 66 -89 66q-125 0 -200 67.5t-75 181.5t78.5 183.5t196.5 69.5q50 0 102 -19l43 58l132 -97l-53 -64q50 -56 47 -133q-2 -100 -90 -164q97 -55 97 -149q0 -58 -23.5 -101.5t-64 -68.5t-89 -37.5t-103.5 -12.5
q-132 0 -203 64.5t-63 178.5zM302 359q-42 0 -69 -27t-27 -75q0 -43 27.5 -70t68.5 -27q39 0 66 25t27 72q0 43 -26.5 72.5t-66.5 29.5zM253 731h123l164 -153v-7h-170l-56 45l-55 -45h-171v7z" />
    <glyph glyph-name="Gbreve" unicode="&#x11e;" horiz-adv-x="756" 
d="M690 607l-115 -114q-65 61 -160 61q-88 0 -138 -52.5t-50 -152.5q0 -50 16.5 -93t61 -75.5t110.5 -32.5q85 0 135 36v90h-177v155h342v-311q-32 -65 -114.5 -101t-186.5 -36q-100 0 -176 31.5t-119.5 84.5t-65 116.5t-21.5 135.5q0 71 23.5 135.5t69 118t120.5 85.5
t170 32q81 0 146 -24t129 -89zM221 927h141q0 -24 14.5 -33t29.5 -9q8 0 16.5 2.5t18 12.5t9.5 27h141q2 -75 -49 -117.5t-136 -42.5q-86 0 -137 43t-48 117z" />
    <glyph glyph-name="gbreve" unicode="&#x11f;" horiz-adv-x="615" 
d="M34 -35h173q-2 -94 93 -94q39 0 65 18.5t26 52.5q0 66 -89 66q-125 0 -200 67.5t-75 181.5t78.5 183.5t196.5 69.5q50 0 102 -19l53 68l133 -95l-64 -76q50 -56 47 -133q-2 -100 -90 -164q97 -55 97 -149q0 -58 -23.5 -101.5t-64 -68.5t-89 -37.5t-103.5 -12.5
q-132 0 -203 64.5t-63 178.5zM302 359q-42 0 -69 -27t-27 -75q0 -43 27.5 -70t68.5 -27q39 0 66 25t27 72q0 43 -26.5 72.5t-66.5 29.5zM115 720h141q0 -23 14.5 -32t29.5 -9q8 0 16.5 2.5t18 12.5t9.5 26h141q2 -74 -49 -116t-136 -42q-86 0 -137 42t-48 116z" />
    <glyph glyph-name="Gdotaccent" unicode="&#x120;" horiz-adv-x="756" 
d="M575 493l115 114q-64 65 -129 89t-146 24q-95 0 -170 -32t-120.5 -85.5t-69 -118t-23.5 -135.5q0 -72 21.5 -135.5t65 -116.5t119.5 -84.5t176 -31.5q104 0 186.5 36t114.5 101v311h-342v-155h177v-90q-50 -36 -135 -36q-66 0 -110.5 32.5t-61 75.5t-16.5 93
q0 100 50 152.5t138 52.5q95 0 160 -61zM308 858q0 42 31 65.5t74 23.5q42 0 73 -23.5t31 -65.5t-31 -65.5t-73 -23.5q-43 0 -74 23.5t-31 65.5z" />
    <glyph glyph-name="gdotaccent" unicode="&#x121;" horiz-adv-x="615" 
d="M34 -35h173q-2 -94 93 -94q39 0 65 18.5t26 52.5q0 66 -89 66q-125 0 -200 67.5t-75 181.5t78.5 183.5t196.5 69.5q50 0 102 -19l53 68l133 -95l-64 -76q50 -56 47 -133q-2 -100 -90 -164q97 -55 97 -149q0 -58 -23.5 -101.5t-64 -68.5t-89 -37.5t-103.5 -12.5
q-132 0 -203 64.5t-63 178.5zM302 359q-42 0 -69 -27t-27 -75q0 -43 27.5 -70t68.5 -27q39 0 66 25t27 72q0 43 -26.5 72.5t-66.5 29.5zM202 650q0 42 31 65.5t73 23.5t73 -23.5t31 -65.5t-31 -65.5t-73 -23.5t-73 23.5t-31 65.5z" />
    <glyph glyph-name="Gcommaaccent" unicode="&#x122;" horiz-adv-x="756" 
d="M690 607l-115 -114q-65 61 -160 61q-88 0 -138 -52.5t-50 -152.5q0 -50 16.5 -93t61 -75.5t110.5 -32.5q85 0 135 36v90h-177v155h342v-311q-32 -65 -114.5 -101t-186.5 -36q-100 0 -176 31.5t-119.5 84.5t-65 116.5t-21.5 135.5q0 71 23.5 135.5t69 118t120.5 85.5
t170 32q81 0 146 -24t129 -89zM500 -141q0 -48 -58 -164h-97l22 100q-54 10 -54 65q0 37 29 58t69 21q37 0 63 -21t26 -59z" />
    <glyph glyph-name="gcommaaccent" unicode="&#x123;" horiz-adv-x="615" 
d="M209 652q1 17 6.5 38t11.5 34.5t18 38.5t16 35h117l-17 -88q50 -15 49 -56q-1 -39 -30.5 -60t-69.5 -21t-71 21.5t-30 57.5zM34 -35h173q-2 -94 93 -94q39 0 65 18.5t26 52.5q0 66 -89 66q-125 0 -200 67.5t-75 181.5t78.5 183.5t196.5 69.5q50 0 102 -19l53 68l133 -95
l-64 -76q50 -56 47 -133q-2 -100 -90 -164q97 -55 97 -149q0 -58 -23.5 -101.5t-64 -68.5t-89 -37.5t-103.5 -12.5q-132 0 -203 64.5t-63 178.5zM302 359q-42 0 -69 -27t-27 -75q0 -43 27.5 -70t68.5 -27q39 0 66 25t27 72q0 43 -26.5 72.5t-66.5 29.5z" />
    <glyph glyph-name="Hcircumflex" unicode="&#x124;" horiz-adv-x="788" 
d="M521 0h196v700h-196v-266h-252v266h-198v-700h198v265h252v-265zM329 926h120l160 -156v-8h-166l-54 46l-53 -46h-167v8z" />
    <glyph glyph-name="hcircumflex" unicode="&#x125;" horiz-adv-x="613" 
d="M240 700h-186v-700h185v261q1 41 24 63t53 22q64 0 67 -73v-273h183v274q0 117 -55.5 174t-138.5 57q-82 0 -132 -64v259zM248 911h109l146 -152v-7h-152l-49 45l-49 -45h-151v7z" />
    <glyph glyph-name="Hbar" unicode="&#x126;" horiz-adv-x="798" 
d="M722 -1h-196v260h-252v-260h-198v502h-59v113h59v85h198v-85h252v85h196v-85h62v-113h-62v-502zM274 427h252v74h-252v-74z" />
    <glyph glyph-name="hbar" unicode="&#x127;" horiz-adv-x="613" 
d="M-1 539v111h55v50h186v-50h81v-111h-81v-98q50 64 132 64q83 0 138.5 -57t55.5 -174v-274h-183v273q-3 73 -67 73q-30 0 -53 -22t-24 -63v-261h-185v539h-55z" />
    <glyph glyph-name="Itilde" unicode="&#x128;" horiz-adv-x="339" 
d="M268 0h-197v700h197v-700zM167 782q-77 43 -102 -14l-99 65q24 67 89 88t121 -13q70 -41 104 17l94 -64q-26 -70 -81.5 -92.5t-125.5 13.5z" />
    <glyph glyph-name="itilde" unicode="&#x129;" horiz-adv-x="292" 
d="M238 0h-184v494h184v-494zM146 569q-62 43 -82 -14l-79 63q13 44 42 68.5t61.5 24t64.5 -19.5q57 -38 83 17l75 -62q-21 -68 -65 -89.5t-100 12.5z" />
    <glyph glyph-name="Imacron" unicode="&#x12a;" horiz-adv-x="339" 
d="M268 0h-197v700h197v-700zM17 761v144h301v-144h-301z" />
    <glyph glyph-name="imacron" unicode="&#x12b;" horiz-adv-x="292" 
d="M238 0h-184v494h184v-494zM16 563v134h263v-134h-263z" />
    <glyph glyph-name="Ibreve" unicode="&#x12c;" horiz-adv-x="339" 
d="M268 0h-197v700h197v-700zM-7 923h134q0 -18 9 -28.5t17 -13t16 -2.5t16 2.5t17 13t9 28.5h134q2 -79 -46.5 -124.5t-129.5 -45.5t-129.5 45.5t-46.5 124.5z" />
    <glyph glyph-name="ibreve" unicode="&#x12d;" horiz-adv-x="292" 
d="M238 0h-184v494h184v-494zM-7 701h118q0 -17 7.5 -27t15 -12t14.5 -2t14 2t15 12t8 27h118q1 -75 -41.5 -117.5t-113.5 -42.5q-72 0 -114.5 42.5t-40.5 117.5z" />
    <glyph glyph-name="Iogonek" unicode="&#x12e;" horiz-adv-x="339" 
d="M180 -45q5 -19 36 -19t45 9l62 -83q-34 -31 -91 -45t-112 1t-76 61q-14 33 -6 67.5t33 56.5v697h197v-700h-40q-24 -2 -38.5 -14.5t-9.5 -30.5z" />
    <glyph glyph-name="iogonek" unicode="&#x12f;" horiz-adv-x="294" 
d="M44 621q0 44 31 68.5t73 24.5t72.5 -24.5t30.5 -68.5q0 -43 -31 -67.5t-72 -24.5q-42 0 -73 24.5t-31 67.5zM241 -15l-1 15v486h-185v-476q-48 -39 -38 -102q8 -54 61 -78t113 -15t95 40l-55 82q-18 -14 -50 -13t-37 20q-7 29 27.5 39t69.5 2z" />
    <glyph glyph-name="Idotaccent" unicode="&#x130;" horiz-adv-x="339" 
d="M71 0h197v700h-197v-700zM57 835q0 41 32 64t77 23q44 0 76.5 -23t32.5 -64q0 -42 -32.5 -65t-76.5 -23q-45 0 -77 23t-32 65z" />
    <glyph glyph-name="dotlessi" unicode="&#x131;" horiz-adv-x="292" 
d="M238 0h-184v494h184v-494z" />
    <glyph glyph-name="IJ" unicode="&#x132;" horiz-adv-x="1067" 
d="M268 0h-197v700h197v-700zM354 302h193q1 -74 37 -109.5t92 -35.5q63 0 97.5 37.5t34.5 108.5v231h-186v166h384v-398q0 -142 -87.5 -229.5t-244.5 -87.5q-320 0 -320 317z" />
    <glyph glyph-name="ij" unicode="&#x133;" horiz-adv-x="585" 
d="M43 621q0 44 31 68.5t73 24.5t72.5 -24.5t30.5 -68.5q0 -43 -31 -67.5t-72 -24.5q-42 0 -73 24.5t-31 67.5zM54 0h185v486h-185v-486zM336 621q0 44 31 68.5t73 24.5t72.5 -24.5t30.5 -68.5q0 -43 -31 -67.5t-72 -24.5q-42 0 -73 24.5t-31 67.5zM258 -72l-35 -129
q59 -29 115 -31.5t98.5 19t68.5 71t26 119.5v509h-184v-509q0 -46 -24.5 -59t-64.5 10z" />
    <glyph glyph-name="Jcircumflex" unicode="&#x134;" horiz-adv-x="728" 
d="M208 302h-193q0 -317 320 -317q157 0 244.5 87.5t87.5 229.5v398h-384v-166h186v-231q0 -71 -34.5 -108.5t-97.5 -37.5q-56 0 -92 35.5t-37 109.5zM375 924h119l158 -164v-9h-164l-53 49l-53 -49h-165v9z" />
    <glyph glyph-name="jcircumflex" unicode="&#x135;" horiz-adv-x="292" 
d="M72 723h101l135 -172v-9h-140l-46 52l-45 -52h-141v9zM-35 -72l-35 -129q59 -29 115 -31.5t98.5 19t68.5 71t26 119.5v509h-184v-509q0 -46 -24 -59t-65 10z" />
    <glyph glyph-name="Kcommaaccent" unicode="&#x136;" horiz-adv-x="703" 
d="M690 700v-12l-284 -331l308 -345v-12h-245l-200 233v-233h-198v700h198v-230l184 230h237zM449 -126q0 -46 -60 -162h-101l22 99q-56 10 -56 64q0 36 30 57t72 21q39 0 66 -20.5t27 -58.5z" />
    <glyph glyph-name="kcommaaccent" unicode="&#x137;" horiz-adv-x="569" 
d="M54 700h185v-351l103 145h205v-8l-173 -224l201 -251v-11h-208l-128 172v-172h-185v700zM387 -125q0 -48 -58 -164h-96l21 100q-53 10 -53 65q0 37 28.5 58t68.5 21q37 0 63 -21t26 -59z" />
    <glyph glyph-name="kgreenlandic" unicode="&#x138;" horiz-adv-x="569" 
d="M54 495h185v-146l103 145h205v-8l-173 -224l201 -251v-11h-208l-128 172v-172h-185v495z" />
    <glyph glyph-name="Lacute" unicode="&#x139;" horiz-adv-x="620" 
d="M269 700h-198v-700h533v168h-335v532zM354 910v-7l-110 -146h-163v6l78 147h195z" />
    <glyph glyph-name="lacute" unicode="&#x13a;" horiz-adv-x="290" 
d="M236 701h-182v-701h182v701zM320 906v-7l-104 -142h-153v5l73 144h184z" />
    <glyph glyph-name="Lcommaaccent" unicode="&#x13b;" horiz-adv-x="620" 
d="M71 700h198v-532h335v-168h-533v700zM430 -127q0 -50 -58 -169h-96l21 103q-53 10 -53 67q0 38 28.5 59.5t68.5 21.5q37 0 63 -21.5t26 -60.5z" />
    <glyph glyph-name="lcommaaccent" unicode="&#x13c;" horiz-adv-x="290" 
d="M54 701h182v-701h-182v701zM236 -132q0 -50 -58 -169h-96l21 103q-53 10 -53 67q0 38 28.5 59.5t68.5 21.5q37 0 63 -21.5t26 -60.5z" />
    <glyph glyph-name="Lcaron" unicode="&#x13d;" 
d="M71 700h198v-532h335v-168h-533v700zM379 467l47 235h161l-82 -235h-126z" />
    <glyph glyph-name="lcaron" unicode="&#x13e;" horiz-adv-x="383" 
d="M54 702h182v-702h-182v702zM261 464l47 236h161l-82 -236h-126z" />
    <glyph glyph-name="Ldot" unicode="&#x13f;" horiz-adv-x="620" 
d="M71 700h198v-532h335v-168h-533v700zM446 275q-49 0 -77 29.5t-28 65.5t28 65.5t77 29.5t77 -29.5t28 -65.5t-28 -65.5t-77 -29.5z" />
    <glyph glyph-name="ldot" unicode="&#x140;" horiz-adv-x="481" 
d="M54 701h182v-701h-182v701zM386 245q-49 0 -77 29.5t-28 65.5t28 65.5t77 29.5t77 -29.5t28 -65.5t-28 -65.5t-77 -29.5z" />
    <glyph glyph-name="Lslash" unicode="&#x141;" horiz-adv-x="628" 
d="M277 453l99 52v-149l-99 -50v-140h336v-166h-533v209l-69 -35v145l69 35v346h197v-247z" />
    <glyph glyph-name="lslash" unicode="&#x142;" horiz-adv-x="331" 
d="M317 470v-131l-64 -32v-307h-182v215l-58 -32v135l58 30v339h182v-248z" />
    <glyph glyph-name="Nacute" unicode="&#x143;" horiz-adv-x="799" 
d="M535 317l-296 383h-168v-700h200v224l-3 153l292 -377h168v700h-199v-240q4 -112 6 -143zM573 919v-8l-115 -155h-170v6l81 157h204z" />
    <glyph glyph-name="nacute" unicode="&#x144;" 
d="M390 0h184v274q0 123 -53 177t-140 55q-98 2 -156 -66l-8 54h-163v-494h182v260q0 46 24.5 70.5t60.5 24.5q29 0 49 -20t20 -62v-273zM478 712v-7l-103 -150h-151v6l72 151h182z" />
    <glyph glyph-name="Ncommaaccent" unicode="&#x145;" horiz-adv-x="799" 
d="M239 700l296 -383q-2 31 -6 143v240h199v-700h-168l-292 377l3 -153v-224h-200v700h168zM502 -115q0 -50 -58 -169h-96l21 103q-53 10 -53 67q0 38 28.5 59.5t68.5 21.5q37 0 63 -21.5t26 -60.5z" />
    <glyph glyph-name="ncommaaccent" unicode="&#x146;" 
d="M574 0h-184v273q0 42 -20 62t-49 20q-36 0 -60.5 -24.5t-24.5 -70.5v-260h-182v494h163l8 -54q58 68 156 66q87 -1 140 -55t53 -177v-274zM405 -121q0 -50 -58 -169h-96l21 103q-53 10 -53 67q0 38 28.5 59.5t68.5 21.5q37 0 63 -21.5t26 -60.5z" />
    <glyph glyph-name="Ncaron" unicode="&#x147;" horiz-adv-x="799" 
d="M535 317l-296 383h-168v-700h200v224l-3 153l292 -377h168v700h-199v-240q4 -112 6 -143zM454 753h-113l-152 145v7h158l50 -43l51 43h158v-7z" />
    <glyph glyph-name="ncaron" unicode="&#x148;" 
d="M390 0h184v274q0 123 -53 177t-140 55q-98 2 -156 -66l-8 54h-163v-494h182v260q0 46 24.5 70.5t60.5 24.5q29 0 49 -20t20 -62v-273zM370 553h-109l-146 143v8h151l49 -43l49 43h151v-8z" />
    <glyph glyph-name="napostrophe" unicode="&#x149;" 
d="M574 0h-184v273q0 42 -20 62t-49 20q-36 0 -60.5 -24.5t-24.5 -70.5v-260h-182v494h163l8 -54q58 68 156 66q87 -1 140 -55t53 -177v-274z" />
    <glyph glyph-name="Eng" unicode="&#x14a;" horiz-adv-x="794" 
d="M526 700h197v-723q0 -144 -82.5 -190.5t-225.5 12.5l35 129q40 -23 66.5 -9.5t26.5 58.5v50l-274 339v-366h-198v700h165l290 -369v369z" />
    <glyph glyph-name="eng" unicode="&#x14b;" 
d="M266 -198l35 126q41 -22 66 -7.5t25 56.5v296q0 42 -21 62t-50 20q-36 0 -60.5 -24.5t-24.5 -70.5v-260h-182v494h163l8 -54q58 68 156 66q87 -1 140 -55t53 -177v-299q0 -68 -26 -116.5t-68.5 -69.5t-98.5 -18.5t-115 31.5z" />
    <glyph glyph-name="Omacron" unicode="&#x14c;" horiz-adv-x="842" 
d="M810 350q0 -172 -106.5 -269.5t-282.5 -97.5q-175 0 -282 97.5t-107 269.5q0 170 107.5 268.5t281.5 98.5q176 0 282.5 -97.5t106.5 -269.5zM612 350q0 90 -52 144t-139 54q-85 0 -138 -55.5t-53 -142.5q0 -88 53.5 -143t137.5 -55q86 0 138.5 55t52.5 143zM245 770v140
h350v-140h-350z" />
    <glyph glyph-name="omacron" unicode="&#x14d;" horiz-adv-x="618" 
d="M309 505q119 0 200.5 -66t81.5 -193q0 -126 -83.5 -192t-198.5 -66q-55 0 -104.5 15.5t-89.5 45.5t-64 81t-24 116q0 87 41.5 147.5t103.5 86t137 25.5zM309 139q46 0 74 30.5t28 76.5q0 45 -27.5 76.5t-74.5 31.5t-74.5 -31.5t-27.5 -76.5t27.5 -76t74.5 -31zM156 555
v143h305v-143h-305z" />
    <glyph glyph-name="Obreve" unicode="&#x14e;" horiz-adv-x="842" 
d="M810 350q0 -172 -106.5 -269.5t-282.5 -97.5q-175 0 -282 97.5t-107 269.5q0 170 107.5 268.5t281.5 98.5q176 0 282.5 -97.5t106.5 -269.5zM612 350q0 90 -52 144t-139 54q-85 0 -138 -55.5t-53 -142.5q0 -88 53.5 -143t137.5 -55q86 0 138.5 55t52.5 143zM237 919h142
q0 -23 15 -32t30 -9q8 0 16.5 2.5t18 12.5t9.5 26h143q2 -74 -49.5 -116t-137.5 -42t-137.5 42t-49.5 116z" />
    <glyph glyph-name="obreve" unicode="&#x14f;" horiz-adv-x="618" 
d="M309 505q119 0 200.5 -66t81.5 -193q0 -126 -83.5 -192t-198.5 -66q-55 0 -104.5 15.5t-89.5 45.5t-64 81t-24 116q0 87 41.5 147.5t103.5 86t137 25.5zM309 139q46 0 74 30.5t28 76.5q0 45 -27.5 76.5t-74.5 31.5t-74.5 -31.5t-27.5 -76.5t27.5 -76t74.5 -31zM134 707
h133q0 -40 41 -40q42 0 42 40h133q2 -72 -46.5 -113.5t-128.5 -41.5t-128 41.5t-46 113.5z" />
    <glyph glyph-name="Ohungarumlaut" unicode="&#x150;" horiz-adv-x="842" 
d="M810 350q0 172 -106.5 269.5t-282.5 97.5q-174 0 -281.5 -98.5t-107.5 -268.5q0 -172 107 -269.5t282 -97.5q176 0 282.5 97.5t106.5 269.5zM612 350q0 -88 -52.5 -143t-138.5 -55q-84 0 -137.5 55t-53.5 143q0 87 53 142.5t138 55.5q87 0 139 -54t52 -144zM321 912h170
v-7l-103 -142h-166zM548 912h170v-7l-103 -142h-166z" />
    <glyph glyph-name="ohungarumlaut" unicode="&#x151;" horiz-adv-x="618" 
d="M309 505q-75 0 -137 -25.5t-103.5 -86t-41.5 -147.5q0 -65 24 -116t64 -81t89.5 -45.5t104.5 -15.5q115 0 198.5 66t83.5 192q0 127 -81.5 193t-200.5 66zM309 139q-47 0 -74.5 31t-27.5 76t27.5 76.5t74.5 31.5t74.5 -31.5t27.5 -76.5q0 -46 -28 -76.5t-74 -30.5z
M218 696h160v-7l-97 -137h-156zM432 696h160v-7l-97 -137h-156z" />
    <glyph glyph-name="OE" unicode="&#x152;" horiz-adv-x="1023" 
d="M979 156v-156h-448q-56 -17 -130 -17q-181 0 -274.5 101t-93.5 269q0 165 94.5 264.5t273.5 99.5q50 0 126 -16h444v-152h-302v-112h284v-150h-284v-131h310zM222 352q0 -94 50 -159.5t141 -65.5q52 0 88 16v416q-41 16 -93 16q-81 0 -133.5 -66t-52.5 -157z" />
    <glyph glyph-name="oe" unicode="&#x153;" horiz-adv-x="948" 
d="M574 313h177q-2 37 -43.5 52.5t-84.5 0.5t-49 -53zM309 139q47 0 72.5 30t25.5 77t-25.5 77.5t-72.5 30.5t-72.5 -30.5t-25.5 -77.5t25.5 -77t72.5 -30zM309 505q118 0 182 -75q29 34 75.5 55t93.5 21q136 0 211.5 -84.5t44.5 -226.5h-343q9 -30 41.5 -46.5t66.5 -16.5
q74 0 127 40l92 -106q-88 -76 -230 -76q-119 0 -180 74q-82 -76 -193 -76q-115 0 -192.5 67t-77.5 191q0 130 81.5 194.5t200.5 64.5z" />
    <glyph glyph-name="Racute" unicode="&#x154;" horiz-adv-x="737" 
d="M719 0v12l-182 236q83 37 115.5 88.5t32.5 122.5q0 101 -72 171t-200 70h-342v-700h198v227h69l163 -227h218zM269 542h144q37 0 57 -25.5t20 -61.5q0 -34 -19 -57.5t-56 -23.5h-146v168zM517 923v-8l-109 -152h-161v5l77 155h193z" />
    <glyph glyph-name="racute" unicode="&#x155;" horiz-adv-x="472" 
d="M219 494h-165v-494h184v257q0 46 24 69.5t61 23.5q46 0 83 -30l74 133q-50 53 -130 53q-83 0 -120 -66zM399 705v-7l-102 -139h-149v5l71 141h180z" />
    <glyph glyph-name="Rcommaaccent" unicode="&#x156;" horiz-adv-x="737" 
d="M719 12v-12h-218l-163 227h-69v-227h-198v700h342q128 0 200 -70t72 -171q0 -71 -32.5 -122.5t-115.5 -88.5zM413 542h-144v-168h146q37 0 56 23.5t19 57.5q0 36 -20 61.5t-57 25.5zM466 -123q0 -50 -58 -169h-96l21 103q-53 10 -53 67q0 38 28.5 59.5t68.5 21.5
q37 0 63 -21.5t26 -60.5z" />
    <glyph glyph-name="rcommaaccent" unicode="&#x157;" horiz-adv-x="472" 
d="M54 494h165l11 -54q37 66 120 66q80 0 130 -53l-74 -133q-37 30 -83 30q-37 0 -61 -23.5t-24 -69.5v-257h-184v494zM235 -127q0 -46 -56 -164h-93l20 100q-51 10 -51 65q0 37 27.5 58t66.5 21q36 0 61 -21t25 -59z" />
    <glyph glyph-name="Rcaron" unicode="&#x158;" horiz-adv-x="737" 
d="M719 0v12l-182 236q83 37 115.5 88.5t32.5 122.5q0 101 -72 171t-200 70h-342v-700h198v227h69l163 -227h218zM269 542h144q37 0 57 -25.5t20 -61.5q0 -34 -19 -57.5t-56 -23.5h-146v168zM399 755h-115l-154 151v8h160l51 -46l52 46h159v-8z" />
    <glyph glyph-name="rcaron" unicode="&#x159;" horiz-adv-x="472" 
d="M219 494h-165v-494h184v257q0 46 24 69.5t61 23.5q46 0 83 -30l74 133q-50 53 -130 53q-83 0 -120 -66zM313 552h-107l-142 143v7h148l47 -42l48 42h148v-7z" />
    <glyph glyph-name="Sacute" unicode="&#x15a;" horiz-adv-x="666" 
d="M502 506l98 125q-106 83 -262 83q-122 0 -207.5 -54t-85.5 -158q0 -63 22 -106.5t64.5 -67.5t88.5 -35.5t110 -17.5q117 -11 117 -64q0 -29 -30 -45.5t-80 -16.5q-124 0 -205 79l-109 -125q69 -73 140 -98.5t173 -24.5q82 1 149.5 23.5t112.5 75.5t45 129q0 58 -24 101.5
t-66.5 69.5t-89.5 40.5t-104 20.5q-62 6 -89 17.5t-27 44.5q0 26 27.5 39t67.5 13q100 0 164 -48zM504 929v-8l-108 -157h-160v6l76 159h192z" />
    <glyph glyph-name="sacute" unicode="&#x15b;" horiz-adv-x="511" 
d="M19 52l60 134q77 -50 175 -55q50 0 50 24q0 23 -52 27q-39 1 -74 10t-67.5 27t-51.5 50t-19 75q0 83 65.5 122.5t162.5 39.5q122 0 202 -60l-78 -110q-20 13 -57 22t-67 8q-44 0 -44 -24q0 -23 37 -24q227 -7 227 -163q0 -58 -33.5 -97t-83.5 -55t-113 -16
q-66 0 -132 17.5t-107 47.5zM428 709v-7l-100 -146h-148v5l70 148h178z" />
    <glyph glyph-name="Scircumflex" unicode="&#x15c;" horiz-adv-x="666" 
d="M502 506l98 125q-106 83 -262 83q-122 0 -207.5 -54t-85.5 -158q0 -63 22 -106.5t64.5 -67.5t88.5 -35.5t110 -17.5q117 -11 117 -64q0 -29 -30 -45.5t-80 -16.5q-124 0 -205 79l-109 -125q69 -73 140 -98.5t173 -24.5q82 1 149.5 23.5t112.5 75.5t45 129q0 58 -24 101.5
t-66.5 69.5t-89.5 40.5t-104 20.5q-62 6 -89 17.5t-27 44.5q0 26 27.5 39t67.5 13q100 0 164 -48zM290 921h114l152 -157v-8h-158l-51 47l-51 -47h-158v8z" />
    <glyph glyph-name="scircumflex" unicode="&#x15d;" horiz-adv-x="511" 
d="M19 52l60 134q77 -50 175 -55q50 0 50 24q0 23 -52 27q-39 1 -74 10t-67.5 27t-51.5 50t-19 75q0 83 65.5 122.5t162.5 39.5q122 0 202 -60l-78 -110q-20 13 -57 22t-67 8q-44 0 -44 -24q0 -23 37 -24q227 -7 227 -163q0 -58 -33.5 -97t-83.5 -55t-113 -16
q-66 0 -132 17.5t-107 47.5zM218 708h109l145 -153v-8h-151l-49 46l-48 -46h-151v8z" />
    <glyph glyph-name="Scedilla" unicode="&#x15e;" horiz-adv-x="668" 
d="M601 631l-98 -125q-64 48 -164 48q-40 0 -67.5 -13t-27.5 -39q0 -33 27 -44.5t89 -17.5q57 -6 104 -20.5t89.5 -40.5t66.5 -69.5t24 -101.5q0 -100 -72 -156.5t-183 -68.5l-10 -28q67 -7 94 -46t11 -91q-19 -58 -81.5 -83t-130.5 -11t-104 58l67 68q26 -23 64 -26t50 25
q7 25 -27.5 36.5t-62.5 -5.5l-29 20l33 83q-137 12 -239 120l109 125q81 -79 205 -79q50 0 80 16.5t30 45.5q0 53 -117 64q-64 6 -110 17.5t-88.5 35.5t-64.5 67.5t-22 106.5q0 104 85.5 158t207.5 54q156 0 262 -83z" />
    <glyph glyph-name="scedilla" unicode="&#x15f;" horiz-adv-x="513" 
d="M20 52l60 134q77 -50 175 -55q50 0 50 24q0 23 -52 27q-39 1 -74 10t-67.5 27t-51.5 50t-19 75q0 83 65.5 122.5t162.5 39.5q122 0 202 -60l-78 -110q-20 13 -57 22t-67 8q-44 0 -44 -24q0 -23 37 -24q227 -7 227 -163q0 -73 -49 -113.5t-127 -50.5l-14 -36
q61 -5 87 -42.5t10 -85.5q-19 -53 -76 -75t-118.5 -8t-93.5 54l60 62q22 -20 58.5 -23.5t46.5 20.5q6 23 -25.5 34t-56.5 -5l-28 19l36 86q-115 14 -179 61z" />
    <glyph glyph-name="Scaron" unicode="&#x160;" horiz-adv-x="666" 
d="M502 506l98 125q-106 83 -262 83q-122 0 -207.5 -54t-85.5 -158q0 -63 22 -106.5t64.5 -67.5t88.5 -35.5t110 -17.5q117 -11 117 -64q0 -29 -30 -45.5t-80 -16.5q-124 0 -205 79l-109 -125q69 -73 140 -98.5t173 -24.5q82 1 149.5 23.5t112.5 75.5t45 129q0 58 -24 101.5
t-66.5 69.5t-89.5 40.5t-104 20.5q-62 6 -89 17.5t-27 44.5q0 26 27.5 39t67.5 13q100 0 164 -48zM402 762h-115l-154 150v7h160l51 -44l52 44h160v-7z" />
    <glyph glyph-name="scaron" unicode="&#x161;" horiz-adv-x="511" 
d="M19 52l60 134q77 -50 175 -55q50 0 50 24q0 23 -52 27q-39 1 -74 10t-67.5 27t-51.5 50t-19 75q0 83 65.5 122.5t162.5 39.5q122 0 202 -60l-78 -110q-20 13 -57 22t-67 8q-44 0 -44 -24q0 -23 37 -24q227 -7 227 -163q0 -58 -33.5 -97t-83.5 -55t-113 -16
q-66 0 -132 17.5t-107 47.5zM324 552h-103l-139 143v7h144l46 -42l47 42h143v-7z" />
    <glyph glyph-name="Tcommaaccent" unicode="&#x162;" horiz-adv-x="636" 
d="M141 -211l63 66q24 -24 66.5 -27.5t52.5 25.5q8 30 -30.5 41t-65.5 -8l-28 21l21 93l-1 537h-204v163h606v-163h-205v-537h-56l-9 -36q64 -7 90.5 -48.5t9.5 -94.5q-19 -59 -82 -84.5t-129.5 -10t-98.5 62.5z" />
    <glyph glyph-name="tcommaaccent" unicode="&#x163;" horiz-adv-x="434" 
d="M99 614l183 20v-143h111v-141h-112v-162q1 -48 49 -48q28 0 54 17l40 -136q-54 -30 -127 -33l-13 -32q64 -7 90.5 -44.5t9.5 -85.5q-21 -57 -80 -79.5t-122 -7.5t-99 58l64 60q24 -22 60.5 -25t47.5 23q7 24 -26 35t-59 -5l-28 19l43 103q-89 44 -86 181v162h-79v141h79
v123z" />
    <glyph glyph-name="Tcaron" unicode="&#x164;" horiz-adv-x="636" 
d="M219 537v-537h197v537h205v163h-606v-163h204zM378 751h-114l-152 157v8h158l51 -47l51 47h158v-8z" />
    <glyph glyph-name="tcaron" unicode="&#x165;" horiz-adv-x="528" 
d="M98 614l183 20v-143h86v-141h-87v-162q1 -48 49 -48q29 0 54 17l40 -136q-58 -33 -142 -33q-83 0 -134 46t-49 154v162h-79v141h79v123zM393 417l45 231h158l-80 -231h-123z" />
    <glyph glyph-name="Tbar" unicode="&#x166;" horiz-adv-x="645" 
d="M108 272v141h115v122h-204v165h606v-165h-205v-122h120v-141h-120v-272h-197v272h-115z" />
    <glyph glyph-name="tbar" unicode="&#x167;" horiz-adv-x="431" 
d="M37 201v102h60v47h-79v141h79v123l183 20v-143h111v-141h-112v-47h82v-102h-82v-13q1 -48 49 -48q28 0 54 17l40 -136q-58 -33 -142 -33q-83 0 -134 46t-49 154v13h-60z" />
    <glyph glyph-name="Utilde" unicode="&#x168;" horiz-adv-x="780" 
d="M523 699h197v-391q1 -154 -87 -238.5t-243 -84.5q-156 0 -243 83.5t-87 241.5v389h197v-389q0 -80 35 -118t98 -38q62 0 97.5 38.5t35.5 115.5v391zM378 775q-76 46 -102 -15l-97 69q24 71 88 93t119 -14q31 -21 58 -18.5t45 36.5l94 -68q-26 -74 -81 -97t-124 14z" />
    <glyph glyph-name="utilde" unicode="&#x169;" 
d="M48 494h184v-273q0 -42 20 -62t49 -20q36 0 60.5 23t24.5 69v263h182v-494h-163l-8 54q-58 -68 -156 -66q-87 1 -140 55t-53 177v274zM309 573q-75 47 -100 -16l-96 71q24 74 87 96t118 -15q69 -43 101 19l92 -69q-25 -77 -79 -101t-123 15z" />
    <glyph glyph-name="Umacron" unicode="&#x16a;" horiz-adv-x="780" 
d="M523 699h197v-391q1 -154 -87 -238.5t-243 -84.5q-156 0 -243 83.5t-87 241.5v389h197v-389q0 -80 35 -118t98 -38q62 0 97.5 38.5t35.5 115.5v391zM225 759v147h333v-147h-333z" />
    <glyph glyph-name="umacron" unicode="&#x16b;" 
d="M48 494h184v-273q0 -42 20 -62t49 -20q36 0 60.5 23t24.5 69v263h182v-494h-163l-8 54q-58 -68 -156 -66q-87 1 -140 55t-53 177v274zM154 570v139h311v-139h-311z" />
    <glyph glyph-name="Ubreve" unicode="&#x16c;" horiz-adv-x="780" 
d="M523 699h197v-391q1 -154 -87 -238.5t-243 -84.5q-156 0 -243 83.5t-87 241.5v389h197v-389q0 -80 35 -118t98 -38q62 0 97.5 38.5t35.5 115.5v391zM204 918h145q0 -24 15.5 -33t30.5 -9q8 0 17 2.5t18.5 12.5t9.5 27h145q2 -76 -50.5 -120.5t-139.5 -44.5
q-88 0 -140.5 44.5t-50.5 120.5z" />
    <glyph glyph-name="ubreve" unicode="&#x16d;" 
d="M48 494h184v-273q0 -42 20 -62t49 -20q36 0 60.5 23t24.5 69v263h182v-494h-163l-8 54q-58 -68 -156 -66q-87 1 -140 55t-53 177v274zM132 708h140q0 -24 14.5 -33t29.5 -9q8 0 16.5 2.5t17.5 12.5t9 27h140q2 -74 -48.5 -117t-134.5 -43q-85 0 -135.5 42.5t-48.5 117.5z
" />
    <glyph glyph-name="Uring" unicode="&#x16e;" horiz-adv-x="780" 
d="M523 699h197v-391q1 -154 -87 -238.5t-243 -84.5q-156 0 -243 83.5t-87 241.5v389h197v-389q0 -80 35 -118t98 -38q62 0 97.5 38.5t35.5 115.5v391zM396 991q69 0 108.5 -39t40 -86.5t-39 -86.5t-109.5 -39q-46 0 -79.5 18.5t-49 46.5t-15.5 60.5t15 60.5t49 46.5
t80 18.5zM398 901q-26 0 -36 -17.5t0 -35t36 -17.5q25 0 35.5 17.5t0 35t-35.5 17.5z" />
    <glyph glyph-name="uring" unicode="&#x16f;" 
d="M48 494h184v-273q0 -42 20 -62t49 -20q36 0 60.5 23t24.5 69v263h182v-494h-163l-8 54q-58 -68 -156 -66q-87 1 -140 55t-53 177v274zM314 763q53 0 89 -23.5t45 -57t0.5 -67t-44.5 -57t-90 -23.5q-64 0 -101 35.5t-37 78.5t36.5 78.5t101.5 35.5zM316 681
q-25 0 -35 -15.5t0 -31.5t35 -16q24 0 33.5 16t0 31.5t-33.5 15.5z" />
    <glyph glyph-name="Uhungarumlaut" unicode="&#x170;" horiz-adv-x="780" 
d="M720 699h-197v-391q0 -77 -35.5 -115.5t-97.5 -38.5q-63 0 -98 38t-35 118v389h-197v-389q0 -158 87 -241.5t243 -83.5q155 0 243 84.5t87 238.5v391zM286 909h166v-8l-101 -152h-162zM508 909h166v-8l-101 -152h-162z" />
    <glyph glyph-name="uhungarumlaut" unicode="&#x171;" 
d="M232 494h-184v-274q0 -123 53 -177t140 -55q98 -2 156 66l8 -54h163v494h-182v-263q0 -46 -24.5 -69t-60.5 -23q-29 0 -49 20t-20 62v273zM210 700h160v-7l-97 -137h-156zM424 700h160v-7l-97 -137h-156z" />
    <glyph glyph-name="Uogonek" unicode="&#x172;" horiz-adv-x="784" 
d="M525 699h197v-391q1 -116 -50 -193.5t-145 -109.5l-6 -2q-2 0 -6 -2q-36 -12 -29 -42q7 -23 36 -25.5t59 14.5l74 -97q-47 -34 -109 -48t-119 0t-81 60q-17 32 -10.5 67t32.5 56q-145 6 -225.5 89t-80.5 235v389h197v-389q0 -80 35 -118t98 -38q62 0 97.5 38.5
t35.5 115.5v391z" />
    <glyph glyph-name="uogonek" unicode="&#x173;" 
d="M48 494h184v-273q0 -42 20 -62t49 -20q36 0 60.5 23t24.5 69v263h182v-530q-43 11 -70 -4.5t-22 -38.5q3 -15 23 -19t54 9l56 -77q-38 -30 -96.5 -37.5t-108.5 14.5t-60 72q-8 39 9.5 72t52.5 48l-9 54q-30 -35 -72 -52.5t-84 -16.5q-87 1 -140 55t-53 177v274z" />
    <glyph glyph-name="Wcircumflex" unicode="&#x174;" horiz-adv-x="1066" 
d="M817 1l255 699h-216l-84 -241q-24 -86 -39 -167l-133 408h-137l-129 -408q-22 116 -37 162l-90 246h-216l261 -699h160l120 335l124 -335h161zM475 941h124l165 -170v-8h-172l-55 51l-56 -51h-172v8z" />
    <glyph glyph-name="wcircumflex" unicode="&#x175;" horiz-adv-x="836" 
d="M474 494h-111l-87 -275l-38 139l-47 136h-192l180 -497h171l68 187l69 -187h169l181 497h-193l-46 -135l-37 -140zM360 719h115l155 -156v-8h-161l-52 47l-51 -47h-161v8z" />
    <glyph glyph-name="Ycircumflex" unicode="&#x176;" horiz-adv-x="722" 
d="M362 460l-145 240h-223v-8l266 -413v-279h198v279l278 412v9h-223zM302 918h118l158 -155v-7h-164l-53 46l-52 -46h-164v7z" />
    <glyph glyph-name="ycircumflex" unicode="&#x177;" horiz-adv-x="582" 
d="M591 494h-197l-46 -117l-60 -172l-54 171l-42 118h-195l196 -472l-100 -231h192zM227 720h126l170 -163v-9h-176l-57 49l-57 -49h-175v9z" />
    <glyph glyph-name="Ydieresis" unicode="&#x178;" horiz-adv-x="722" 
d="M125 847q0 40 27.5 63t65.5 23t66.5 -23t28.5 -63q0 -38 -28.5 -60.5t-66.5 -22.5t-65.5 22.5t-27.5 60.5zM415 847q0 40 28 63t67 23q37 0 65.5 -23t28.5 -63q0 -38 -28.5 -60.5t-65.5 -22.5q-39 0 -67 22.5t-28 60.5zM362 460l-145 240h-223v-8l266 -413v-279h198v279
l278 412v9h-223z" />
    <glyph glyph-name="Zacute" unicode="&#x179;" horiz-adv-x="643" 
d="M42 700v-160h296l-313 -478v-62h586v171h-314l306 473v56h-561zM504 928v-8l-109 -159h-161v6l77 161h193z" />
    <glyph glyph-name="zacute" unicode="&#x17a;" horiz-adv-x="495" 
d="M455 494h-413v-146h178l-197 -291v-57h441v158h-197l188 274v62zM419 700v-7l-102 -138h-149v5l71 140h180z" />
    <glyph glyph-name="Zdotaccent" unicode="&#x17b;" horiz-adv-x="643" 
d="M42 700v-160h296l-313 -478v-62h586v171h-314l306 473v56h-561zM222 850q0 43 32 67t76 24t76 -24t32 -67t-32 -67t-76 -24t-76 24t-32 67z" />
    <glyph glyph-name="zdotaccent" unicode="&#x17c;" horiz-adv-x="495" 
d="M455 494h-413v-146h178l-197 -291v-57h441v158h-197l188 274v62zM158 632q0 38 27.5 58.5t66.5 20.5q38 0 66 -21t28 -58t-28.5 -58t-65.5 -21q-39 0 -66.5 21t-27.5 58z" />
    <glyph glyph-name="Zcaron" unicode="&#x17d;" horiz-adv-x="643" 
d="M42 700v-160h296l-313 -478v-62h586v171h-314l306 473v56h-561zM394 760h-114l-152 157v8h158l51 -47l51 47h158v-8z" />
    <glyph glyph-name="zcaron" unicode="&#x17e;" horiz-adv-x="495" 
d="M455 494h-413v-146h178l-197 -291v-57h441v158h-197l188 274v62zM312 547h-107l-143 142v7h148l48 -43l48 43h149v-7z" />
    <glyph glyph-name="longs" unicode="&#x17f;" horiz-adv-x="360" 
d="M286 0h-184v343h-84v142h84v24q0 101 63.5 151.5t149.5 50.5q93 0 149 -54l-56 -111q-28 24 -67 24q-24 0 -39.5 -15.5t-15.5 -45.5v-509z" />
    <glyph glyph-name="florin" unicode="&#x192;" horiz-adv-x="525" 
d="M464 337h-128v-338q0 -79 -38 -131.5t-92.5 -68.5t-115.5 -4t-107 51l56 111q28 -24 58 -24q24 0 39.5 16t15.5 49v339h-109v142h109v30q0 101 63.5 151.5t149.5 50.5q93 0 149 -54l-56 -111q-28 24 -67 24q-24 0 -39.5 -15.5t-15.5 -45.5v-30h128v-142z" />
    <glyph glyph-name="Aringacute" unicode="&#x1fa;" horiz-adv-x="797" 
d="M399 853q-54 0 -92.5 -21t-53 -51.5t-9 -66t32.5 -64.5l-292 -650h210l46 115h313l46 -115h212l-290 648q30 28 36 64t-9.5 67t-55 52.5t-94.5 21.5zM398 530l48 -146l41 -103h-179l41 103zM401 751q28 0 39.5 -18.5t0 -36.5t-39.5 -18q-29 0 -41 18t0 36.5t41 18.5z
M600 990v-6l-114 -107h-168v4l81 109h201z" />
    <glyph glyph-name="aringacute" unicode="&#x1fb;" horiz-adv-x="648" 
d="M421 494l-9 -53q-42 64 -145 64q-107 0 -173.5 -73.5t-66.5 -184.5q0 -110 59.5 -179.5t166.5 -76.5q45 -2 89 13t74 49l8 -53h170v494h-173zM309 356q48 0 75 -29.5t27 -79.5q0 -45 -28.5 -76.5t-73.5 -31.5q-43 0 -71 29t-28 79t28 79.5t71 29.5zM324 750
q-52 0 -87.5 -22t-44 -53.5t0 -63t44 -53.5t87.5 -22q54 0 90 22t44.5 53.5t-0.5 63t-45 53.5t-89 22zM326 673q24 0 33.5 -15t0 -30t-33.5 -15q-25 0 -35 15t0 30t35 15zM509 891v-6l-104 -109h-153v4l73 111h184z" />
    <glyph glyph-name="AEacute" unicode="&#x1fc;" horiz-adv-x="925" 
d="M-26 11v-11h199l63 105h208v-105h440v157h-258v122h226v153h-226v110h243v158h-480zM444 278h-109l124 240l-12 -124zM750 907v-7l-112 -150h-166v6l79 151h199z" />
    <glyph glyph-name="aeacute" unicode="&#x1fd;" horiz-adv-x="946" 
d="M643 695v-7l-95 -146h-141v6l68 147h168zM315 356q49 0 76.5 -30t27.5 -84q0 -46 -29 -74.5t-75 -28.5q-43 0 -71 29t-28 79t28 79.5t71 29.5zM755 313h-182q6 38 50 53t87 -0.5t45 -52.5zM572 195h338q31 140 -37.5 223.5t-184.5 84.5q-85 2 -148 -50l-3 41h-116l-9 -53
q-42 64 -145 64q-107 0 -173.5 -73.5t-66.5 -184.5q0 -110 59.5 -179.5t166.5 -76.5q45 -2 89 13t74 49l8 -53h113l3 45q43 -56 137 -56q137 0 225 82l-90 101q-53 -40 -127 -40q-35 0 -69.5 16.5t-43.5 46.5z" />
    <glyph glyph-name="Oslashacute" unicode="&#x1fe;" horiz-adv-x="842" 
d="M619 943v-8l-109 -159h-161v6l77 161h193zM783 769h-173l-47 -72q-66 20 -142 20q-174 0 -281.5 -98.5t-107.5 -268.5q0 -185 124 -285l-90 -139h171l48 74q65 -17 136 -17q176 0 282.5 97.5t106.5 269.5q0 180 -118 279zM421 548q16 0 44 -4l-202 -312q-33 50 -33 118
q0 87 53 142.5t138 55.5zM612 350q0 -88 -52.5 -143t-138.5 -55q-18 0 -36 3l199 307q28 -48 28 -112z" />
    <glyph glyph-name="oslashacute" unicode="&#x1ff;" horiz-adv-x="619" 
d="M476 712v-7l-98 -129h-147v5l70 131h175zM310 139q-47 0 -72.5 30t-25.5 77t25.5 77.5t72.5 30.5t72.5 -30.5t25.5 -77.5t-25.5 -77t-72.5 -30zM310 505q-119 0 -200.5 -64.5t-81.5 -194.5q0 -131 88 -199l-65 -107h171l31 52q38 -4 57 -4q54 0 103 14.5t90 44t65 81
t24 118.5q0 130 -85 199l67 110h-170l-33 -55q-33 5 -61 5z" />
    <glyph glyph-name="Scommaaccent" unicode="&#x218;" horiz-adv-x="666" 
d="M600 631l-98 -125q-64 48 -164 48q-40 0 -67.5 -13t-27.5 -39q0 -33 27 -44.5t89 -17.5q57 -6 104 -20.5t89.5 -40.5t66.5 -69.5t24 -101.5q0 -76 -45 -129t-112.5 -75.5t-149.5 -23.5q-102 -1 -173 24.5t-140 98.5l109 125q81 -79 205 -79q50 0 80 16.5t30 45.5
q0 53 -117 64q-64 6 -110 17.5t-88.5 35.5t-64.5 67.5t-22 106.5q0 104 85.5 158t207.5 54q156 0 262 -83zM434 -142q0 -48 -63 -163h-104l23 99q-57 10 -57 65q0 36 30.5 57t73.5 21q40 0 68.5 -20.5t28.5 -58.5z" />
    <glyph glyph-name="scommaaccent" unicode="&#x219;" horiz-adv-x="511" 
d="M19 52l60 134q77 -50 175 -55q50 0 50 24q0 23 -52 27q-39 1 -74 10t-67.5 27t-51.5 50t-19 75q0 83 65.5 122.5t162.5 39.5q122 0 202 -60l-78 -110q-20 13 -57 22t-67 8q-44 0 -44 -24q0 -23 37 -24q227 -7 227 -163q0 -58 -33.5 -97t-83.5 -55t-113 -16
q-66 0 -132 17.5t-107 47.5zM343 -132q0 -45 -55 -149h-90l20 91q-50 9 -50 59q0 33 27 52t64 19q35 0 59.5 -19t24.5 -53z" />
    <glyph glyph-name="uni021A" unicode="&#x21a;" horiz-adv-x="636" 
d="M219 0v537h-204v163h606v-163h-205v-537h-197zM403 -125q0 -49 -57 -167h-95l21 102q-53 10 -53 66q0 38 28.5 59t67.5 21q37 0 62.5 -21t25.5 -60z" />
    <glyph glyph-name="uni021B" unicode="&#x21b;" horiz-adv-x="432" 
d="M98 614l183 20v-143h111v-141h-112v-162q1 -48 49 -48q29 0 54 17l40 -136q-58 -33 -142 -33q-83 0 -134 46t-49 154v162h-79v141h79v123zM345 -132q0 -48 -57 -167h-95l21 102q-53 10 -53 66q0 38 28.5 59t67.5 21q37 0 62.5 -21t25.5 -60z" />
    <glyph glyph-name="dotlessj" unicode="&#x237;" horiz-adv-x="292" 
d="M-70 -201l35 129q41 -23 65 -10t24 59v509h184v-509q0 -70 -26 -119.5t-68.5 -71t-98.5 -19t-115 31.5z" />
    <glyph glyph-name="circumflex" unicode="&#x2c6;" horiz-adv-x="451" 
d="M157 706h114l152 -157v-8h-158l-51 47l-51 -47h-158v8z" />
    <glyph glyph-name="caron" unicode="&#x2c7;" horiz-adv-x="446" 
d="M283 534h-114l-152 157v8h158l51 -47l51 47h158v-8z" />
    <glyph glyph-name="breve" unicode="&#x2d8;" horiz-adv-x="406" 
d="M29 700h134q0 -18 9 -28.5t17 -13t16 -2.5t16 2.5t17 13t9 28.5h134q2 -79 -46.5 -124.5t-129.5 -45.5t-129.5 45.5t-46.5 124.5z" />
    <glyph glyph-name="dotaccent" unicode="&#x2d9;" horiz-adv-x="276" 
d="M36 610q0 42 30 65.5t71 23.5t71 -23.5t30 -65.5t-30 -65.5t-71 -23.5t-71 23.5t-30 65.5z" />
    <glyph glyph-name="ring" unicode="&#x2da;" horiz-adv-x="427" 
d="M208 706q74 0 116 -43.5t42.5 -96t-41.5 -96t-117 -43.5q-73 0 -114 43.5t-41.5 96t41 96t114.5 43.5zM210 606q-27 0 -38.5 -19.5t0 -39t38.5 -19.5t38 19.5t-0.5 39t-37.5 19.5z" />
    <glyph glyph-name="ogonek" unicode="&#x2db;" horiz-adv-x="390" 
d="M251 -126l59 -75q-34 -31 -92 -38t-108.5 16.5t-60.5 73.5q-13 62 29 104.5t115 42.5q31 0 66 -6l17 -75q-24 6 -51 6q-25 0 -40 -11.5t-11 -28.5q5 -17 34.5 -17.5t42.5 8.5z" />
    <glyph glyph-name="tilde" unicode="&#x2dc;" horiz-adv-x="487" 
d="M236 571q-79 43 -105 -14l-101 64q25 67 91 87.5t124 -13.5q73 -40 107 17l97 -63q-27 -69 -84 -91t-129 13z" />
    <glyph glyph-name="hungarumlaut" unicode="&#x2dd;" horiz-adv-x="530" 
d="M113 700h168v-8l-102 -155h-164zM338 700h168v-8l-102 -155h-164z" />
    <glyph glyph-name="_375" unicode="&#x394;" horiz-adv-x="794" 
d="M785 17v-17h-804v12l303 688h200zM384 502l-140 -343h278z" />
    <glyph glyph-name="_376" unicode="&#x3a9;" horiz-adv-x="826" 
d="M404 555q-83 0 -134 -58t-51 -140q-1 -67 31.5 -121.5t103.5 -71.5v-164h-309v157h93q-52 34 -80 97t-28 121q0 153 100.5 249t273.5 96t274 -96t101 -249q0 -63 -28.5 -125t-83.5 -93h97v-157h-309v164q73 18 106.5 72.5t33.5 121.5q0 87 -51.5 142t-139.5 55z" />
    <glyph glyph-name="pi" unicode="&#x3c0;" horiz-adv-x="702" 
d="M292 0h-183v346h-93v147h653v-147h-93v-186q0 -56 73 -35l16 -124q-40 -10 -76.5 -13t-72 4.5t-61.5 26t-42 53.5t-16 85v189h-105v-346z" />
    <glyph glyph-name="Wgrave" unicode="&#x1e80;" horiz-adv-x="1066" 
d="M1072 700l-255 -699h-161l-124 335l-120 -335h-160l-261 699h216l90 -246q15 -46 37 -162l129 408h137l133 -408q15 81 39 167l84 241h216zM342 911v8h209l83 -149v-6h-174z" />
    <glyph glyph-name="wgrave" unicode="&#x1e81;" horiz-adv-x="836" 
d="M363 494h111l87 -275l37 140l46 135h193l-181 -497h-169l-69 187l-68 -187h-171l-180 497h192l47 -136l38 -139zM247 694v7h189l75 -141v-5h-157z" />
    <glyph glyph-name="Wacute" unicode="&#x1e82;" horiz-adv-x="1066" 
d="M817 1l255 699h-216l-84 -241q-24 -86 -39 -167l-133 408h-137l-129 -408q-22 116 -37 162l-90 246h-216l261 -699h160l120 335l124 -335h161zM735 919v-7l-116 -150h-172v6l82 151h206z" />
    <glyph glyph-name="wacute" unicode="&#x1e83;" horiz-adv-x="836" 
d="M474 494h-111l-87 -275l-38 139l-47 136h-192l180 -497h171l68 187l69 -187h169l181 497h-193l-46 -135l-37 -140zM605 703v-7l-109 -142h-160v5l77 144h192z" />
    <glyph glyph-name="Wdieresis" unicode="&#x1e84;" horiz-adv-x="1066" 
d="M817 1l255 699h-216l-84 -241q-24 -86 -39 -167l-133 408h-137l-129 -408q-22 116 -37 162l-90 246h-216l261 -699h160l120 335l124 -335h161zM294 843q0 40 27.5 63t65.5 23t66.5 -23t28.5 -63q0 -38 -28.5 -60.5t-66.5 -22.5t-65.5 22.5t-27.5 60.5zM584 843
q0 40 28 63t67 23q37 0 65.5 -23t28.5 -63q0 -38 -28.5 -60.5t-65.5 -22.5q-39 0 -67 22.5t-28 60.5z" />
    <glyph glyph-name="wdieresis" unicode="&#x1e85;" horiz-adv-x="836" 
d="M474 494h-111l-87 -275l-38 139l-47 136h-192l180 -497h171l68 187l69 -187h169l181 497h-193l-46 -135l-37 -140zM197 626q0 37 26 58.5t61 21.5t61.5 -21.5t26.5 -58.5q0 -36 -26.5 -57t-61.5 -21t-61 21t-26 57zM466 626q0 37 26.5 58.5t62.5 21.5q34 0 60.5 -21.5
t26.5 -58.5q0 -36 -26.5 -57t-60.5 -21q-36 0 -62.5 21t-26.5 57z" />
    <glyph glyph-name="Ygrave" unicode="&#x1ef2;" horiz-adv-x="722" 
d="M217 700l145 -240l151 240h223v-9l-278 -412v-279h-198v279l-266 413v8h223zM164 911v8h212l85 -155v-5h-177z" />
    <glyph glyph-name="ygrave" unicode="&#x1ef3;" horiz-adv-x="582" 
d="M394 494h197l-306 -703h-192l100 231l-196 472h195l42 -118l54 -171l60 172zM133 699v8h190l76 -157v-6h-159z" />
    <glyph glyph-name="endash" unicode="&#x2013;" horiz-adv-x="607" 
d="M53 210v147h501v-147h-501z" />
    <glyph glyph-name="emdash" unicode="&#x2014;" horiz-adv-x="697" 
d="M54 213v147h589v-147h-589z" />
    <glyph glyph-name="quoteleft" unicode="&#x2018;" horiz-adv-x="293" 
d="M261 701l-51 -259h-177l90 259h138z" />
    <glyph glyph-name="quoteright" unicode="&#x2019;" horiz-adv-x="288" 
d="M41 441l51 259h177l-90 -259h-138z" />
    <glyph glyph-name="quotesinglbase" unicode="&#x201a;" horiz-adv-x="300" 
d="M16 -155l52 256h180l-87 -256h-145z" />
    <glyph glyph-name="quotedblleft" unicode="&#x201c;" horiz-adv-x="503" 
d="M273 700l-70 -253h-170l106 253h134zM470 700l-49 -253h-173l87 253h135z" />
    <glyph glyph-name="quotedblright" unicode="&#x201d;" horiz-adv-x="494" 
d="M240 447l70 253h170l-106 -253h-134zM43 447l49 253h173l-87 -253h-135z" />
    <glyph glyph-name="quotedblbase" unicode="&#x201e;" horiz-adv-x="517" 
d="M16 -155l52 256h176l-83 -256h-145zM237 -155l55 256h173l-85 -256h-143z" />
    <glyph glyph-name="dagger" unicode="&#x2020;" horiz-adv-x="607" 
d="M395 700v-173h179v-157h-179v-462h-184v462h-177v157h177v173h184z" />
    <glyph glyph-name="daggerdbl" unicode="&#x2021;" horiz-adv-x="636" 
d="M409 701v-171h179v-150h-179v-164h179v-148h-179v-170h-182v170h-179v148h179v164h-179v150h179v171h182z" />
    <glyph glyph-name="bullet" unicode="&#x2022;" horiz-adv-x="439" 
d="M220 170q-68 0 -111.5 39t-43.5 102t44 103t111 40q66 0 110 -40t44 -103t-44 -102t-110 -39z" />
    <glyph glyph-name="ellipsis" unicode="&#x2026;" horiz-adv-x="823" 
d="M141 -8q-46 0 -73 28.5t-27 62t26.5 62t73.5 28.5q38 0 64 -18.5t32 -45t0 -53.5t-32 -45.5t-64 -18.5zM411 -8q-46 0 -73 28.5t-27 62t26.5 62t73.5 28.5q38 0 64 -18.5t32 -45t0 -53.5t-32 -45.5t-64 -18.5zM681 -8q-46 0 -73 28.5t-27 62t26.5 62t73.5 28.5
q38 0 64 -18.5t32 -45t0 -53.5t-32 -45.5t-64 -18.5z" />
    <glyph glyph-name="perthousand" unicode="&#x2030;" horiz-adv-x="1304" 
d="M212 710q87 0 133 -49.5t46 -118.5q0 -70 -46 -118.5t-133 -48.5t-132.5 48.5t-45.5 118.5q0 69 45.5 118.5t132.5 49.5zM589 699h180l-458 -699h-183zM212 498q23 0 35 13t12 31t-12 31t-35 13t-35 -13t-12 -31t12 -31t35 -13zM689 327q87 0 133 -49.5t46 -118.5
q0 -70 -46 -118.5t-133 -48.5t-132.5 48.5t-45.5 118.5q0 69 45.5 118.5t132.5 49.5zM689 115q23 0 35 13t12 31t-12 31t-35 13t-35 -13t-12 -31t12 -31t35 -13zM1094 327q87 0 133 -49.5t46 -118.5q0 -70 -46 -118.5t-133 -48.5t-132.5 48.5t-45.5 118.5q0 69 45.5 118.5
t132.5 49.5zM1094 115q23 0 35 13t12 31t-12 31t-35 13t-35 -13t-12 -31t12 -31t35 -13z" />
    <glyph glyph-name="guilsinglleft" unicode="&#x2039;" horiz-adv-x="394" 
d="M29 292l140 224l193 1l-139 -224l140 -225h-194z" />
    <glyph glyph-name="guilsinglright" unicode="&#x203a;" horiz-adv-x="392" 
d="M225 520l139 -223l-139 -223h-194l138 222l-138 224h194z" />
    <glyph glyph-name="fraction" unicode="&#x2044;" horiz-adv-x="180" 
d="M201 696h162l-385 -701h-162z" />
    <glyph glyph-name="zerosuperior" unicode="&#x2070;" horiz-adv-x="407" 
d="M139 655v-55q0 -30 19 -46.5t45 -16.5t45.5 16.5t19.5 46.5v55q0 31 -19.5 48t-45.5 17t-45 -17t-19 -48zM33 603v53q0 78 50.5 121t120.5 43q69 0 119.5 -43t50.5 -121v-53q0 -79 -51 -124t-119 -45q-70 0 -120.5 45t-50.5 124z" />
    <glyph glyph-name="foursuperior" unicode="&#x2074;" horiz-adv-x="399" 
d="M186 813h135v-219h44v-93h-44v-60h-107v60h-190l-4 91zM214 594v105l-80 -105h80z" />
    <glyph glyph-name="fivesuperior" unicode="&#x2075;" horiz-adv-x="381" 
d="M328 814v-94h-180v-33h48q156 0 156 -125q0 -68 -45.5 -100.5t-105.5 -32.5q-70 0 -114.5 32.5t-45.5 99.5h109q2 -18 14.5 -28t28.5 -10q19 0 34 10.5t15 28.5q0 16 -13.5 25t-32.5 9h-150v218h282z" />
    <glyph glyph-name="sixsuperior" unicode="&#x2076;" horiz-adv-x="385" 
d="M244 565q0 16 -14.5 24.5t-34.5 8.5q-21 0 -35.5 -8.5t-13.5 -24.5q0 -16 14 -24.5t34 -8.5t35 9t15 24zM345 703h-101q-5 30 -46 30q-21 0 -36.5 -8t-15.5 -22v-32q31 16 70 16q55 0 96.5 -31.5t41.5 -90.5q0 -66 -46.5 -96.5t-112.5 -30.5q-63 0 -110 34t-47 94v137
q0 57 46 88t110 31q65 0 106.5 -29t44.5 -90z" />
    <glyph glyph-name="sevensuperior" unicode="&#x2077;" horiz-adv-x="329" 
d="M167 441h-121l130 272h-150v100h287l4 -47z" />
    <glyph glyph-name="eightsuperior" unicode="&#x2078;" horiz-adv-x="392" 
d="M140 557q-1 -12 13.5 -24t44.5 -12q29 0 43 11t13 25q0 13 -16 23t-39 10q-25 0 -42 -9t-17 -24zM30 558q0 18 13.5 40t35.5 36q-38 28 -38 68q0 57 43 88.5t111 31.5q67 0 112 -31.5t45 -87.5q0 -44 -38 -66q22 -15 35 -37t13 -43q1 -66 -47 -97t-120 -29
q-72 0 -119.5 30.5t-45.5 96.5zM198 671q22 0 33.5 9t11.5 21t-12.5 21.5t-33.5 9.5q-22 0 -34.5 -9t-12.5 -21q0 -13 12.5 -22t35.5 -9z" />
    <glyph glyph-name="ninesuperior" unicode="&#x2079;" horiz-adv-x="384" 
d="M142 694q0 -33 49 -33q20 0 35 8t14 25q0 15 -14.5 23.5t-33.5 8.5q-21 0 -35.5 -8.5t-14.5 -23.5zM36 556h103q2 -15 16 -23t32 -8q21 0 37 8.5t16 22.5v31q-31 -16 -70 -16q-55 0 -96.5 32t-41.5 91q0 61 48 93.5t111 32.5t110 -34t47 -93v-137q0 -58 -46.5 -90
t-109.5 -32q-69 0 -111.5 29.5t-44.5 92.5z" />
    <glyph glyph-name="zeroinferior" unicode="&#x2080;" horiz-adv-x="407" 
d="M139 136v-55q0 -30 19 -46.5t45 -16.5t45.5 16.5t19.5 46.5v55q0 31 -19.5 48t-45.5 17t-45 -17t-19 -48zM33 84v53q0 78 50.5 121t120.5 43q69 0 119.5 -43t50.5 -121v-53q0 -79 -51 -124t-119 -45q-70 0 -120.5 45t-50.5 124z" />
    <glyph glyph-name="oneinferior" unicode="&#x2081;" horiz-adv-x="286" 
d="M33 -78v91h61v162q-7 -1 -25.5 -5.5t-25.5 -5.5v92l158 42v-285h63v-91h-231z" />
    <glyph glyph-name="twoinferior" unicode="&#x2082;" horiz-adv-x="379" 
d="M142 180h-105q1 57 45.5 90.5t104.5 33.5q70 0 113.5 -32t43.5 -93q0 -32 -12 -55t-36.5 -36.5t-42.5 -19.5t-49 -13q-61 -13 -66 -29h203v-104h-306v99q0 31 11 53t34 35t39.5 19t46.5 13q24 5 35.5 8.5t22 11t10.5 18.5q0 14 -13 21.5t-31 7.5q-17 0 -31 -7.5
t-17 -20.5z" />
    <glyph glyph-name="threeinferior" unicode="&#x2083;" horiz-adv-x="382" 
d="M189 73h-62v83h58q50 0 50 30q0 27 -50 29q-20 1 -36 -7t-19 -22h-96q0 59 46.5 89.5t106.5 30.5t108 -32t48 -89q0 -45 -39 -70q21 -11 34 -33t13 -47q0 -35 -15 -59.5t-40 -37t-51.5 -18t-56.5 -5.5q-61 0 -110.5 32t-50.5 93h112q4 -28 48 -28q21 0 36 8t15 24
q0 29 -49 29z" />
    <glyph glyph-name="fourinferior" unicode="&#x2084;" horiz-adv-x="399" 
d="M186 294h135v-219h44v-93h-44v-60h-107v60h-190l-4 91zM214 75v105l-80 -105h80z" />
    <glyph glyph-name="fiveinferior" unicode="&#x2085;" horiz-adv-x="383" 
d="M330 301v-94h-180v-33h48q156 0 156 -125q0 -68 -45.5 -100.5t-105.5 -32.5q-70 0 -114.5 32.5t-45.5 99.5h109q2 -18 14.5 -28t28.5 -10q19 0 34 10.5t15 28.5q0 16 -13.5 25t-32.5 9h-150v218h282z" />
    <glyph glyph-name="sixinferior" unicode="&#x2086;" horiz-adv-x="385" 
d="M244 44q0 16 -14.5 24.5t-34.5 8.5q-21 0 -35.5 -8.5t-13.5 -24.5q0 -16 14 -24.5t34 -8.5t35 9t15 24zM345 182h-101q-2 14 -15 22t-31 8q-21 0 -36.5 -8t-15.5 -22v-32q31 16 70 16q55 0 96.5 -31.5t41.5 -90.5q0 -66 -46.5 -96.5t-112.5 -30.5q-63 0 -110 34t-47 94
v137q0 57 46 88t110 31q65 0 106.5 -29t44.5 -90z" />
    <glyph glyph-name="seveninferior" unicode="&#x2087;" horiz-adv-x="329" 
d="M167 -78h-121l130 272h-150v100h287l4 -47z" />
    <glyph glyph-name="eightinferior" unicode="&#x2088;" horiz-adv-x="392" 
d="M140 41q-1 -12 13.5 -24t44.5 -12q29 0 43 11t13 25q0 13 -16 23t-39 10q-25 0 -42 -9t-17 -24zM30 42q0 18 13.5 40t35.5 36q-38 28 -38 68q0 57 43 88.5t111 31.5q67 0 112 -31.5t45 -87.5q0 -44 -38 -66q22 -15 35 -37t13 -43q1 -66 -47 -97t-120 -29
q-72 0 -119.5 30.5t-45.5 96.5zM198 155q22 0 33.5 9t11.5 21t-12.5 21.5t-33.5 9.5q-22 0 -34.5 -9t-12.5 -21q0 -13 12.5 -22t35.5 -9z" />
    <glyph glyph-name="nineinferior" unicode="&#x2089;" horiz-adv-x="386" 
d="M142 177q0 -33 49 -33q20 0 35 8t14 25q0 15 -14.5 23.5t-33.5 8.5q-21 0 -35.5 -8.5t-14.5 -23.5zM36 39h103q2 -15 16 -23t32 -8q21 0 37 8.5t16 22.5v31q-31 -16 -70 -16q-55 0 -96.5 32t-41.5 91q0 61 48 93.5t111 32.5t110 -34t47 -93v-137q0 -58 -46.5 -90
t-109.5 -32q-69 0 -111.5 29.5t-44.5 92.5z" />
    <glyph glyph-name="Euro" unicode="&#x20ac;" horiz-adv-x="645" 
d="M43 199v121h55v50h-55v117h83q26 73 80.5 124t120.5 73t138.5 21t136.5 -26l-48 -141q-61 27 -125 16.5t-97 -67.5h181l-29 -117h-199q-1 -25 0 -50h188l-26 -121h-113q38 -42 107 -56t122 7l48 -144q-67 -21 -140 -21q-135 0 -224.5 56t-125.5 158h-78z" />
    <glyph glyph-name="afii61289" unicode="&#x2113;" horiz-adv-x="410" 
d="M231 239v-86q0 -25 15.5 -39t41.5 -14q14 0 65 14v-97q-63 -21 -110 -21q-141 0 -154 143q-37 -19 -41 -20l-22 75q43 18 61 28v308q0 94 37 133t133 39q131 0 131 -144q0 -28 -3 -54q-16 -136 -154 -265zM228 530v-98q0 -12 -0.5 -28t-0.5 -21v-13q58 85 64 147
q4 26 4 45q0 62 -36 62q-15 0 -23 -28t-8 -66z" />
    <glyph glyph-name="uni2117" unicode="&#x2117;" horiz-adv-x="801" 
d="M400 717q168 0 265 -105t97 -260t-97 -260t-265 -105q-167 0 -264 105t-97 260t97 260t264 105zM148 352q2 -117 69 -193t183 -76q117 0 184 76t67 193q0 116 -67 192.5t-184 76.5q-116 0 -183 -76t-69 -193zM374 267h66q39 0 70 14t47 37t23.5 50.5t0 54.5t-23 50
t-46.5 37t-70 14h-170v-356h103v99zM374 430h67q23 0 34 -19t2 -37.5t-35 -18.5h-68v75z" />
    <glyph glyph-name="trademark" unicode="&#x2122;" horiz-adv-x="847" 
d="M271 592v-196h-121v196h-90v108h303v-108h-92zM524 700l69 -87l67 87h119v-305h-120v69l4 72l-57 -79h-28l-57 80l4 -73v-69h-119v305h118z" />
    <glyph glyph-name="Omega" unicode="&#x2126;" horiz-adv-x="842" 
d="M421 555q-83 0 -134 -58t-51 -140q-1 -67 31.5 -121.5t103.5 -71.5v-164h-309v157h93q-52 34 -80 97t-28 121q0 153 100.5 249t273.5 96t274 -96t101 -249q0 -63 -28.5 -125t-83.5 -93h97v-157h-309v164q73 18 106.5 72.5t33.5 121.5q0 87 -51.5 142t-139.5 55z" />
    <glyph glyph-name="estimated" unicode="&#x212e;" horiz-adv-x="633" 
d="M325 -7q-120 0 -198.5 77t-78.5 216q0 140 78 217t198 77q56 0 103 -14.5t86 -45t61 -85t22 -128.5q0 -31 -5 -59h-375v-151q42 -34 109 -34q124 0 185 92l54 -40q-47 -67 -105 -94.5t-134 -27.5zM324 514q-66 0 -108 -31v-162h219v164q-45 29 -111 29z" />
    <glyph glyph-name="onethird" unicode="&#x2153;" horiz-adv-x="852" 
d="M534 701h111l-393 -706h-108zM656 151h-62v83h58q50 0 50 30q0 27 -50 29q-20 1 -36 -7t-19 -22h-96q0 59 46.5 89.5t106.5 30.5t108 -32t48 -89q0 -45 -39 -70q21 -11 34 -33t13 -47q0 -35 -15 -59.5t-40 -37t-51.5 -18t-56.5 -5.5q-61 0 -110.5 32t-50.5 93h112
q4 -28 48 -28q21 0 36 8t15 24q0 29 -49 29zM40 337v91h67v162q-7 -1 -26.5 -5.5t-26.5 -5.5v92l153 42v-285h63v-91h-230z" />
    <glyph glyph-name="twothirds" unicode="&#x2154;" horiz-adv-x="916" 
d="M606 701h111l-393 -706h-108zM721 151h-62v83h58q50 0 50 30q0 27 -50 29q-20 1 -36 -7t-19 -22h-96q0 59 46.5 89.5t106.5 30.5t108 -32t48 -89q0 -45 -39 -70q21 -11 34 -33t13 -47q0 -35 -15 -59.5t-40 -37t-51.5 -18t-56.5 -5.5q-61 0 -110.5 32t-50.5 93h112
q4 -28 48 -28q21 0 36 8t15 24q0 29 -49 29zM148 581h-105q1 57 45.5 90.5t104.5 33.5q70 0 113.5 -32t43.5 -93q0 -25 -9 -44.5t-19 -30.5t-33 -20.5t-33.5 -12.5t-37.5 -9q-5 -1 -8 -2q-32 -6 -46.5 -13t-19.5 -24h203v-101h-306v99q0 25 9 44.5t19.5 30.5t32 20.5
t33.5 13t37 9.5q33 7 50.5 15.5t17.5 24.5q0 14 -13 21.5t-31 7.5q-17 0 -31 -7.5t-17 -20.5z" />
    <glyph glyph-name="oneeighth" unicode="&#x215b;" horiz-adv-x="848" 
d="M534 701h111l-393 -706h-108zM40 337v91h67v162q-7 -1 -26.5 -5.5t-26.5 -5.5v92l153 42v-285h63v-91h-230zM588 119q-1 -13 14.5 -26t48.5 -13q32 0 47 12t14 27q0 14 -17.5 25t-42.5 11q-27 0 -45.5 -9.5t-18.5 -26.5zM483 120q0 18 13.5 40t35.5 36q-38 28 -38 68
q0 57 43 88.5t111 31.5q67 0 112 -31.5t45 -87.5q0 -44 -38 -66q22 -15 35 -37t13 -43q1 -66 -47 -97t-120 -29q-72 0 -119.5 30.5t-45.5 96.5zM651 232q22 0 34.5 9.5t12.5 21.5q0 14 -13 23t-35 9q-23 0 -35.5 -9t-12.5 -22t13 -22.5t36 -9.5z" />
    <glyph glyph-name="threeeighths" unicode="&#x215c;" horiz-adv-x="910" 
d="M596 701h111l-393 -706h-108zM650 119q-1 -13 14.5 -26t48.5 -13q32 0 47 12t14 27q0 14 -17.5 25t-42.5 11q-27 0 -45.5 -9.5t-18.5 -26.5zM545 120q0 18 13.5 40t35.5 36q-38 28 -38 68q0 57 43 88.5t111 31.5q67 0 112 -31.5t45 -87.5q0 -44 -38 -66q22 -15 35 -37
t13 -43q1 -66 -47 -97t-120 -29q-72 0 -119.5 30.5t-45.5 96.5zM713 232q22 0 34.5 9.5t12.5 21.5q0 14 -13 23t-35 9q-23 0 -35.5 -9t-12.5 -22t13 -22.5t36 -9.5zM196 476h-62v83h58q50 0 50 30q0 27 -50 29q-20 1 -36 -7t-19 -22h-96q0 59 46.5 89.5t106.5 30.5t108 -32
t48 -89q0 -44 -39 -70q21 -11 34 -33t13 -47q0 -35 -15 -59.5t-40 -37t-51.5 -18t-56.5 -5.5q-61 0 -110.5 32t-50.5 93h112q4 -28 48 -28q21 0 36 8t15 24q0 29 -49 29z" />
    <glyph glyph-name="fiveeighths" unicode="&#x215d;" horiz-adv-x="900" 
d="M586 701h111l-393 -706h-108zM640 119q-1 -13 14.5 -26t48.5 -13q32 0 47 12t14 27q0 14 -17.5 25t-42.5 11q-27 0 -45.5 -9.5t-18.5 -26.5zM535 120q0 18 13.5 40t35.5 36q-38 28 -38 68q0 57 43 88.5t111 31.5q67 0 112 -31.5t45 -87.5q0 -44 -38 -66q22 -15 35 -37
t13 -43q1 -66 -47 -97t-120 -29q-72 0 -119.5 30.5t-45.5 96.5zM703 232q22 0 34.5 9.5t12.5 21.5q0 14 -13 23t-35 9q-23 0 -35.5 -9t-12.5 -22t13 -22.5t36 -9.5zM325 699v-94h-180v-33h48q156 0 156 -125q0 -68 -45.5 -100.5t-105.5 -32.5q-70 0 -114.5 32.5t-45.5 99.5
h109q2 -18 14.5 -28t28.5 -10q19 0 34 10.5t15 28.5q0 16 -13.5 25t-32.5 9h-150v218h282z" />
    <glyph glyph-name="seveneighths" unicode="&#x215e;" horiz-adv-x="850" 
d="M521 701h111l-393 -706h-108zM590 119q-1 -13 14.5 -26t48.5 -13q32 0 47 12t14 27q0 14 -17.5 25t-42.5 11q-27 0 -45.5 -9.5t-18.5 -26.5zM485 120q0 18 13.5 40t35.5 36q-38 28 -38 68q0 57 43 88.5t111 31.5q67 0 112 -31.5t45 -87.5q0 -44 -38 -66q22 -15 35 -37
t13 -43q1 -66 -47 -97t-120 -29q-72 0 -119.5 30.5t-45.5 96.5zM653 232q22 0 34.5 9.5t12.5 21.5q0 14 -13 23t-35 9q-23 0 -35.5 -9t-12.5 -22t13 -22.5t36 -9.5zM178 328h-121l130 272h-150v100h287l4 -47z" />
    <glyph glyph-name="arrowleft" unicode="&#x2190;" horiz-adv-x="631" 
d="M276 103l-246 245l247 244l82 -76l-102 -103h324v-133h-327l99 -107z" />
    <glyph glyph-name="arrowup" unicode="&#x2191;" horiz-adv-x="547" 
d="M29 390l245 246l244 -247l-77 -82l-103 103v-325h-132v328l-107 -99z" />
    <glyph glyph-name="arrowright" unicode="&#x2192;" horiz-adv-x="631" 
d="M356 593l245 -244l-246 -244l-83 76l102 102h-324v134h328l-100 106z" />
    <glyph glyph-name="arrowdown" unicode="&#x2193;" horiz-adv-x="547" 
d="M517 312l-244 -246l-244 247l75 82l103 -102v324h133v-328l107 100z" />
    <glyph glyph-name="uni2196" unicode="&#x2196;" horiz-adv-x="524" 
d="M58 193v347l346 -2l4 -110l-144 -1l230 -230l-97 -93l-230 230l-5 -145z" />
    <glyph glyph-name="uni2197" unicode="&#x2197;" horiz-adv-x="525" 
d="M118 435l3 103h346q0 -28 -0.5 -87t-0.5 -86v-173l-109 -4q0 13 -0.5 41t-0.5 41v63l-232 -230l-93 97l231 230z" />
    <glyph glyph-name="uni2198" unicode="&#x2198;" horiz-adv-x="556" 
d="M125 150l-4 103l145 5l-231 230l93 97l231 -230v64q0 12 0.5 40t0.5 41l110 -4v-174q0 -27 0.5 -85.5t0.5 -86.5h-346z" />
    <glyph glyph-name="uni2199" unicode="&#x2199;" horiz-adv-x="557" 
d="M436 253l-4 -103h-346v172q0 28 0.5 86.5t0.5 87.5l111 4v-25.5v-30.5v-25v-64l231 230l93 -97l-230 -230z" />
    <glyph glyph-name="partialdiff" unicode="&#x2202;" horiz-adv-x="587" 
d="M382 238q0 40 -18 66.5t-44 32.5t-52.5 -0.5t-44.5 -33t-18 -64.5t18 -64t44.5 -32t52.5 0.5t44 32t18 62.5zM267 482q36 0 56 -8q-28 36 -88 64.5t-104 32.5l28 130q179 -13 288.5 -141t109.5 -310q-1 -116 -71.5 -187t-192.5 -71q-125 0 -195 72.5t-70 173.5
q0 106 63 175t176 69z" />
    <glyph glyph-name="Delta" unicode="&#x2206;" horiz-adv-x="855" 
d="M829 17v-17h-804v12l303 688h200zM428 502l-140 -343h278z" />
    <glyph glyph-name="product" unicode="&#x220f;" horiz-adv-x="696" 
d="M624 -181h-185v724h-178v-724h-189v881h552v-881z" />
    <glyph glyph-name="summation" unicode="&#x2211;" horiz-adv-x="621" 
d="M410 366l-140 -204h302v-162h-529v103l177 265l-168 245v87h514v-154h-271z" />
    <glyph glyph-name="minus" unicode="&#x2212;" horiz-adv-x="540" 
d="M60 201v152h420v-152h-420z" />
    <glyph glyph-name="uni2215" unicode="&#x2215;" horiz-adv-x="508" 
d="M365 696h162l-385 -701h-162z" />
    <glyph glyph-name="uni2219" unicode="&#x2219;" horiz-adv-x="300" 
d="M45 312q0 45 31 70.5t74 25.5q42 0 73.5 -25.5t31.5 -70.5t-31.5 -70t-73.5 -25q-43 0 -74 25t-31 70z" />
    <glyph glyph-name="radical" unicode="&#x221a;" horiz-adv-x="635" 
d="M634 727l-240 -727h-127l-158 296l-70 -27l-38 93l219 99l115 -243l181 544z" />
    <glyph glyph-name="infinity" unicode="&#x221e;" horiz-adv-x="768" 
d="M382 225q-82 -82 -151 -76q-84 3 -130.5 51t-47.5 114q0 69 50 119.5t137 50.5q33 0 74.5 -23t67.5 -53q33 34 72.5 55t71.5 21q89 0 139 -48t50 -122q0 -67 -47.5 -115t-133.5 -50q-72 -4 -152 76zM532 271q34 0 48 23t0 46t-48 23q-24 0 -73 -47q45 -45 73 -45z
M236 271q28 0 73 45q-49 47 -73 47q-34 0 -48 -23t0 -46t48 -23z" />
    <glyph glyph-name="integral" unicode="&#x222b;" horiz-adv-x="520" 
d="M163 13v486q4 76 43.5 128t95 70t117.5 11t111 -39l-63 -137q-29 18 -55.5 23.5t-46 -7.5t-19.5 -49v-486q-3 -73 -38.5 -124t-86.5 -70.5t-112 -10.5t-115 47l59 125q14 -11 31.5 -18.5t35.5 -8.5t30.5 14t12.5 46z" />
    <glyph glyph-name="approxequal" unicode="&#x2248;" horiz-adv-x="566" 
d="M134 313l-88 51q25 56 69 87t96 20q16 -4 52.5 -19t61.5 -23.5t51.5 -2.5t37.5 35l92 -38q-34 -134 -150 -115q-34 3 -108 29q-23 9 -35 12t-29 4t-29 -9.5t-21 -30.5zM146 124l-87 50q24 56 68 87.5t96 20.5q16 -4 53 -19t62 -24t51.5 -3t37.5 36l92 -39
q-17 -68 -57 -95.5t-94 -18.5q-36 3 -107 29q-22 8 -35 11.5t-29.5 4t-29 -9.5t-21.5 -30z" />
    <glyph glyph-name="notequal" unicode="&#x2260;" horiz-adv-x="582" 
d="M57 121v149h164q5 8 17 32.5t21 39.5h-202v150h286l55 97l94 -51l-28 -46h58v-150h-140q-5 -9 -19.5 -33t-21.5 -39h181v-149h-266l-55 -99l-92 53l27 46h-79z" />
    <glyph glyph-name="lessequal" unicode="&#x2264;" horiz-adv-x="466" 
d="M51 44v122h365v-122h-365zM50 426v8l254 216l92 -89l-143 -128l142 -126l-91 -93z" />
    <glyph glyph-name="greaterequal" unicode="&#x2265;" horiz-adv-x="466" 
d="M415 166v-122h-365v122h365zM416 434v-8l-254 -212l-91 93l142 126l-143 128l92 89z" />
    <glyph glyph-name="lozenge" unicode="&#x25ca;" horiz-adv-x="641" 
d="M613 350l-214 -351h-154l-217 351l217 352h154zM217 350l106 -183l100 182l-100 186z" />
    <glyph glyph-name="fi" unicode="&#xfb01;" horiz-adv-x="705" 
d="M456 621q0 44 31 68.5t73 24.5t72.5 -24.5t30.5 -68.5q0 -43 -31 -67.5t-72 -24.5q-42 0 -73 24.5t-31 67.5zM467 0h185v486h-185v-486zM390 562l35 127q-41 22 -111 22q-86 0 -149.5 -50.5t-63.5 -151.5v-24h-84v-140h84v-345h184v345h119v140h-119v24q0 30 15.5 45.5
t39.5 15.5q31 0 50 -8z" />
    <glyph glyph-name="fl" unicode="&#xfb02;" horiz-adv-x="706" 
d="M652 0h-181v696h181v-696zM425 689l-35 -127q-19 8 -50 8q-24 0 -39.5 -15.5t-15.5 -45.5v-24h119v-140h-119v-345h-184v345h-84v140h84v24q0 101 63.5 151.5t149.5 50.5q70 0 111 -22z" />
    <glyph glyph-name="CR" horiz-adv-x="322" 
 />
    <glyph glyph-name="_0004" horiz-adv-x="0" 
 />
    <glyph glyph-name="g.alt" horiz-adv-x="649" 
d="M310 356q-43 0 -71 -29.5t-28 -79.5q0 -48 28 -76.5t71 -28.5q45 0 73.5 30.5t28.5 73.5q0 50 -27 80t-75 30zM47 -38h183q4 -30 29.5 -45t60.5 -15q45 0 71.5 25.5t26.5 69.5v65q-50 -69 -164 -63q-108 7 -167 73t-59 175q0 113 66.5 185.5t173.5 72.5q103 0 145 -64
l9 53h173v-492q0 -122 -76 -185t-199 -63q-121 0 -195 52.5t-78 155.5z" />
    <glyph glyph-name="gcircumflex.alt" horiz-adv-x="649" 
d="M310 356q48 0 75 -30t27 -80q0 -43 -28.5 -73.5t-73.5 -30.5q-43 0 -71 28.5t-28 76.5q0 50 28 79.5t71 29.5zM230 -38h-183q4 -103 78 -155.5t195 -52.5q123 0 199 63t76 185v492h-173l-9 -53q-42 64 -145 64q-107 0 -173.5 -72.5t-66.5 -185.5q0 -109 59 -175t167 -73
q114 -6 164 63v-65q0 -44 -26.5 -69.5t-71.5 -25.5q-35 0 -60.5 15t-29.5 45zM282 716h114l152 -157v-8h-158l-51 47l-51 -47h-158v8z" />
    <glyph glyph-name="gbreve.alt" horiz-adv-x="649" 
d="M310 356q-43 0 -71 -29.5t-28 -79.5q0 -48 28 -76.5t71 -28.5q45 0 73.5 30.5t28.5 73.5q0 50 -27 80t-75 30zM47 -38h183q4 -30 29.5 -45t60.5 -15q45 0 71.5 25.5t26.5 69.5v65q-50 -69 -164 -63q-108 7 -167 73t-59 175q0 113 66.5 185.5t173.5 72.5q103 0 145 -64
l9 53h173v-492q0 -122 -76 -185t-199 -63q-121 0 -195 52.5t-78 155.5zM155 712h137q0 -24 14 -33t28 -9q8 0 16.5 2.5t17.5 12.5t9 27h136q2 -76 -47.5 -120.5t-131.5 -44.5t-131.5 44.5t-47.5 120.5z" />
    <glyph glyph-name="gdotaccent.alt" horiz-adv-x="649" 
d="M227 634q0 41 30 64.5t71 23.5t71 -23.5t30 -64.5q0 -40 -30 -63t-71 -23t-71 23t-30 63zM310 356q48 0 75 -30t27 -80q0 -43 -28.5 -73.5t-73.5 -30.5q-43 0 -71 28.5t-28 76.5q0 50 28 79.5t71 29.5zM230 -38h-183q4 -103 78 -155.5t195 -52.5q123 0 199 63t76 185v492
h-173l-9 -53q-42 64 -145 64q-107 0 -173.5 -72.5t-66.5 -185.5q0 -109 59 -175t167 -73q114 -6 164 63v-65q0 -44 -26.5 -69.5t-71.5 -25.5q-35 0 -60.5 15t-29.5 45z" />
    <glyph glyph-name="gcommaaccent.alt" horiz-adv-x="649" 
d="M310 356q48 0 75 -30t27 -80q0 -43 -28.5 -73.5t-73.5 -30.5q-43 0 -71 28.5t-28 76.5q0 50 28 79.5t71 29.5zM230 -38h-183q4 -103 78 -155.5t195 -52.5q123 0 199 63t76 185v492h-173l-9 -53q-42 64 -145 64q-107 0 -173.5 -72.5t-66.5 -185.5q0 -109 59 -175t167 -73
q114 -6 164 63v-65q0 -44 -26.5 -69.5t-71.5 -25.5q-35 0 -60.5 15t-29.5 45zM234 633q0 48 58 161h97l-21 -98q53 -10 53 -64q0 -36 -28.5 -56.5t-69.5 -20.5q-37 0 -63 20.5t-26 57.5z" />
    <glyph glyph-name="commaaccent" horiz-adv-x="382" 
d="M267 -120q0 -48 -58 -161h-97l21 98q-53 10 -53 64q0 36 28.5 56.5t69.5 20.5q37 0 63 -20.5t26 -57.5z" />
    <glyph glyph-name="commaaccent.alt" horiz-adv-x="377" 
d="M93 578q0 48 58 161h97l-21 -98q53 -10 53 -64q0 -36 -28.5 -56.5t-69.5 -20.5q-37 0 -63 20.5t-26 57.5z" />
    <glyph glyph-name="zero.tf" horiz-adv-x="720" 
d="M237 403v-117q0 -146 123 -146q57 0 90.5 35t33.5 111v117q0 73 -33 108t-88 35q-126 0 -126 -143zM43 286v115q0 79 25.5 139t70 96.5t101 54.5t123.5 18q138 0 225.5 -78.5t87.5 -229.5v-114q0 -102 -44 -172.5t-112.5 -102t-155.5 -31.5q-64 0 -120.5 17.5t-102 53
t-72 95.5t-26.5 139z" />
    <glyph glyph-name="one.tf" horiz-adv-x="720" 
d="M107 0v152h169v333l-151 -49v154l343 123v-561h171v-152h-532z" />
    <glyph glyph-name="two.tf" horiz-adv-x="720" 
d="M265 479h-193q1 115 84 173t210 58q130 0 210 -56.5t80 -164.5q0 -232 -293 -232q-114 0 -114 -89h402v-168h-591v163q0 250 303 250q37 0 67.5 17.5t30.5 55.5q0 34 -27.5 50.5t-67.5 16.5q-94 0 -101 -74z" />
    <glyph glyph-name="three.tf" horiz-adv-x="720" 
d="M363 287h-127v140h118q96 0 98 58q0 27 -27 45.5t-71 18.5q-43 0 -72.5 -17t-30.5 -52h-190q1 50 18.5 90t46 66t66.5 43.5t78.5 25t83.5 7.5q54 0 104 -12t94 -36.5t71 -68.5t27 -102q0 -41 -25.5 -79t-67.5 -56q109 -40 109 -154q0 -58 -29 -102.5t-77 -68t-100 -35
t-107 -11.5q-44 0 -85.5 8t-81.5 26.5t-69.5 46t-47.5 69.5t-18 94h194q1 -44 34.5 -64t83.5 -20q39 0 68 18.5t29 50.5q0 10 -2.5 19t-11 22.5t-30 21.5t-53.5 8z" />
    <glyph glyph-name="four.tf" horiz-adv-x="720" 
d="M406 700h183v-423h75v-156h-75v-121h-186v121h-357l-13 164zM237 277h166v183z" />
    <glyph glyph-name="five.tf" horiz-adv-x="720" 
d="M608 700v-161h-337v-84h94q63 0 111.5 -10t91.5 -34t66 -71.5t23 -115.5q0 -62 -26 -108.5t-69 -73t-92 -39t-101 -12.5q-135 0 -213.5 57.5t-79.5 183.5h193q0 -41 30 -61.5t68 -20.5q13 0 27.5 3t31.5 10.5t27.5 23t10.5 37.5q0 24 -9.5 40.5t-26.5 23.5t-31.5 9.5
t-31.5 2.5h-277v400h520z" />
    <glyph glyph-name="six.tf" horiz-adv-x="720" 
d="M658 499h-189q-3 30 -32 45.5t-73 15.5t-77 -23t-33 -61v-66q64 48 162 48q115 0 186.5 -59.5t71.5 -167.5q0 -62 -25.5 -110t-69.5 -75.5t-97 -41.5t-113 -14q-80 0 -147.5 23.5t-114.5 80.5t-47 139v243q0 79 44.5 134.5t111 79.5t147.5 24q62 0 113 -11t93 -35
t65.5 -67t23.5 -102zM369 152q47 0 77.5 21.5t30.5 57.5q0 40 -29 62.5t-78 22.5q-55 0 -84.5 -23.5t-29.5 -60.5q0 -33 30 -56.5t83 -23.5z" />
    <glyph glyph-name="seven.tf" horiz-adv-x="720" 
d="M346 0h-212l271 537h-315v163h556l5 -89z" />
    <glyph glyph-name="eight.tf" horiz-adv-x="720" 
d="M360 292q-52 0 -83 -19.5t-31 -54.5t32.5 -54.5t80.5 -19.5q47 0 79.5 19t31.5 54q0 34 -29 54.5t-81 20.5zM41 218q1 35 24.5 78t68.5 67q-70 50 -72 139q0 103 80.5 158t208.5 55q131 0 219.5 -55.5t88.5 -155.5q1 -41 -18.5 -76.5t-55.5 -57.5q49 -27 70 -70t22 -82
q2 -121 -84.5 -177t-233.5 -56q-95 0 -164.5 21.5t-112.5 75t-41 136.5zM355 422q37 0 62 14.5t31 36t0.5 42.5t-30.5 35.5t-62 14.5t-62 -14.5t-31 -35.5t0 -42.5t31 -36t61 -14.5z" />
    <glyph glyph-name="nine.tf" horiz-adv-x="720" 
d="M55 203h189q3 -30 32 -45.5t73 -15.5q46 0 81.5 24t35.5 66v60q-60 -48 -162 -48q-115 0 -186.5 59.5t-71.5 167.5q0 62 25.5 110t69.5 75.5t97 41.5t113 14q80 0 147.5 -23.5t114.5 -80.5t47 -139v-236q0 -63 -26 -112t-71 -77t-98.5 -42t-113.5 -14q-49 0 -91.5 6.5
t-81 22.5t-65 40t-42.5 61.5t-16 84.5zM351 550q-47 0 -77.5 -21.5t-30.5 -57.5q0 -40 29 -62.5t78 -22.5q55 0 84.5 23.5t29.5 60.5q0 33 -30 56.5t-83 23.5z" />
    <glyph glyph-name="Euro.tf" horiz-adv-x="720" 
d="M82 199v121h55v19.5v20v10.5h-55v117h83q26 73 80.5 124t120.5 73t138.5 21t136.5 -26l-48 -141q-61 27 -125 16.5t-97 -67.5h181l-29 -117h-199q-1 -25 0 -50h188l-26 -121h-113q38 -42 107 -56t122 7l48 -144q-67 -21 -140 -21q-135 0 -224.5 56t-125.5 158h-78z" />
    <glyph glyph-name="cent.tf" horiz-adv-x="720" 
d="M503 184l105 -110q-67 -61 -144 -77v-76h-161v82q-82 23 -130.5 83t-48.5 160q0 98 49.5 159.5t129.5 85.5v85h161v-78q75 -16 131 -70l-98 -106q-35 36 -85 36q-51 0 -79.5 -32t-28.5 -81q0 -43 28.5 -72.5t78.5 -29.5q54 0 92 41z" />
    <glyph glyph-name="sterling.tf" horiz-adv-x="720" 
d="M316 472q0 -31 10 -69h189v-136h-166q4 -26 -5 -59.5t-26 -50.5h333v-157h-576v156q44 1 67 36t20 75h-87v136h60q-8 35 -10 68q-5 107 64.5 173t196.5 66q119 0 187 -57.5t63 -169.5h-175q-1 36 -19.5 54t-49.5 18q-35 0 -55.5 -21t-20.5 -62z" />
    <glyph glyph-name="florin.tf" horiz-adv-x="720" 
d="M571 337h-128v-338q0 -79 -38 -131.5t-92.5 -68.5t-115.5 -4t-107 51l56 111q28 -24 58 -24q24 0 39.5 16t15.5 49v339h-109v142h109v30q0 101 63.5 151.5t149.5 50.5q97 0 149 -51l-56 -114q-28 24 -67 24q-24 0 -39.5 -15.5t-15.5 -45.5v-30h128v-142z" />
    <glyph glyph-name="yen.tf" horiz-adv-x="720" 
d="M100 110v119h157v41h-157v127h80l-191 295v8h220l74 -123l74 -140l76 139l78 124h220v-9l-200 -294h80v-127h-160v-41h160v-119h-160v-110h-194v110h-157z" />
    <glyph glyph-name="dollar.tf" horiz-adv-x="720" 
d="M277 -110v94q-130 15 -227 119l109 125q81 -79 205 -79q50 0 80 16.5t30 45.5q0 53 -117 64q-64 6 -110 17.5t-88.5 35.5t-64.5 67.5t-22 106.5q0 84 57 135.5t148 68.5v91h168v-89q103 -15 182 -77l-98 -125q-64 48 -164 48q-40 0 -67.5 -13t-27.5 -39q0 -33 27 -44.5
t89 -17.5q57 -6 104 -20.5t89.5 -40.5t66.5 -69.5t24 -101.5q0 -93 -63 -148.5t-163 -72.5h1v-97h-168z" />
    <glyph glyph-name="zero.denom" horiz-adv-x="407" 
d="M139 208v-55q0 -30 19 -46.5t45 -16.5t45.5 16.5t19.5 46.5v55q0 31 -19.5 48t-45.5 17t-45 -17t-19 -48zM33 156v53q0 78 50.5 121t120.5 43q69 0 119.5 -43t50.5 -121v-53q0 -79 -51 -124t-119 -45q-70 0 -120.5 45t-50.5 124z" />
    <glyph glyph-name="one.denom" horiz-adv-x="285" 
d="M32 0v91h61v162q-7 -1 -25.5 -5.5t-25.5 -5.5v92l158 42v-285h63v-91h-231z" />
    <glyph glyph-name="two.denom" horiz-adv-x="379" 
d="M142 258h-105q1 57 45.5 90.5t104.5 33.5q70 0 113.5 -32t43.5 -93q0 -32 -12 -55t-36.5 -36.5t-42.5 -19.5t-49 -13q-61 -13 -66 -29h203v-104h-306v99q0 31 11 53t34 35t39.5 19t46.5 13q24 5 35.5 8.5t22 11t10.5 18.5q0 14 -13 21.5t-31 7.5q-17 0 -31 -7.5
t-17 -20.5z" />
    <glyph glyph-name="three.denom" horiz-adv-x="382" 
d="M189 146h-62v83h58q50 0 50 30q0 27 -50 29q-20 1 -36 -7t-19 -22h-96q0 59 46.5 89.5t106.5 30.5t108 -32t48 -89q0 -44 -39 -70q21 -11 34 -33t13 -47q0 -35 -15 -59.5t-40 -37t-51.5 -18t-56.5 -5.5q-61 0 -110.5 32t-50.5 93h112q4 -28 48 -28q21 0 36 8t15 24
q0 29 -49 29z" />
    <glyph glyph-name="four.denom" horiz-adv-x="401" 
d="M187 372h135v-219h44v-93h-44v-60h-107v60h-190l-4 91zM215 153v105l-80 -105h80z" />
    <glyph glyph-name="five.denom" horiz-adv-x="381" 
d="M328 372v-94h-180v-33h48q156 0 156 -125q0 -68 -45.5 -100.5t-105.5 -32.5q-70 0 -114.5 32.5t-45.5 99.5h109q2 -18 14.5 -28t28.5 -10q19 0 34 10.5t15 28.5q0 16 -13.5 25t-32.5 9h-150v218h282z" />
    <glyph glyph-name="six.denom" horiz-adv-x="385" 
d="M244 121q0 16 -14.5 24.5t-34.5 8.5q-21 0 -35.5 -8.5t-13.5 -24.5q0 -16 14 -24.5t34 -8.5t35 9t15 24zM345 259h-101q-2 14 -15 22t-31 8q-21 0 -36.5 -8t-15.5 -22v-32q31 16 70 16q55 0 96.5 -31.5t41.5 -90.5q0 -62 -47.5 -94.5t-111.5 -32.5q-63 0 -110 34t-47 94
v137q0 57 46 88t110 31q65 0 106.5 -29t44.5 -90z" />
    <glyph glyph-name="seven.denom" horiz-adv-x="328" 
d="M167 0h-121l130 272h-150v100h287l4 -47z" />
    <glyph glyph-name="eight.denom" horiz-adv-x="393" 
d="M140 117q-1 -12 13.5 -24t44.5 -12q29 0 43 11t13 25q0 13 -16 23t-39 10q-25 0 -42 -9t-17 -24zM30 118q0 18 13.5 40t35.5 36q-38 28 -38 68q0 57 43 88.5t111 31.5q67 0 112 -31.5t45 -87.5q0 -44 -38 -66q22 -15 35 -37t13 -43q1 -66 -47 -97t-120 -29
q-72 0 -119.5 30.5t-45.5 96.5zM198 231q22 0 33.5 9t11.5 21t-12.5 21.5t-33.5 9.5q-22 0 -34.5 -9t-12.5 -21q0 -13 12.5 -22t35.5 -9z" />
    <glyph glyph-name="nine.denom" horiz-adv-x="384" 
d="M142 251q0 -33 49 -33q20 0 35 8t14 25q0 15 -14.5 23.5t-33.5 8.5q-21 0 -35.5 -8.5t-14.5 -23.5zM36 113h103q2 -15 16 -23t32 -8q21 0 37 8.5t16 22.5v31q-31 -16 -70 -16q-55 0 -96.5 32t-41.5 91q0 61 48 93.5t111 32.5t110 -34t47 -93v-137q0 -58 -46.5 -90
t-109.5 -32q-69 0 -111.5 29.5t-44.5 92.5z" />
    <glyph glyph-name="zero.num" horiz-adv-x="407" 
d="M139 542v-55q0 -30 19 -46.5t45 -16.5t45.5 16.5t19.5 46.5v55q0 31 -19.5 48.5t-45.5 17.5t-45 -17.5t-19 -48.5zM33 490v53q0 78 50.5 121.5t120.5 43.5q68 0 119 -43.5t51 -121.5v-53q0 -79 -51 -124t-119 -45q-70 0 -120.5 45t-50.5 124z" />
    <glyph glyph-name="one.num" horiz-adv-x="286" 
d="M33 333v91h61v162q-7 -1 -25.5 -5.5t-25.5 -5.5v92l158 43v-286h63v-91h-231z" />
    <glyph glyph-name="two.num" horiz-adv-x="378" 
d="M141 581h-105q1 58 45.5 91.5t104.5 33.5q70 0 113.5 -32.5t43.5 -93.5q0 -32 -12 -55t-36.5 -36t-43 -19.5t-48.5 -12.5q-61 -13 -66 -30h203v-104h-306v99q0 32 11 54t34.5 35t39.5 18.5t46 12.5l27 7t20 7t16.5 10.5t4.5 13.5q0 15 -13 22.5t-31 7.5t-31.5 -7.5
t-16.5 -21.5z" />
    <glyph glyph-name="three.num" horiz-adv-x="382" 
d="M189 474h-62v84h58q50 0 50 29q0 28 -50 30q-49 0 -55 -30h-96q0 59 46.5 90t106.5 31t108 -32.5t48 -89.5q0 -45 -39 -69q21 -11 34 -33.5t13 -47.5q0 -45 -27 -73.5t-61 -37t-75 -8.5q-61 0 -110.5 31.5t-50.5 92.5h112q4 -27 48 -27q51 0 51 31q0 29 -49 29z" />
    <glyph glyph-name="four.num" horiz-adv-x="399" 
d="M186 700h135v-220h44v-93h-44v-60h-107v60h-190l-4 91zM214 480v105l-80 -105h80z" />
    <glyph glyph-name="five.num" horiz-adv-x="383" 
d="M330 697v-94h-180v-34h48q156 0 156 -125q0 -68 -45 -100t-106 -32q-70 0 -114.5 32t-45.5 99h109q2 -18 14.5 -27.5t28.5 -9.5q19 0 34 10.5t15 27.5t-13.5 25.5t-32.5 8.5h-150v219h282z" />
    <glyph glyph-name="six.num" horiz-adv-x="382" 
d="M242 450q0 16 -14.5 24.5t-34.5 8.5q-21 0 -35.5 -8.5t-13.5 -24.5q0 -16 14 -24t34 -8t35 8.5t15 23.5zM343 588h-101q-4 30 -46 30q-21 0 -36.5 -8t-15.5 -22v-31q29 15 70 15q55 0 96.5 -31.5t41.5 -90.5q0 -61 -48 -94t-111 -33t-110 34.5t-47 93.5v137q0 57 46 88.5
t110 31.5q65 0 106.5 -29.5t44.5 -90.5z" />
    <glyph glyph-name="seven.num" horiz-adv-x="329" 
d="M167 325h-121l130 273h-150v100h287l4 -47z" />
    <glyph glyph-name="eight.num" horiz-adv-x="392" 
d="M140 444q-1 -12 13.5 -23.5t44.5 -11.5q29 0 43 11t13 24q0 14 -16 23.5t-39 9.5q-25 0 -42 -8.5t-17 -24.5zM30 445q0 18 13.5 40t35.5 36q-16 12 -27 31.5t-11 36.5q0 57 43 89t111 32q67 0 112 -32t45 -88q0 -44 -38 -66q22 -14 35 -36.5t13 -43.5q1 -66 -47 -96.5
t-120 -28.5q-72 0 -119.5 30.5t-45.5 95.5zM198 559q22 0 33.5 8.5t11.5 20.5q0 13 -12.5 22t-33.5 9q-22 0 -34.5 -9t-12.5 -21q0 -13 12.5 -21.5t35.5 -8.5z" />
    <glyph glyph-name="nine.num" horiz-adv-x="384" 
d="M142 579q0 -16 14 -24.5t35 -8.5q20 0 35 8.5t14 24.5q0 15 -14.5 24t-33.5 9q-21 0 -35.5 -8.5t-14.5 -24.5zM36 441h103q4 -30 48 -30q21 0 37 8t16 22v31q-32 -15 -70 -15q-55 0 -96.5 31.5t-41.5 90.5q0 62 47.5 94.5t111.5 32.5q63 0 110 -34.5t47 -93.5v-137
q0 -57 -46.5 -89t-109.5 -32q-69 0 -111.5 29.5t-44.5 91.5z" />
    <glyph glyph-name="parenleft.case" horiz-adv-x="387" 
d="M289 827l84 -98q-80 -66 -127 -166.5t-47 -214.5q0 -107 44.5 -210t119.5 -165l-79 -106q-124 83 -187.5 206.5t-63.5 274.5q0 144 69.5 270.5t186.5 208.5z" />
    <glyph glyph-name="parenright.case" horiz-adv-x="387" 
d="M14 729l84 98q117 -82 186.5 -208.5t69.5 -270.5q0 -151 -63.5 -274.5t-187.5 -206.5l-79 106q75 62 119.5 165t44.5 210q0 114 -47 214.5t-127 166.5z" />
    <glyph glyph-name="hyphen.case" horiz-adv-x="522" 
d="M60 258v147h402v-147h-402z" />
    <glyph glyph-name="bracketleft.case" horiz-adv-x="386" 
d="M344 -85h-271v860h271v-145h-106v-570h106v-145z" />
    <glyph glyph-name="bracketright.case" horiz-adv-x="386" 
d="M313 -85h-271v145h106v570h-106v145h271v-860z" />
    <glyph glyph-name="braceleft.case" horiz-adv-x="398" 
d="M356 47v-132q-53 -10 -93 -10q-167 0 -167 175v141q0 11 -2 19t-8 17t-19.5 14t-33.5 5v128q38 0 50.5 15.5t12.5 40.5v133q0 90 39 137t128 47q42 0 93 -9v-122q-87 18 -87 -60v-140q0 -23 -0.5 -33.5t-4.5 -26.5t-14.5 -27t-27.5 -21q29 -16 38 -40.5t9 -63.5v-136
q0 -29 13 -42t32.5 -12t41.5 3z" />
    <glyph glyph-name="bar.case" horiz-adv-x="323" 
d="M250 735v-819h-177v819h177z" />
    <glyph glyph-name="braceright.case" horiz-adv-x="398" 
d="M42 -85v132q22 -2 41.5 -3t32.5 12t13 42v136q0 39 9 63.5t38 40.5q-17 10 -27.5 21t-14.5 27t-4.5 26.5t-0.5 33.5v140q0 78 -87 60v122q51 9 93 9q89 0 128 -47t39 -137v-133q0 -16 3.5 -26.5t18 -20t41.5 -9.5v-128q-38 0 -50.5 -15.5t-12.5 -39.5v-141
q0 -175 -167 -175q-40 0 -93 10z" />
    <glyph glyph-name="guilsinglleft.case" horiz-adv-x="411" 
d="M44 332l139 224h173l-139 -224l141 -223h-175z" />
    <glyph glyph-name="guilsinglright.case" horiz-adv-x="411" 
d="M228 556l139 -224l-139 -223h-175l141 223l-139 224h173z" />
    <glyph glyph-name="guillemotleft.case" horiz-adv-x="643" 
d="M44 332l139 224h173l-139 -224l141 -223h-175zM276 332l139 224h173l-139 -224l141 -223h-175z" />
    <glyph glyph-name="guillemotright.case" horiz-adv-x="643" 
d="M460 556l139 -224l-139 -223h-175l141 223l-139 224h173zM228 556l139 -224l-139 -223h-175l141 223l-139 224h173z" />
    <glyph glyph-name="endash.case" horiz-adv-x="621" 
d="M60 250v146h501v-146h-501z" />
    <glyph glyph-name="emdash.case" horiz-adv-x="708" 
d="M60 251v146h588v-146h-588z" />
    <glyph glyph-name="bullet.case" horiz-adv-x="439" 
d="M221 173q-68 0 -112 38.5t-44 102.5q0 63 44.5 103t111.5 40q65 0 109 -40t44 -103t-43.5 -102t-109.5 -39z" />
    <glyph glyph-name="periodcentered.case" horiz-adv-x="318" 
d="M159 229q-49 0 -77 29.5t-28 65.5t28 65.5t77 29.5t77 -29.5t28 -65.5t-28 -65.5t-77 -29.5z" />
    <glyph glyph-name="a.alt" horiz-adv-x="571" 
d="M251 507q48 0 86 -4.5t74 -17.5t59.5 -34.5t37.5 -57t14 -82.5v-311h-167l-8 51q-54 -60 -135 -60q-89 0 -138 47.5t-49 130.5q0 80 62 119.5t152 39.5q47 0 100 -16q-4 60 -94 60q-83 0 -160 -33l-24 122q95 46 190 46zM205 168q0 -41 57 -41q26 1 50.5 16.5t29.5 46.5
q-36 20 -81 20q-56 0 -56 -42z" />
    <glyph glyph-name="agrave.alt" horiz-adv-x="571" 
d="M251 507q48 0 86 -4.5t74 -17.5t59.5 -34.5t37.5 -57t14 -82.5v-311h-167l-8 51q-54 -60 -135 -60q-89 0 -138 47.5t-49 130.5q0 80 62 119.5t152 39.5q47 0 100 -16q-4 60 -94 60q-83 0 -160 -33l-24 122q95 46 190 46zM205 168q0 -41 57 -41q26 1 50.5 16.5t29.5 46.5
q-36 20 -81 20q-56 0 -56 -42zM123 694v7h180l72 -141v-5h-150z" />
    <glyph glyph-name="aacute.alt" horiz-adv-x="571" 
d="M251 507q-95 0 -190 -46l24 -122q77 33 160 33q90 0 94 -60q-53 16 -100 16q-90 0 -152 -39.5t-62 -119.5q0 -83 49 -130.5t138 -47.5q81 0 135 60l8 -51h167v311q0 47 -14 82.5t-37.5 57t-59.5 34.5t-74 17.5t-86 4.5zM205 168q0 42 56 42q45 0 81 -20
q-5 -31 -29.5 -46.5t-50.5 -16.5q-57 0 -57 41zM454 701v-7l-102 -139h-150v5l72 141h180z" />
    <glyph glyph-name="acircumflex.alt" horiz-adv-x="571" 
d="M251 507q-95 0 -190 -46l24 -122q77 33 160 33q90 0 94 -60q-53 16 -100 16q-90 0 -152 -39.5t-62 -119.5q0 -83 49 -130.5t138 -47.5q81 0 135 60l8 -51h167v311q0 47 -14 82.5t-37.5 57t-59.5 34.5t-74 17.5t-86 4.5zM205 168q0 42 56 42q45 0 81 -20
q-5 -31 -29.5 -46.5t-50.5 -16.5q-57 0 -57 41zM234 709h110l147 -147v-8h-153l-49 44l-49 -44h-152v8z" />
    <glyph glyph-name="atilde.alt" horiz-adv-x="571" 
d="M251 507q48 0 86 -4.5t74 -17.5t59.5 -34.5t37.5 -57t14 -82.5v-311h-167l-8 51q-54 -60 -135 -60q-89 0 -138 47.5t-49 130.5q0 80 62 119.5t152 39.5q47 0 100 -16q-4 60 -94 60q-83 0 -160 -33l-24 122q95 46 190 46zM205 168q0 -41 57 -41q26 1 50.5 16.5t29.5 46.5
q-36 20 -81 20q-56 0 -56 -42zM283 575q-72 42 -96 -14l-93 62q23 65 84 85.5t114 -12.5q66 -40 98 16l88 -61q-24 -68 -76.5 -89t-118.5 13z" />
    <glyph glyph-name="adieresis.alt" horiz-adv-x="571" 
d="M251 507q-95 0 -190 -46l24 -122q77 33 160 33q90 0 94 -60q-53 16 -100 16q-90 0 -152 -39.5t-62 -119.5q0 -83 49 -130.5t138 -47.5q81 0 135 60l8 -51h167v311q0 47 -14 82.5t-37.5 57t-59.5 34.5t-74 17.5t-86 4.5zM205 168q0 42 56 42q45 0 81 -20
q-5 -31 -29.5 -46.5t-50.5 -16.5q-57 0 -57 41zM73 633q0 38 26.5 60t62.5 22t63 -22t27 -60q0 -37 -27 -58.5t-63 -21.5t-62.5 21.5t-26.5 58.5zM318 633q0 38 27 60t64 22q36 0 63 -22t27 -60q0 -37 -27 -58.5t-63 -21.5q-37 0 -64 21.5t-27 58.5z" />
    <glyph glyph-name="amacron.alt" horiz-adv-x="571" 
d="M120 573v125h338v-125h-338zM251 507q48 0 86 -4.5t74 -17.5t59.5 -34.5t37.5 -57t14 -82.5v-311h-167l-8 51q-54 -60 -135 -60q-89 0 -138 47.5t-49 130.5q0 80 62 119.5t152 39.5q47 0 100 -16q-4 60 -94 60q-83 0 -160 -33l-24 122q95 46 190 46zM205 168
q0 -41 57 -41q26 1 50.5 16.5t29.5 46.5q-36 20 -81 20q-56 0 -56 -42z" />
    <glyph glyph-name="abreve.alt" horiz-adv-x="571" 
d="M251 507q48 0 86 -4.5t74 -17.5t59.5 -34.5t37.5 -57t14 -82.5v-311h-167l-8 51q-54 -60 -135 -60q-89 0 -138 47.5t-49 130.5q0 78 62 118.5t152 40.5q47 0 100 -16q-4 60 -94 60q-83 0 -160 -33l-24 122q95 46 190 46zM205 168q0 -41 57 -41q26 1 50.5 16.5t29.5 46.5
q-36 20 -81 20q-56 0 -56 -42zM112 706h131q0 -17 9 -27t16.5 -12t15.5 -2t16 2t16.5 12t8.5 27h131q2 -74 -45.5 -116.5t-126.5 -42.5t-126.5 42.5t-45.5 116.5z" />
    <glyph glyph-name="aring.alt" horiz-adv-x="571" 
d="M251 507q48 0 86 -4.5t74 -17.5t59.5 -34.5t37.5 -57t14 -82.5v-311h-167l-8 51q-54 -60 -135 -60q-89 0 -138 47.5t-49 130.5q0 78 62 118.5t152 40.5q47 0 100 -16q-4 60 -94 60q-83 0 -160 -33l-24 122q95 46 190 46zM205 168q0 -41 57 -41q26 1 50.5 16.5t29.5 46.5
q-36 20 -81 20q-56 0 -56 -42zM287 772q71 0 111 -37t40.5 -81.5t-39.5 -81.5t-112 -37q-47 0 -81.5 17.5t-50.5 44t-16 57t15.5 57t50.5 44t82 17.5zM289 687q-26 0 -37 -16.5t0 -33.5t37 -17q25 0 35.5 17t0 33.5t-35.5 16.5z" />
    <glyph glyph-name="aringacute.alt" horiz-adv-x="571" 
d="M251 507q-95 0 -190 -46l24 -122q77 33 160 33q90 0 94 -60q-53 16 -100 16q-90 0 -152 -40.5t-62 -118.5q0 -83 49 -130.5t138 -47.5q81 0 135 60l8 -51h167v311q0 47 -14 82.5t-37.5 57t-59.5 34.5t-74 17.5t-86 4.5zM205 168q0 42 56 42q45 0 81 -20
q-5 -31 -29.5 -46.5t-50.5 -16.5q-57 0 -57 41zM286 764q-67 0 -104.5 -35.5t-37.5 -78t38 -78t104 -35.5q68 0 106 35.5t37.5 78t-38.5 78t-105 35.5zM287 685q26 0 37.5 -17.5t0.5 -34.5t-38 -17t-38.5 17t0 34.5t38.5 17.5zM460 908v-6l-103 -114h-152v4l72 116h183z" />
    <glyph glyph-name="aogonek.alt" horiz-adv-x="571" 
d="M522 311v-355q-17 3 -40 4.5t-40.5 -10t-11.5 -33.5q5 -17 34.5 -17.5t42.5 8.5l56 -77q-38 -30 -94.5 -36.5t-105 17t-58.5 73.5q-8 39 8 69.5t50 45.5l-13 53q-56 -62 -138 -62q-89 0 -138 47.5t-49 130.5q0 78 62 118.5t152 40.5q47 0 100 -16q-4 60 -94 60
q-83 0 -160 -33l-24 122q95 46 190 46q48 0 86 -4.5t74 -17.5t59.5 -34.5t37.5 -57t14 -82.5zM205 168q0 -41 57 -41q26 1 50.5 16.5t29.5 46.5q-36 20 -81 20q-56 0 -56 -42z" />
    <glyph glyph-name="y.alt" horiz-adv-x="621" 
d="M229 494v-244q0 -108 79 -108q75 0 75 105v247h184v-492q0 -125 -67 -186.5t-188 -61.5q-118 0 -184 52t-70 156h183q9 -60 71 -60q43 0 60.5 23.5t17.5 71.5v65q-22 -35 -51 -49t-72 -14q-113 0 -166.5 67t-53.5 181v247h182z" />
    <glyph glyph-name="yacute.alt" horiz-adv-x="621" 
d="M229 250v244h-182v-247q0 -114 53.5 -181t166.5 -67q43 0 72 14t51 49v-65q0 -48 -17.5 -71.5t-60.5 -23.5q-62 0 -71 60h-183q4 -104 70 -156t184 -52q121 0 188 61.5t67 186.5v492h-184v-247q0 -105 -75 -105q-79 0 -79 108zM491 709v-8l-109 -159h-161v6l77 161h193z
" />
    <glyph glyph-name="ycircumflex.alt" horiz-adv-x="621" 
d="M229 250v244h-182v-247q0 -114 53.5 -181t166.5 -67q43 0 72 14t51 49v-65q0 -48 -17.5 -71.5t-60.5 -23.5q-62 0 -71 60h-183q4 -104 70 -156t184 -52q121 0 188 61.5t67 186.5v492h-184v-247q0 -105 -75 -105q-79 0 -79 108zM249 717h114l152 -157v-8h-158l-51 47
l-51 -47h-158v8z" />
    <glyph glyph-name="ydieresis.alt" horiz-adv-x="621" 
d="M229 250v244h-182v-247q0 -114 53.5 -181t166.5 -67q43 0 72 14t51 49v-65q0 -48 -17.5 -71.5t-60.5 -23.5q-62 0 -71 60h-183q4 -104 70 -156t184 -52q121 0 188 61.5t67 186.5v492h-184v-247q0 -105 -75 -105q-79 0 -79 108zM68 628q0 40 27.5 63t65.5 23t66.5 -23
t28.5 -63q0 -38 -28.5 -60.5t-66.5 -22.5t-65.5 22.5t-27.5 60.5zM358 628q0 40 28 63t67 23q37 0 65.5 -23t28.5 -63q0 -38 -28.5 -60.5t-65.5 -22.5q-39 0 -67 22.5t-28 60.5z" />
    <glyph glyph-name="ygrave.alt" horiz-adv-x="621" 
d="M229 494v-244q0 -108 79 -108q75 0 75 105v247h184v-492q0 -125 -67 -186.5t-188 -61.5q-118 0 -184 52t-70 156h183q9 -60 71 -60q43 0 60.5 23.5t17.5 71.5v65q-22 -35 -51 -49t-72 -14q-113 0 -166.5 67t-53.5 181v247h182zM131 701v8h193l77 -161v-6h-161z" />
    </font>
</defs>
</svg>
